/* XPM */
static char *_9734ae9333a4139919ee79b2bfc8741[] = {
/* columns rows colors chars-per-pixel */
"48 48 126 2 ",
"   c #595D5E",
".  c #5A5E5F",
"X  c #5B5F60",
"o  c #5B5F61",
"O  c #5C6061",
"+  c #585C5D",
"@  c #5D6163",
"#  c #5C6062",
"$  c #5D6061",
"%  c #5B5E5F",
"&  c #595D5F",
"*  c #55595A",
"=  c #5F6263",
"-  c #5A5D5E",
";  c #5C5F61",
":  c #5B5E60",
">  c #5E6263",
",  c #5A5F60",
"<  c #5D6162",
"1  c #5E6163",
"2  c #595C5E",
"3  c #575B5C",
"4  c #4B4F50",
"5  c #585B5C",
"6  c #606465",
"7  c #606365",
"8  c #606466",
"9  c #4E5253",
"0  c #595C5D",
"q  c #5B5E61",
"w  c #606364",
"e  c #595E5F",
"r  c #5A5E60",
"t  c #565A5B",
"y  c #5A5D5F",
"u  c #585B5D",
"i  c #565A5C",
"p  c #595E5E",
"a  c #575B5D",
"s  c #585C5E",
"d  c #575C5D",
"f  c #4F5354",
"g  c #545859",
"h  c #464A4B",
"j  c #5E6264",
"k  c #3F4243",
"l  c #4E5152",
"z  c #5C5F60",
"x  c #505455",
"c  c #4D5153",
"v  c #535758",
"b  c #525657",
"n  c #575A5C",
"m  c #585D5D",
"M  c #5D6062",
"N  c #55595B",
"B  c #5D6164",
"V  c #5E6164",
"C  c #55585A",
"Z  c #555859",
"A  c #525658",
"S  c #545759",
"D  c #4D5152",
"F  c #565B5C",
"G  c #585D5E",
"H  c #5B6061",
"J  c #525556",
"K  c #56595B",
"L  c #54585A",
"P  c #505354",
"I  c #515556",
"U  c #5E6162",
"Y  c #505456",
"T  c #4A4D4E",
"R  c #474A4A",
"E  c #535759",
"W  c #535659",
"Q  c #575A5B",
"!  c #5C5E60",
"~  c #494D4E",
"^  c #4F5355",
"/  c #5B5D5F",
"(  c #4C5052",
")  c #555A5B",
"_  c #4E5154",
"`  c #5C5E61",
"'  c #545959",
"]  c #4E5354",
"[  c #4A4E50",
"{  c #56595A",
"}  c #54585B",
"|  c #4B4F51",
" . c #4E5254",
".. c #55595C",
"X. c #565A5D",
"o. c #53575A",
"O. c #515557",
"+. c #4C4F50",
"@. c #4C5051",
"#. c #535658",
"$. c #525659",
"%. c #4C4F51",
"&. c #4F5253",
"*. c #54595A",
"=. c #56595D",
"-. c #575A5E",
";. c #525557",
":. c #505355",
">. c #56595C",
",. c #595D61",
"<. c #55595D",
"1. c #55585C",
"2. c #595D60",
"3. c #5A5F62",
"4. c #545758",
"5. c #54595C",
"6. c #535859",
"7. c #505457",
"8. c #4E5255",
"9. c #555A5D",
"0. c #585C5F",
"q. c #575B5E",
"w. c #4D5154",
"e. c #4F5356",
"r. c #54585C",
"t. c #585D60",
/* pixels */
"    . X . o O X + @ # $ % .   & #   * . . .     = . O O   . X + + - @ $   + + - . .   X     ; : ",
": O X   . + . X   > # .   + . # , $ . .   . O X + + + . X . O   .   O $ X +   . .   < +   + + + ",
"    X     X +   X X   + +   . 1 2 + X   .   X +   . o +   + + %     3 3 3 3 3 3 + O X 3 + + +   ",
"O . X . +       +   o +   . X X +   X X   .       + X O X   4 5 O   .   : ; 3   o   3 o @ + + . ",
"+ 6 7 + O .     . 8 O + +       + . + & + :   # + 3 +   3 . + 9 *   X + : 2 3 X   + + + + + 3 3 ",
". .       X . + . X : + + 3   + +     +   0 + + + 3 . + 3   +     3 3 + O @ q   3 3 0 0     . 3 ",
"X 3 w # +   + .   3 X . + 3 + 2 + . 3       + O   + 3   3 3 3 @     X e + 3 + +   .   + 3 r . t ",
"3   . + O > + + +   o + + + + +   . . + . + . .   . . X + y 3 X +   X   t 3 t + 3 t t 0 0   3 u ",
"      r O + + 3 . + + . + # +   + # r +     + 3 + 3 3 t t   t 3 + 3 & i t 3 3 3 + 3 3 p 5 3 t t ",
"2 +   + + + 3 + 3 + 3 + 3 + 3     + + 3   a s X +   t t t d t r + t t 3 3 + t + t 3 3 + 0 3 t f ",
"- 3 3 +   * t + + . + &   3 3 3 t 3 3 # + + 3 3 3 + t + t t 3 s 3 3 g h 3 + + t 3 j & + t 3 g k ",
"l +   z + 3 x * t + 3 y     3 + s t 3 . 3 + X   3 t t . 3 t + t r . u c v 3 t 3 +     t   + 3 b ",
"n 3 + s   O v f t + t 3 3 + O 3 3 3 3   3 s r t 3 3 X   t 3 t t t 2 t t 3 3 t + & + t * 3 t t t ",
"  3 t 3 t + t b t 2 3 +     + 3 3 + t # & 3 i   +   . t 3 3 t t 3 + + t 3   t 3 3 2 + * u a * 3 ",
"  + m + 3 3 +     r + 3 + 3 + . 3 3 3 3 + 3 + X : M t t + s t 3 t t t + t * t t N 0 t t + O + u ",
"  . m t & 2 + + 3 # t 3 3 t X   + u 2 3 . 3 + t 3 3 + 3 3 3 t   3 i 3 t * + 3 t * + 3 t M + s 3 ",
"t X B 3 + 3   + X o t   3 V s t t 5 t t t t 3 3 3 + 3 g t t r s t t * + * * * * * 3 3 * * * 3 N ",
"+ + t a +   t 3 3 3 . 3 t t 3 +   . t 3 3 t t i i   t t c t i +   t   t t t t o t + + t 3 C Z t ",
"3 3 3 @ . y 3 3   + r + 3 t + +   t 3 +   t t * + 3 * s A * u n 3 3 t i + t * + 3 t 3   & n b * ",
"+ 3 . s + o + 3 3 3 3 3 t   3 3 * * * * + t 3 * t * t 3 * v t N t   3 3 O t 3 t * t * s s 3 S . ",
". 3 3 3 X . t + t   t t   + t 3 3 t t + 3 d .   t * 3 t i * t 3 t 2 + 3 * * 3 3 0 3 t * . + 3 > ",
"D 3 t r 3 3 3 + < X   3 t t   + 3   3 t F G H + G * t t * * * t t t u O . X X * t * * * t 3 + g ",
"* x * + * J s s t t t t o 3 + + 3 3 3 t * t 3   +   t * 3 t - K     X 3 * n g + & 3 t t * 3   s ",
": f f * t L P I * t t * t 3 t t * * * t F + . 3 t   3 * t + U 3 t * * t + C Y N a t 3 F t t g 3 ",
"3 + 3 3 3 d J T R * t * * t 3 * * . .   t t + 3 - 3 y ; t 3 5 F E n n   3 L W t g 3 * 3 v t F * ",
"t t * t 3   t s Z * s   t * t 3 t   t + t a s *   + 2 & 3 Q G i * t Y & r * v @ * g g * b s a * ",
"t 3 3 * 3 3 ! 3 t t t r + 3 y 3 * t g ~ t t * r 3 * . t * + + t g v + 3 + t f g t I x v ^ t g g ",
"N 3 t t t t 2 / * t t * * * * * t * * 3 ( t t * g g s & g   s t   C 3 t t t t N n g g * K 2 K + ",
"* 3 3 t 3 * t * 3   * * 3 t ) * * * g 3 t   3 g * * # 3 t * * 3 + t g g t 3 t g g * g * g v + * ",
"t + * N * * * 3 t * 3 * * *   F 3 t * + * + E x 3 3 x I y s g u t K s * g * g * * g g t g g * b ",
"t 3 * Y + + t t i n o 3 g g t g 3 G 3   + t _ K ` . g + C v g L   t s * g ' + t t g g 3 3 3 ] f ",
"t   t + m O 3 s * 3 + r t g * N v g   t *   + * g t i b [ N + t g g * g { g v g v v v v g g b } ",
"i   t * g   t 3 g i 3   t t t L |  .. b g a | E t g g n t + 3 g g * v * g v n g g g * * * L ....",
"g g t 3 * t g t t s t 3 G t * t L Y E I b g * r 3 3 g g * b * t K t g g v v i v { g a v N X...} ",
"g u * t * * t * g a * * * * g 3 t 3     x a a * L v * v x L * + v t * v v g g g g g g L } o.o.o.",
"v g t + + * t Y ^ * t * * r 3 . * * t v  .O.g 3 v v b v v g g g v i * g * g N v v n ......} } } ",
"t s g i * * v [ ( [ E +.v . 3 v f g * v b s 3 v b I + v Z * * X * * N g 3 g g N * o...X.X.X.o.o.",
"K * g g t * Z 3 g E x J @.c g v E K * t t L n v v E g v L #.3 g v j s * g v v L o.} X.} $.} o.o.",
". * 2 g g g 5 5 + g I 3 g * #.g t * g g g * v v * g v g g %.&.g v g *.g g E a =.-...} o.o.o.o...",
"a * t * 3 v g g { g g g g 0 t g t g v K s g n v t g g t v v ;.:.v v b v 3 >...o.,.<.$.o.$.o.} 1.",
"* * * g g g v v g g g 3 * 3 3 t g t g g a ) * g g v { 3 v v K b b v g L N } $.X.2.} o.} o.} 1.} ",
"g * * g v v v * N s * v g t g g g v v 3 3 v K g t v * g t b b b * t L o.} } $.o.$.} } o...3.} ..",
"s g g g i t g g g g t * v * g K g L * Q * * * * b g v v b 4.b v g $.$.5.5.o.$.o.o.} o.} ..} o.$.",
"N + g g v v v * g g g v g v * * 3 g * g g 6.* g b g v v v v v A $.$.} } o.o.o.} } } } ..$.$.$...",
"* * g * * v v * v g v g * v * * * v v * g v ' v g i v b * * L $.o.$...$.$...o.} 7.8.X.9.o.o.} ..",
"* v * v * g g * t v * g v v g v g L v b v g v 3 b g b b v A } } } } o.o.0.o.o.9.q.w.e.9.$.} $.$.",
"i 3 ) g v 3 g g g v g t g t g g g * v v v v a 3 g v g E $.} o.o.$.o.$.$.$.$.o.o.$.o.$.2.} $.o.} ",
"b g t a v v * g g * * a t K g v * v g b g g g b g g E $.$.o.o.$.$.$.o.1...o.o.} } } X.o.} o.r.t."
};
