/* XPM */
static char *_47858fe23214b67b745268bcc144df5[] = {
/* columns rows colors chars-per-pixel */
"48 48 145 2 ",
"   c #180D06",
".  c #1D120B",
"X  c #221207",
"o  c #2C1607",
"O  c #23140B",
"+  c #2B170A",
"@  c #2D190C",
"#  c #341B0B",
"$  c #3C1E0B",
"%  c #261911",
"&  c #2C1C11",
"*  c #321E11",
"=  c #3D200D",
"-  c #3B2212",
";  c #3A2619",
":  c #43220C",
">  c #4B260D",
",  c #4E280E",
"<  c #50270D",
"1  c #532A0E",
"2  c #5B2D0F",
"3  c #452612",
"4  c #492711",
"5  c #4D2A12",
"6  c #532C12",
"7  c #5C2E11",
"8  c #532F18",
"9  c #563116",
"0  c #5C3215",
"q  c #5D3418",
"w  c #643211",
"e  c #6E3712",
"r  c #6E3915",
"t  c #633619",
"y  c #66391A",
"u  c #6C3B1B",
"i  c #703712",
"p  c #733A14",
"a  c #793E17",
"s  c #723E1B",
"d  c #7A3F18",
"f  c #75411E",
"g  c #7D411A",
"h  c #7F4A1E",
"j  c #7D4521",
"k  c #83451C",
"l  c #86491E",
"z  c #894A1F",
"x  c #8B501F",
"c  c #804721",
"v  c #844A22",
"b  c #8C4C22",
"n  c #904E23",
"m  c #914F23",
"M  c #875324",
"N  c #8E5222",
"B  c #8E5423",
"V  c #8C5224",
"C  c #905022",
"Z  c #915122",
"A  c #925322",
"S  c #905025",
"D  c #925126",
"F  c #915326",
"G  c #935226",
"H  c #935327",
"J  c #945124",
"K  c #945125",
"L  c #945324",
"P  c #955226",
"I  c #965226",
"U  c #975326",
"Y  c #965327",
"T  c #965627",
"R  c #945225",
"E  c #985326",
"W  c #985427",
"Q  c #995427",
"!  c #995527",
"~  c #9A5527",
"^  c #995527",
"/  c #975925",
"(  c #975827",
")  c #9D5D27",
"_  c #9B5A27",
"`  c #975728",
"'  c #985528",
"]  c #995528",
"[  c #9A5528",
"{  c #9B5528",
"}  c #9B5628",
"|  c #9B5629",
" . c #9C5628",
".. c #9C5729",
"X. c #9D5729",
"o. c #9C5729",
"O. c #9E5829",
"+. c #9F5929",
"@. c #9F592A",
"#. c #9F5A2A",
"$. c #9C5F29",
"%. c #9E5929",
"&. c #A05A2A",
"*. c #A05B2A",
"=. c #A15D29",
"-. c #A15C2A",
";. c #A35D2B",
":. c #A25F2A",
">. c #A35F2A",
",. c #A35E2B",
"<. c #A35F2B",
"1. c #A45E2B",
"2. c #A45F2B",
"3. c #A55F2B",
"4. c #A25D2A",
"5. c #A36229",
"6. c #A5602B",
"7. c #A5622A",
"8. c #A0642B",
"9. c #A6642A",
"0. c #A6612C",
"q. c #A7612C",
"w. c #A6612B",
"e. c #A8632C",
"r. c #AA652D",
"t. c #AB672D",
"y. c #AC672D",
"u. c #AA662D",
"i. c #AD6A2D",
"p. c #AE6A2E",
"a. c #AE6A2E",
"s. c #B06B2E",
"d. c #B06C2E",
"f. c #B06C2F",
"g. c #B16C2F",
"h. c #B16D2F",
"j. c #B26E2F",
"k. c #B36E2F",
"l. c #B16D2F",
"z. c #B36F30",
"x. c #B46F30",
"c. c #B46F30",
"v. c #B47030",
"b. c #B57130",
"n. c #B57130",
/* pixels */
"i e e e : 2 > j S S S [ q Y X.X.X.X.X.X.1.y.6.X.X.# + # @ X w e g [ n g g z a i p g i i l b g p ",
"e e e e > q [ X.j.z.+.X.v w W X.X.X.Y b k a p z g @ b -.e.6 > 2 g k v X.i e a z W W p e e e e w ",
"e e e 7 # Y X.&.j.v.1.X.Y 6 a v v a e e e e w e > O l j.j.i 2 $ # , e l i e d X.[ g e e i e 2 O ",
"e w 6 5 3 [ X.1.z.z.0.X.X.y > w e e e e 1 : 6 o * # i 9.j.k g k g 1 , 1 e e p Y k e e w 6 y M #.",
"$ - B e t [ X.+.-.&.X.[ Y a w : : 1 , # > A -.4 b t p A s.X.X.X.X.p d # , w i k e 2 : @ 8.6.) v.",
"9 f 5.z j v X.X.Y p e i e w : 6 N l h / t.t.j t j j Y Y X.X.X.b g e 4 a A u > $ u b f 5 y.g k -.",
"S u p.j.S 6 k n a e e e 1 : s p.j.0.6.-.+.[ 8 T v t W X.X.X.k i , , v t.v.j.v y k [ [ q [ W W v ",
"n y +.1.n 1 > e e e e e : e g Y +.X.X.X.W t S x.-.: a E X.b i , > i b 0.-.z t s X.X.[ > p v g i ",
"p : a l p w O $ 1 w e e + 1 e i k z k p > f j.v.-.8 e p a e : # y w i p e e : 2 p a i e # w e e ",
"e o e e e w = e w 1 , , : & 1 e e e e > 2 g -.t.+.v > e e $ u X.p.V : 1 w f b 5 e e e 2 3 # 1 # ",
": # : w w , r N k l b L r # t 7 w e > : e i v Y z l w : 1 , 7 5 f f , v t.v.j.M w e 7 u ..b f u ",
"w i $ : 2 l t.v.p.y.t.-.t r p.6.u w q 9 1 e i i e e e , 2 e e e e 2 L v.v.v.6.N 9 3 b -.j.v.j.j.",
"n v $ e b j.s.+.X.X.b 5 e z v.t.X.X.X.X.y # e e e e e 1 @ 1 e e 2 w b -.A a i e 7 v n l v _ t.j.",
"X.f 7 p -.0.X.Y v f $ e < 4 q = 5 q # = : 2 : 1 , : 5 j p.g > 6 u 3 k l i e e e 2 w e e e e i g ",
"Y b 1 e a k d e , 1 g l p 7 & # g l x W a e e r g t v y.p.n g W j # b g p e e e 2 7 e 2 1 1 1 2 ",
"p W 5 w e w $ : r _ e.&.b 4 v = _ v.v.j.Y v Y [ X.Y = [ W X.X.X.n $ S X.d e e e , = : r b c : 1 ",
"e z v # : ; ; u 0.v.p.+.q p X., A j.v.v.&.0.j.j.p.-.y w i Y S k 2 t t.j.[ b k a , p S &.s.-.5 p ",
"e g X.> e e e 6 -.p.+.f 1 p X.0 a X.s.p.p.v.v.v.v.6.j 1 e p e 7 # b j.v.-.X.X.Y q +.p.v.v.-.6 T ",
"e g X.t w k k , y S s # w e Y f 2 k [ X.X.+.6.t.t.+.v + w 7 6 v 0 k +.-.[ Y g 1 7 -.j.j.t.s v 0.",
"i Y X.t 2 Y -.k 1   2 > w e n [ > e p a p i p d l b u & = f #.X.q i p p i i : O w S W z a , l X.",
"e i p $ e ) z.[ p 6 6.V 1 e n W s : e e e e e e e i g @ s v.j.+.t e e e 2 @ - t w a i e , + e a ",
"e 2 # w z j.j.[ y 9.v.t.4 w i e i > 1 e e e e e e e e q X.t.*.n w 2 e 2 - & j j w w 6 t b b , e ",
": 1 g W j.j.5.t F x.j.-.5 - w e e e X $ w e e e e e e t Y n b a e $ $ 5 [ 9 X.T = u +.t.j.e.3 1 ",
"w e g k T +.u b y.j.+.S 8 - o > 1 5 q & + : , : : : # , i e e e e w 6 S 1.5 Y l 9 +.j.v.v.-.3 * ",
"2 e e e e r 9 X.+.b p p 5 2 e w a m +.S # g e e e e w : e e e e w 3 +.z.y.6 p 2 v X.0.0.&.b t t.",
"2 1 w e e w > g k i e 1 7 e p b X.t.t.-.s s v k a a g j 9 w e e $ v j.v.6.y e , l v z l k q [ v.",
"e e 7 > 1 1 # e e 1 : 7 k e p X.t.v.v.p.X.t -.p.1.X.X.X.[ 6 = y v 5 W p.p.F 1 , e e e e w y +.y.",
"S k a e 6 u s > 6 @ - k S e i [ j.v.v.t.X.g p.j.v.W a z [ y v 1.v w k -.v.p.f : e e e e $ a n b ",
"X.X.X.u b s.x.X.X.c $ n Y i e n +.-.s.0.X.s v X.1.l e e a y Y W y p b &.j.v.j./ 6 w e 2 : e e w ",
"Y W v t +.v.t.Y W [ > z b e e l X.X.+.+.X.q e k v i e e w u g p , e a l S -.0.e.[ f 9 v f t : & ",
"i e @ e a z g i n X.j $ e i e e g v d n X.5 o e e e e 1 $ g p e $ w e e e p g z n y ..t.+.X.Y 8 ",
"2 + @ 0 e e e i Y W Y k : w e e e e e w q 1 w : > , - & $ e e , @ $ e e e e e e e y W k g l g w ",
"u = e , 2 e e e i e w : # : $ $ $ : $ , e e e e e 2 . j y $ : 7 5 g : 1 e e e w 1 w p e e 2 9 V ",
"j.q p b y 1 2 1 , # : w e p +.s 1 e e e e e e p e 1 6 X.W l z T y [ g 7 1 1 1 , , > 7 7 u b t.j.",
"v.v w g j.` j u w 5 e e a +.j.q e e i d k k b A i 2 t [ y.p._ +.y [ [ d i g k g w 7 w a k k k k ",
"-.u e 6.v.j.+.X.b 6 e k X.-.v.V , e W 0.t.j.v.p.b s w l +.e.&.X.y v.t.X.[ -.p.6.u 1 , w e e e e ",
"w : i +.y.1.Y l Y 6 i X.t.&.t.&.t w W p.v.v.j.t.+.u e e i g k g M v.t.X.0.v.j.&.9 y n 6 : > $ : ",
"$ : e p d p i e p : p X.0.-.W z S q m b j S [ X.Y 9 w e e e e 6 j.v.-.Y &.p.t.X.5 r b [ Y Y 5 6 ",
"T v 1 e e e e 1 # $ g X.X.A b e l S 5 : , > q g w @ # e w 1 : r -.0.b p W +.[ b : e i l X.b 8 +.",
"v.j.u 2 2 7 p g t # e k b i i e i k 8 v Y a 1 5 u b f > > w 1 e g k i e l z w @ % + 1 w y 5 b 6.",
"s.j.[ . 3 [ X.+.X.c , e e e e e e e 8 -.-.v 1 g -.t.X.n b Y v 2 e i e e e 1 3 9 v k w 1 , : d +.",
"m n a y X.X.0.j.0.X.v 7 e e e e 6 y t.j.+.j q 6 y n X.X.X.1.+.9 w e e e 9 v 6.v.j.j.+.Y Y f 7 a ",
"v k p s X.&.j.v.v.y.+.t 7 e 1 $ t Y p.t.j u l p q 0 l X.+.j.p.+.8 2 1 @ g X.-.p.v.x.6.X.X.T 5 e ",
"b X.X.y z Y &.p.v.y.+.y $ $ - O e i g a > Y e e p y w k X.j.v.t.u & * 7 , a v W &.+.X.X.X.X.S $ ",
"g l b q = e g A W X.n : p d Y q 7 e e e w v i e e k 8 e z 1.p.+.t 3 t k , w i p l Y b g v [ l > ",
"1 e e 5 j , e e i a e 7 W W +.0.q , e e e v g e e a j w i l g p : b -.p.k $ w e e i e e i p > w ",
"b s > u g g @ 2 e e , g [ b +.0.q s t 0 $ p [ v k k s $ , > : : 1 a T t.X.s # w e e e e e 1 : n ",
"p Y s y e u S y > : O Y z i [ b j p.X.X.j 2 a d p e 1 i w e p b q e g X.X.j j 6 > 2 e i 1 6 Y t."
};
