/* XPM */
static char *_8873f07a8a14b6385ea740589b84302[] = {
/* columns rows colors chars-per-pixel */
"48 48 174 2 ",
"   c #160C04",
".  c #1D1806",
"X  c #17170C",
"o  c #1D1E14",
"O  c #310D08",
"+  c #36150D",
"@  c #2E1A10",
"#  c #381A10",
"$  c #1B211C",
"%  c #2E220D",
"&  c #24220E",
"*  c #32230F",
"=  c #252316",
"-  c #332312",
";  c #3B2B17",
":  c #3A2816",
">  c #3A341D",
",  c #1E2420",
"<  c #2F2421",
"1  c #272D29",
"2  c #292F2C",
"3  c #3C2B23",
"4  c #3E3228",
"5  c #323531",
"6  c #343836",
"7  c #3C3A34",
"8  c #353A38",
"9  c #3C3E3C",
"0  c #4D100A",
"q  c #4B1B0F",
"w  c #56120F",
"e  c #4A1110",
"r  c #511211",
"t  c #5D1511",
"y  c #521C10",
"u  c #5F1C11",
"i  c #551A19",
"p  c #5E1F18",
"a  c #651514",
"s  c #6B1514",
"d  c #6A1B16",
"f  c #641C1C",
"g  c #691A1A",
"h  c #621C12",
"j  c #741512",
"k  c #7B1611",
"l  c #731A16",
"z  c #7C1A12",
"x  c #701C19",
"c  c #43220D",
"v  c #4C2F0F",
"b  c #432E0D",
"n  c #4F370E",
"m  c #452913",
"M  c #492A12",
"N  c #462C19",
"B  c #562810",
"V  c #5B2A10",
"C  c #5D251B",
"Z  c #4A311D",
"A  c #553512",
"S  c #583617",
"D  c #5E3911",
"F  c #6F2614",
"G  c #762414",
"H  c #792515",
"J  c #722C15",
"K  c #70211F",
"L  c #5E2C2D",
"P  c #4E3D2A",
"I  c #443A2C",
"U  c #503620",
"Y  c #5E3535",
"T  c #5E3738",
"R  c #5C3C3D",
"E  c #533A3A",
"W  c #642323",
"Q  c #6A2322",
"!  c #692927",
"~  c #612A2B",
"^  c #792C23",
"/  c #613333",
"(  c #643939",
")  c #654011",
"_  c #6D4613",
"`  c #6D4C12",
"'  c #734B15",
"]  c #73401F",
"[  c #7E4E16",
"{  c #735115",
"}  c #7C5D12",
"|  c #4E402A",
" . c #434136",
".. c #494535",
"X. c #574E36",
"o. c #575136",
"O. c #65442A",
"+. c #6F4B2E",
"@. c #6E4E31",
"#. c #7E5435",
"$. c #755434",
"%. c #3F4243",
"&. c #434545",
"*. c #46494A",
"=. c #4A4C4D",
"-. c #534444",
";. c #5C4344",
":. c #554748",
">. c #5B4748",
",. c #524E4F",
"<. c #5A4B4C",
"1. c #4B4F50",
"2. c #574F50",
"3. c #594F50",
"4. c #4E5253",
"5. c #525556",
"6. c #5A5455",
"7. c #535759",
"8. c #585758",
"9. c #55595B",
"0. c #595C5E",
"q. c #604243",
"w. c #5B5F60",
"e. c #5D6062",
"r. c #606465",
"t. c #87170F",
"y. c #8A170F",
"u. c #831711",
"i. c #8A1710",
"p. c #821813",
"a. c #8E1811",
"s. c #901710",
"d. c #931810",
"f. c #9C1912",
"g. c #A41A12",
"h. c #AA1A13",
"j. c #AB1B14",
"k. c #AB1D16",
"l. c #AA1A13",
"z. c #AC1F18",
"x. c #9C2119",
"c. c #AD221A",
"v. c #AF251D",
"b. c #A5211A",
"n. c #AE2B22",
"m. c #B02921",
"M. c #B32F26",
"N. c #B33027",
"B. c #B5342B",
"V. c #B7382F",
"C. c #AC3E33",
"Z. c #B73930",
"A. c #B93C32",
"S. c #834E15",
"D. c #88491D",
"F. c #825515",
"G. c #845D39",
"H. c #BA4035",
"J. c #BB4239",
"K. c #BD473C",
"L. c #BA463C",
"P. c #BE483D",
"I. c #8A5F41",
"U. c #876545",
"Y. c #886748",
"T. c #9C6F46",
"R. c #9F7855",
"E. c #A66644",
"W. c #C04F43",
"Q. c #C35649",
"!. c #C65E51",
"~. c #B9895F",
"^. c #C4956B",
"/. c #D39B69",
/* pixels */
"0.0.0.w.0.w.e.w.0.e.e.e.0.0.0.0.e.0.9.0.0.0.0.0.e.0.e.e.0.0.w.0.0.0.e.e.0.0.0.0.0.0.0.w.0.0.w.w.",
"w.e.w.0.0.0.0.w.0.e.e.0.0.0.0.e.w.e.0.0.0.0.e.w.0.0.0.0.6.;.w.0.0.0.e.e.w.0.0.0.0.0.e.0.0.0.0.0.",
"0.0.w.0.0.w.0.0.w.w.0.0.0.0.0.e.0.0.w.0.0.0.w.0.0.0.w.<.~ f 8.0.0.0.0.9.9.9.9.9.0.e.w.9.0.0.0.0.",
"e.0.w.0.0.0.0.0.0.0.w.0.0.0.w.w.0.0.w.w.0.0.0.0.0.0.6.( d f =.0.e.0.0.0.w.w.9.0.w.0.9.w.e.0.0.0.",
"0.r.r.0.e.0.0.0.0.r.e.0.0.0.0.0.0.0.0.0.8.8.6.8.6.6./ x j f 8.4.9.0.w.0.w.0.9.w.0.0.0.0.0.0.9.9.",
"0.0.0.0.0.w.0.0.0.w.w.0.0.9.0.0.0.0.0.0.<.f a a a a k t.k f 8.0.0.9.9.0.e.e.w.0.9.9.0.0.0.0.0.9.",
"w.9.r.e.0.0.0.0.0.9.w.0.0.>.~ W Q Q / ;.Q p.i.i.i.i.f.g.d.p.W ! <.8.w.0.0.9.0.0.0.0.0.0.9.w.0.9.",
"9.0.0.0.e.e.0.0.0.0.w.0.8.~ g j i.k K ! p.f.f.f.f.f.g.h.g.f.k l / <.0.0.9.9.9.0.9.9.9.0.0.0.9.0.",
"0.0.0.w.e.0.0.9.0.0.0.0.6.s k i.g.s.k k f.h.h.h.h.h.h.h.h.j.x.a.z Q ~ >.9.9.9.9.0.9.9.0.0.9.9.9.",
"0.0.0.0.0.0.9.0.9.0.9.6./ k i.d.g.s.k p.g.h.h.h.h.h.h.h.h.c.L.C.x.p.j ! ;.0.9.0.9.9.9.0.0.9.9.4.",
"0.9.9.0.0.9.9.0.0.0.<./ s y.d.g.h.s.k p.g.h.h.h.h.h.j.c.N.A.!.!.N.f.y.j W <.8.9.9.e.0.0.9.9.9.%.",
"4.0.0.w.0.9.7.9.9.0.Y g j f.n.z.h.s.k k f.j.v.m.m.M.Z.J.Q.!.P.K.V.c.s.k s T 8.9.0.0.0.9.0.0.9.7.",
"9.9.0.0.0.e.7.4.9.6.~ z s.m.P.B.z.s.k j a.b.N.V.Z.K.W.Q.W.J.V.B.c.h.f.y.k ~ >.8.0.0.9.9.9.9.9.9.",
"0.9.9.9.9.0.9.7.9.;.l a.g.v.A.K.m.s.k j i.f.k.c.c.c.v.B.H.Z.c.z.j.h.g.d.u.f ~ <.9.0.0.9.0.9.9.9.",
"0.0.0.0.9.9.0.0.0.;.k s.h.j.c.v.k.s.t.i.a.g.h.h.h.h.h.k.c.c.h.h.h.h.j.g.a.a W >.9.0.9.9.0.e.0.0.",
"0.0.0.9.0.0.0.0.9.q.k s.h.h.h.h.h.g.f.f.g.h.h.h.h.h.h.h.h.h.h.h.h.h.j.j.f.j f W 9.0.9.9.e.0.0.9.",
"9.w.e.9.0.9.0.0.0.;.k s.h.h.h.h.h.h.h.h.h.h.h.h.h.h.h.h.h.h.h.h.h.h.h.h.f.i.k s 7.9.9.9.9.9.9.9.",
"0.0.9.9.0.0.9.9.9.R k s.h.h.h.h.h.h.h.h.h.h.h.h.h.h.h.h.h.h.h.h.h.h.h.h.f.k j s L 6.0.9.9.9.9.9.",
"9.0.9.8.0.0.9.8.<./ k s.h.h.h.h.h.h.h.h.h.h.h.h.h.h.h.h.h.h.h.h.h.h.h.h.g.k s a a >.9.0.0.9.7.9.",
"0.0.8.<.8.w.0.Y W s u.s.h.h.h.h.h.h.h.h.h.h.h.h.h.h.h.h.h.h.h.h.h.h.h.h.h.i.g L a >.9.0.0.9.7.0.",
"0.0.6.>.0.0.9.W s k t.s.h.h.h.h.h.h.h.h.h.h.h.h.h.h.h.h.h.h.h.h.h.h.h.h.g.u.W >.~ 3.9.9.0.0.9.e.",
"4.0.8.<.8.9.6.g k t.t.s.h.h.h.h.h.h.h.h.h.h.h.h.h.h.h.h.h.h.h.h.h.h.h.h.f.j W >.9.9.9.9.9.9.0.9.",
"9.7.9.0.9.5.a a a a k s.h.h.h.h.h.h.h.h.h.h.h.h.h.h.h.h.h.h.h.h.h.h.h.h.f.j W <.0.9.9.9.9.9.0.0.",
"w.4.4.9.9.7.:.:.>.T g k s.g.h.h.h.h.h.h.h.h.h.h.h.h.h.h.h.h.h.h.h.h.h.f.i.g L <.9.9.9.6.7.9.9.9.",
"9.0.9.9.9.0.7.=.*.2.~ l y.f.g.h.h.h.h.h.h.h.h.h.h.h.h.h.h.h.h.h.h.h.h.d.k ~ ;.8.9.9.9.6.7.9.9.9.",
"9.9.9.9.9.0.9.0.9.9.Y x y.s.g.f.g.h.h.h.h.h.h.h.h.h.h.h.h.h.g.f.g.h.h.d.k Y 6.e.9.9.9.9.7.0.9.9.",
"9.9.9.9.9.9.w.9.9.9.Y x y.s.g.s.g.h.h.g.f.h.h.h.h.h.h.h.h.h.g.s.g.h.h.d.k Y ,.9.9.7.7.7.4.9.9.9.",
"9.9.9.9.9.9.0.0.9.9.Y d k s.g.s.g.h.h.f.s.h.h.h.h.h.h.h.h.h.g.s.g.h.g.s.k Y 8.9.9.9.9.9.9.0.9.0.",
"9.9.9.9.9.9.9.9.9.0.;.~ s i.d.s.g.h.h.f.s.h.h.h.h.h.g.g.h.h.g.s.g.h.d.k j ~ ;.6.9.9.9.9.9.7.0.9.",
"9.0.9.9.9.9.9.9.9.9.9.-.r u.t.i.g.h.h.f.s.h.h.h.g.g.d.f.h.h.f.s.f.g.s.j f W Y <.9.9.9.9.9.9.9.7.",
"9.9.9.7.0.0.9.9.9.9.w.9   H z i.f.h.g.d.s.g.g.h.d.f.d.f.h.g.i.u.u.y.y.j ~ 6.6.9.9.9.9.9.9.9.4.4.",
"9.0.9.0.0.e.9.0.9.9.7.9 . D.G u.i.g.f.y.s.g.d.h.s.f.d.d.h.g.u.j s k t.j L 7.7.9.7.7.7.7.9.9.7.9.",
"9.0.9.9.9.0.9.9.9.9.8 > { ] d s u.a.a.y.s.f.s.h.s.f.s.i.f.g.u.d C d u.0 < 7.9.9.9.9.9.9.9.9.9.9.",
"9.9.9.9.9.9.9.9.9.0.1 | /.R.#.# w u.y.y.s.f.s.h.s.f.s.y.y.a.t + O.I.^ O $ 7.9.7.9.9.9.7.9.9.9.9.",
"9.0.9.9.9.9.9.9.9.9.2 P /.^.T.- e u.u.j k s.i.g.a.s.k j k i.r @ G.~.E.N , 7.9.9.9.9.9.9.9.7.7.7.",
"7.9.9.0.0.9.9.7.4.9.9 I #.Y.$.4 i u.k a s t.y.f.y.t.j a j i.i 3 @.U.G.P 6 7.9.7.7.9.9.9.9.9.9.9.",
"9.0.9.9.9.9.7.1.4.=.7.&.5 6 8 =.E g a y u k i.y.t.k h y t l R 6.8 5 5 &.9.9.9.9.9.7.9.9.9.9.7.7.",
"9.9.9.9.9.9.9.9.9.7.7.5.*.=.4.7.=.C y c B G z k z H V c q p ,.7.4.9.7.7.9.7.7.9.7.9.9.9.7.9.7.7.",
"0.9.0.9.9.9.0.0.0.9.7.9.9.9.7.7.1.Z M m D S.J a J S.) M m M *.7.7.9.9.9.9.7.9.9.9.9.9.7.7.7.7.9.",
"9.9.9.9.9.7.9.9.9.9.9.9.9.0.9.7.=.; O.I.S _ F.J [ ' A +.@.: *.4.7.7.7.7.9.9.9.7.w.9.7.7.7.7.9.9.",
"9.9.9.9.9.9.7.7.9.9.9.9.9.9.9.7.=.o ; O.N v _ F.' A m U ; X =.7.7.7.9.9.9.9.7.9.w.9.7.7.7.9.9.9.",
"9.9.9.9.7.7.7.9.9.0.9.7.9.9.9.7.=.= % ; - b ` } { n * - % & =.7.9.9.9.7.9.9.7.7.7.9.9.7.9.w.9.9.",
"0.9.9.9.9.9.9.9.7.9.9.9.7.9.9.9.1.9 7 7 8  .X.o.X...7 7 7  .=.7.9.7.7.9.9.7.7.7.7.9.7.9.9.9.7.7.",
"9.0.9.9.7.7.7.9.9.9.9.7.9.7.9.9.7.=.*.*.*.*.=.*.*.*.*.*.*.=.7.7.7.7.9.9.7.7.7.9.9.9.9.9.7.7.7.9.",
"9.9.9.9.9.7.7.9.7.9.7.9.9.7.9.9.9.1.*.*.*.*.*.*.*.=.*.*.=.4.9.7.7.7.9.7.7.9.7.9.4.4.9.9.7.7.9.9.",
"9.7.9.7.9.9.9.9.9.7.9.9.7.7.9.7.9.7.1.*.*.*.*.=.*.*.*.*.4.7.9.9.9.9.7.7.w.7.7.9.9.4.4.9.7.9.7.7.",
"9.9.9.9.7.9.9.9.9.7.9.9.9.9.9.9.9.9.7.4.=.*.=.=.*.*.=.4.7.9.7.7.7.7.7.7.7.7.7.7.7.7.7.w.9.7.7.9.",
"7.9.9.9.7.7.9.9.9.9.9.9.9.9.9.7.9.7.9.7.7.4.4.1.4.7.7.7.7.7.7.7.7.7.7.9.9.7.7.9.9.9.9.7.9.7.9.w."
};
