/* XPM */
static char *_c5c0a1bb5f34a62b046a82668a00b9b[] = {
/* columns rows colors chars-per-pixel */
"48 48 218 2 ",
"   c #0A0504",
".  c #1A0E06",
"X  c #140E09",
"o  c #160C06",
"O  c #1D1710",
"+  c #2D1A0A",
"@  c #23150B",
"#  c #321C0C",
"$  c #3A1B0C",
"%  c #2B110D",
"&  c #3E230E",
"*  c #35250E",
"=  c #2B2318",
"-  c #332414",
";  c #392A1A",
":  c #1E1F20",
">  c #272829",
",  c #382D24",
"<  c #34322B",
"1  c #3C3528",
"2  c #2E3031",
"3  c #393836",
"4  c #3B3D3E",
"5  c #393736",
"6  c #273A20",
"7  c #4C150D",
"8  c #5B130C",
"9  c #471B16",
"0  c #561C13",
"q  c #5B1A13",
"w  c #5B1210",
"e  c #67130C",
"r  c #74150E",
"t  c #7B160E",
"y  c #651616",
"u  c #6C1615",
"i  c #6D1917",
"p  c #651C1C",
"a  c #6C1D1B",
"s  c #641A13",
"d  c #741612",
"f  c #7B1612",
"g  c #741915",
"h  c #7C1914",
"j  c #721D1A",
"k  c #46270F",
"l  c #492B11",
"z  c #462617",
"x  c #532A19",
"c  c #4B3318",
"v  c #553418",
"b  c #79231A",
"n  c #653719",
"m  c #582723",
"M  c #483625",
"N  c #433A35",
"B  c #413E3A",
"V  c #5D3535",
"C  c #563B3B",
"Z  c #5D3C3D",
"A  c #5F3738",
"S  c #563127",
"D  c #642626",
"F  c #642A29",
"G  c #6A2B29",
"H  c #672725",
"J  c #673929",
"K  c #623535",
"L  c #613738",
"P  c #61393A",
"I  c #633837",
"U  c #7B3629",
"Y  c #5A4013",
"T  c #694419",
"R  c #774D1A",
"E  c #754A1C",
"W  c #7B5B1C",
"Q  c #49452D",
"!  c #5A4426",
"~  c #48423E",
"^  c #584736",
"/  c #68462A",
"(  c #714A2A",
")  c #7D5529",
"_  c #694332",
"`  c #774738",
"'  c #665539",
"]  c #73523C",
"[  c #795439",
"{  c #3C3E40",
"}  c #5B3F40",
"|  c #3E4142",
" . c #424546",
".. c #444748",
"X. c #46494A",
"o. c #4A4C4D",
"O. c #4C4644",
"+. c #5D4444",
"@. c #5A4B4C",
"#. c #5B4B47",
"$. c #4B4F50",
"%. c #574F50",
"&. c #4E5253",
"*. c #525556",
"=. c #5A5455",
"-. c #535759",
";. c #5A5758",
":. c #55595B",
">. c #595C5E",
",. c #785B43",
"<. c #604C4C",
"1. c #776657",
"2. c #5B5F60",
"3. c #5D6162",
"4. c #606465",
"5. c #786F69",
"6. c #85170F",
"7. c #89170F",
"8. c #841711",
"9. c #8C1710",
"0. c #831A14",
"q. c #8C1911",
"w. c #831E19",
"e. c #931911",
"r. c #9B1A12",
"t. c #991F19",
"y. c #A31A12",
"u. c #AA1A13",
"i. c #AC1F18",
"p. c #8E2619",
"a. c #9C221A",
"s. c #9A281C",
"d. c #AC231B",
"f. c #A1241B",
"g. c #A7311F",
"h. c #812A22",
"j. c #9C2A23",
"k. c #8F3C31",
"l. c #AC2C23",
"z. c #A52C24",
"x. c #B02C23",
"c. c #AD3128",
"v. c #AF382E",
"b. c #B33229",
"n. c #B3382F",
"m. c #B43B31",
"M. c #B83C32",
"N. c #885E1C",
"B. c #A25418",
"V. c #8F5E2A",
"C. c #8C4A3B",
"Z. c #855B3A",
"A. c #80432A",
"S. c #BB4439",
"D. c #BD4A3E",
"F. c #B54137",
"G. c #B65530",
"H. c #95653E",
"J. c #8A6129",
"K. c #A9633D",
"L. c #AA7A3B",
"P. c #965A45",
"I. c #BF4D41",
"U. c #8B6549",
"Y. c #98684A",
"T. c #977356",
"R. c #9F714A",
"E. c #A4654C",
"W. c #A56546",
"Q. c #A96B56",
"!. c #A77358",
"~. c #B0734C",
"^. c #B67D63",
"/. c #C15145",
"(. c #C47556",
"). c #4A813D",
"_. c #628A49",
"`. c #AE804D",
"'. c #9D8468",
"]. c #AA8863",
"[. c #B48A68",
"{. c #BF9165",
"}. c #89AD6C",
"|. c #B4A973",
" X c #C88B53",
".X c #C08A62",
"XX c #D28664",
"oX c #D58D6B",
"OX c #D79E6A",
"+X c #CB9E74",
"@X c #D69C75",
"#X c #C0926C",
"$X c #CBA179",
"%X c #D9A878",
"&X c #E1AC7F",
"*X c #858586",
"=X c #BF9D83",
"-X c #9CA09B",
";X c #B2B1A2",
":X c #D7A883",
">X c #C9A98D",
",X c #E8B689",
"<X c #E4BB94",
"1X c #E0A580",
"2X c #DBBEA7",
"3X c #E5BFA1",
"4X c #D8CD9A",
"5X c #CEC590",
"6X c #ECC398",
"7X c #F1C294",
"8X c #F3C79B",
"9X c #CFC3AA",
"0X c #F3CCA3",
"qX c #EDD4A9",
"wX c #FCD5A9",
"eX c #FED9AD",
"rX c #F7D2A8",
"tX c #E5C6A9",
/* pixels */
">.>.>.2.>.2.3.2.>.3.3.3.>.>.>.>.3.>.:.>.>.>.>.>.=.D L 3.>.>.2.>.>.>.3.3.>.>.>.>.>.>.>.2.>.>.2.2.",
"2.3.2.>.>.>.>.2.>.3.3.>.>.>.>.3.2.3.>.>.>.>.>.@.a y K >.2.>.3.>.>.>.3.3.2.>.>.>.>.>.3.>.>.>.>.>.",
">.>.2.>.>.2.>.>.2.2.>.>.>.>.>.3.>.>.>.;.;.;.#.F h u K ;.;.;.;.;.>.>.:.:.:.:.:.:.>.3.2.:.>.>.>.>.",
"3.>.2.>.>.>.>.>.>.>.2.>.>.>.2.2.>.>.=.+.K K F i 6.d D K K K V #.>.;.>.>.2.2.:.>.2.>.:.2.3.>.>.>.",
">.4.4.>.3.>.>.>.>.4.3.>.>.;.;.;.;.=.P H g d d f 7.f d d d d i D Z #.;.>.2.>.:.2.>.>.>.>.>.>.:.:.",
">.>.>.>.>.2.>.>.>.2.2.>.;.#.+.Z } K b 0.q.e.e.e.e.e.e.e.e.9.f g a D Z ;.2.3.2.>.:.:.>.>.>.>.>.:.",
"2.:.4.3.>.>.>.>.>.:.>.;.+.G a a a a h 9.r.y.y.y.y.y.y.y.y.y.e.9.8.i D +.;.:.>.>.>.>.>.>.:.2.>.:.",
":.>.>.>.3.3.>.>.>.>.;.+.G h 8.8.f d f 8.e.r.y.y.u.u.u.u.u.u.y.y.e.8.i F } =.:.>.:.:.:.>.>.>.:.>.",
">.>.>.2.3.>.>.:.>.;.#.G w.a.f.t.q.8.f d f 8.q.e.y.y.y.y.y.u.u.u.y.t.0.i D +.;.:.>.:.:.>.>.:.:.:.",
">.>.>.>.>.>.:.>.;.#.G 0.s.n.F.c.f.e.8.f f f f f e.e.e.e.r.y.u.d.l.c.j.w.a A %.;.:.:.:.>.>.:.:.&.",
">.:.:.>.>.:.:.>.;.P g t.c.D./.D.m.l.a.r.e.8.f f f f f f 8.r.d.b.M.I.F.p.g D A A :.3.>.>.:.:.:.| ",
"&.>.>.2.>.:.-.:.=.L h d.b.S.I.I./.D.F.n.x.z.j.s.h d d d f 0.s.z.n.S.m.p.d p p p >.>.>.:.>.>.:.-.",
":.:.>.>.>.3.-.&.=.L f y.d.b.m.M.S.D.I.D.M.b.b.l.e.q.q.q.8.f h w.t.f.a.q.d y y y >.>.:.:.:.:.:.:.",
">.:.:.:.:.>.:.-.=.L d e.y.d.d.d.x.b.b.b.x.d.d.d.y.y.y.r.r.8.d d f q.q.7.8.d y y :.>.>.:.>.:.:.:.",
">.>.>.>.:.:.>.>.;.P d e.y.u.u.u.u.i.i.i.u.u.u.u.u.u.r.e.9.8.d y d 8.7.7.8.d y y :.>.:.:.>.3.>.>.",
">.>.>.:.>.>.>.>.;.P d e.y.u.u.u.u.u.u.u.u.u.u.u.u.r.8.d d h.E.^.P.b f 8.h G Z Z :.>.:.:.3.>.>.:.",
":.2.3.:.>.:.>.>.;.P d e.y.u.u.u.u.u.u.u.u.u.y.r.r.8.k.Q.Q.^.:X0X:XQ.C.p q A =.=.:.:.:.:.:.:.:.:.",
">.>.:.:.>.>.:.:.;.A d e.y.u.u.u.u.u.u.y.y.y.r.7.8.h.!.<X<X<X0XeXwX8X[.M 9 C =.2.:.>.>.:.:.:.:.:.",
":.:.:.3.>.>.:.:.;.K d e.y.u.u.u.u.u.y.e.6.6.6.8.u .X^.` ` Y.:XwXwX8X[.N 4 -.:.>.:.:.:.>.>.:.-.:.",
">.:.>.>.>.2.;.=.F j 8.7.e.y.u.u.u.y.e.t 7 7 y d r.XX=X5.O.;X3X,X,X%XR.M | -.:.:.:.:.:.>.>.:.-.>.",
">.:.:.:.2.>.A A p y g f q.y.u.u.u.y.6.q n x 0 8.r.XX>X*X< 5.>X,X&X[.' B o.-.:.:.>.:.:.:.>.>.:.3.",
"&.:.:.2.:.:.V V K K D d q.y.u.u.u.y.r 9 Z.U.U t.e.XX2X-X6 Q ].,X%XT.3 X.>.2.2.:.:.:.:.:.:.:.>.:.",
":.-.:.>.:.-.>.>.:.-.+.i 8.r.y.u.u.y.t 0 [ #X(.s.y.XXtX;X)._.|.<X,XT.N  .:.:.:.>.>.:.:.:.:.:.>.>.",
"2.&.&.:.:.:.*.-.:.:.+.i 8.e.r.u.u.y.7.r 0 T.(.f.r.oXtX9X}.}.5XwX8X'.N  .:.:.-.:.:.:.:.:.:.:.:.:.",
":.>.:.:.:.>.-.o.X.-.#.a h 9.r.y.u.r.7.6.y E.(.s.r.@XrXqX4X4XqXwX6X'.N ..:.:.-.:.:.:.:.:.-.:.:.:.",
":.:.:.:.:.>.:.>.:.:.=.I j 8.e.r.r.e.8.h U W.~.g.s.:XeXeXeXeXwX8X$XU.1 X.2.:.-.3.:.:.:.:.-.>.:.:.",
":.:.:.:.:.:.2.:.:.:.:.@.D d 8.e.r.7.f j C.E.K.G.B.%XwXwXwXrX6X%XR.^ ~ &.>.:.&.:.:.-.-.-.&.:.:.:.",
":.:.:.:.:.:.>.>.:.:.:.@.V a f e.e.t 8 0 _ P.W.K.B.OX7X8X7X:X].U.] ~ &.:.:.:.:.:.:.:.:.:.:.>.:.>.",
":.:.:.:.:.:.:.:.:.>.:.=.#.H f 8.t s n _ ] ] ` A.p.XX%X[.!.W.] ^ #.*.-.:.:.:.:.:.:.:.:.:.:.-.>.:.",
":.>.:.:.:.:.:.:.:.:.:.:.@.F f 6.8 x H..X+XT.! x b @X:XU.m D C *.=.:.>.:.:.:.:.:.:.:.:.:.:.:.:.-.",
":.:.:.-.>.>.:.:.:.:.2.:.@.F f 6.8 x Y.OX7X$X,.# n +X<X[.J z N &.>.:.>.:.:.:.>.:.:.:.:.:.:.:.&.&.",
":.>.:.>.>.3.:.>.:.:.>.>.@.F f 6.r q J ~.,X$X[ @ n L.%X,XK.T 1 4 -.:.:.:.:.:.-.:.-.-.-.-.:.:.-.:.",
":.>.:.:.:.>.:.:.:.:.:.>.@.F f 8.8.e x H..X~.) & & R L. X XN.; 2 -.:.-.:.:.-.:.:.:.:.:.:.:.:.:.:.",
":.:.:.:.:.:.:.:.:.>.:.:.@.F f 8.7.r 0 J [ ) R T o & T V.V.R c 5 :.:.:.:.-.-.:.-.:.:.:.-.:.:.:.:.",
":.>.:.:.:.:.:.:.:.:.:.=.+.D d 8.9.8.e $ # l n R * - k l & l M O.-.:.:.-.-.:.:.:.:.:.:.:.:.-.-.-.",
"-.:.:.>.>.:.:.-.&.:.:.@.F p i d 8.8.e %   + l v J.Z.M X + O 5 -.-.:.:.:.:.:.:.-.-.:.:.:.:.:.:.:.",
":.>.:.:.:.:.-.$.&.$.-.o.%.=.@.K g f w .       @ {.@X,., T., 5 >.:.:.:.:.:.:.:.:.:.-.:.:.:.:.-.-.",
":.:.:.:.:.:.:.:.:.-.&.-.&.&.=.A p p m + . . . @ ^ ^ ; - ( ! ^ :.-.3.>.:.:.-.-.:.-.:.:.:.-.:.-.-.",
">.:.>.:.:.:.>.>.>.:.-.:.-.:.%.V m S N ; # + + # o . @ # v W ' -.-.:.:.:.:.-.:.:.:.:.:.-.-.-.-.:.",
":.:.:.:.:.-.:.:.:.:.-.:.:.>.=.} C O.B ; & & & k & k k k T N.' &.-.-.-.-.:.:.:.-.2.:.-.-.-.-.:.:.",
":.:.:.:.:.:.-.-.:.:.:.:.:.:.:.=.X.X.4 ; v v v / c / v & n W ^ o.-.-.:.:.:.:.-.:.2.:.-.:.-.:.:.:.",
":.:.:.:.-.-.-.:.:.>.:.-.:.:.:.-.o. .5 ; ( Z.Z.T.] T.] @ + Y M 4 :.:.:.-.:.:.-.-.-.:.:.-.:.2.:.:.",
">.:.:.:.:.:.:.:.:.:.:.:.-.:.:.:.$.{ > = n ( / ^ #.1.^ X X - < X.-.-.-.:.:.-.-.-.-.:.-.:.:.:.-.-.",
":.>.:.:.-.-.-.:.:.:.-.-.:.-.:.:.-.| > = c c - O > | 5 > > 2  .-.-.-.:.:.-.-.-.:.:.:.:.:.-.-.-.:.",
":.:.:.:.:.-.-.:.-.:.-.:.:.-.:.:.:.o.4 < ! M ; = : 4 .. .X.$.-.-.-.-.:.-.-.:.-.:.-.&.:.:.-.-.:.:.",
":.-.:.-.:.:.:.:.:.-.:.:.-.-.:.-.:.-...5 Q Q 1 < > { X.X.&.-.:.:.:.:.-.-.>.-.-.:.:.&.&.:.-.:.-.-.",
":.:.:.:.-.:.:.:.:.-.:.:.:.:.:.:.:.:.-.&.o.X.o.o.X.X.o.&.-.:.-.-.-.-.-.-.-.-.-.-.-.-.-.2.:.-.-.:.",
"-.:.:.:.-.-.:.:.:.:.:.:.:.:.:.-.:.-.:.-.-.&.&.$.&.-.-.-.-.-.-.-.-.-.-.:.:.-.-.:.:.:.:.-.:.-.:.2."
};
