/* XPM */
static char *_24494f8d4cf4145aba53dd592eb6412[] = {
/* columns rows colors chars-per-pixel */
"48 48 229 2 ",
"   c #1E0C06",
".  c #3E0D09",
"X  c #2B160A",
"o  c #371F0E",
"O  c #251915",
"+  c #2D0F0F",
"@  c #3A200D",
"#  c #392618",
"$  c #372D23",
"%  c #3C3326",
"&  c #3D3B3A",
"*  c #373433",
"=  c #2A2828",
"-  c #52130D",
";  c #5B1A15",
":  c #450E0F",
">  c #6A130C",
",  c #7D160E",
"<  c #76160F",
"1  c #6B1513",
"2  c #6E1A17",
"3  c #651B1A",
"4  c #6B1D1C",
"5  c #621812",
"6  c #751713",
"7  c #7B1712",
"8  c #741915",
"9  c #7B1A15",
"0  c #711D1A",
"q  c #7C1C18",
"w  c #492C17",
"e  c #5A2214",
"r  c #59371B",
"t  c #4C331D",
"y  c #68211C",
"u  c #67211F",
"i  c #79221D",
"p  c #783B1C",
"a  c #663E1E",
"s  c #4E2D2C",
"d  c #562825",
"f  c #483529",
"g  c #583424",
"h  c #4B3E33",
"j  c #5E3535",
"k  c #5E3B3C",
"l  c #543A34",
"z  c #642424",
"x  c #6B2422",
"c  c #6D2926",
"v  c #632B2C",
"b  c #6A2B2A",
"n  c #782922",
"m  c #653528",
"M  c #753428",
"N  c #623434",
"B  c #613B3C",
"V  c #6B461E",
"C  c #7B491C",
"Z  c #5F4428",
"A  c #4B4235",
"S  c #45423C",
"D  c #4B433C",
"F  c #4C483A",
"G  c #5C4635",
"H  c #574838",
"J  c #4D563B",
"K  c #6D4326",
"L  c #744928",
"P  c #654B36",
"I  c #6A4E39",
"U  c #634A3B",
"Y  c #784E3B",
"T  c #64533D",
"R  c #6D5139",
"E  c #6A593D",
"W  c #7C5E3B",
"Q  c #76543A",
"!  c #79603C",
"~  c #5F3F40",
"^  c #3F4243",
"/  c #434544",
"(  c #474947",
")  c #46494A",
"_  c #4A4C4D",
"`  c #474845",
"'  c #5C4344",
"]  c #544D4D",
"[  c #5B4B4C",
"{  c #584A43",
"}  c #5A554B",
"|  c #4B4F50",
" . c #5A4F51",
".. c #4E5253",
"X. c #525556",
"o. c #5B5354",
"O. c #535759",
"+. c #5B5758",
"@. c #55595B",
"#. c #595C5E",
"$. c #575F55",
"%. c #624444",
"&. c #604F41",
"*. c #635A4B",
"=. c #695644",
"-. c #725540",
";. c #735942",
":. c #715C4A",
">. c #7B5A44",
",. c #705E5B",
"<. c #695651",
"1. c #7A6349",
"2. c #776452",
"3. c #6C6E44",
"4. c #5B5F60",
"5. c #5D6062",
"6. c #606465",
"7. c #6C6F69",
"8. c #88170F",
"9. c #80160F",
"0. c #831711",
"q. c #8A1710",
"w. c #831A14",
"e. c #8D1811",
"r. c #831F1A",
"t. c #931912",
"y. c #9C1912",
"u. c #A41A13",
"i. c #AA1B13",
"p. c #AC1F18",
"a. c #88251D",
"s. c #98241C",
"d. c #AD211A",
"f. c #AE231B",
"g. c #A2281E",
"h. c #AB2F1F",
"j. c #833A31",
"k. c #8E362B",
"l. c #AA2C23",
"z. c #B12C23",
"x. c #A6352C",
"c. c #B3342A",
"v. c #B5382F",
"b. c #B43027",
"n. c #AF3930",
"m. c #B93C32",
"M. c #855726",
"N. c #8E4737",
"B. c #96493A",
"V. c #87553E",
"C. c #9D512D",
"Z. c #BC463B",
"A. c #B54E3A",
"S. c #BC493D",
"D. c #B94338",
"F. c #AD5F3D",
"G. c #B1503C",
"H. c #87663B",
"J. c #99662E",
"K. c #A6733A",
"L. c #B36634",
"P. c #875F40",
"I. c #975142",
"U. c #9D5E44",
"Y. c #885F50",
"T. c #AF5A43",
"R. c #876947",
"E. c #966746",
"W. c #9A7248",
"Q. c #826A52",
"!. c #896E51",
"~. c #99765B",
"^. c #8E6F5E",
"/. c #A76953",
"(. c #BE6C50",
"). c #A67E59",
"_. c #B27755",
"`. c #AB6B43",
"'. c #9B7A63",
"]. c #8A7E66",
"[. c #A27762",
"{. c #B27660",
"}. c #C15245",
"|. c #C5574B",
" X c #C36A4B",
".X c #C77154",
"XX c #53864B",
"oX c #7C9256",
"OX c #A7805A",
"+X c #B3874D",
"@X c #818E7B",
"#X c #AA896B",
"$X c #BD846B",
"%X c #B58765",
"&X c #BD916B",
"*X c #A88E78",
"=X c #B79979",
"-X c #BD9977",
";X c #AE9377",
":X c #ABB67C",
">X c #8EAE74",
",X c #C68A50",
"<X c #C38B6C",
"1X c #C88760",
"2X c #C8956B",
"3X c #C29E76",
"4X c #D3967D",
"5X c #D0936D",
"6X c #D6A57A",
"7X c #CBB17F",
"8X c #CFA479",
"9X c #8BA685",
"0X c #B2BE97",
"qX c #BCAEA2",
"wX c #D5A683",
"eX c #DAB894",
"rX c #DEB78C",
"tX c #E9B888",
"yX c #F0BE8E",
"uX c #E8BE94",
"iX c #E5AD86",
"pX c #D6CD9A",
"aX c #EBC697",
"sX c #CFC2B4",
"dX c #DECEAC",
"fX c #F8CEA2",
"gX c #FED9AD",
"hX c #F8D3A6",
"jX c #F1D3B0",
/* pixels */
"#.#.#.4.#.4.5.4.#.5.5.5.#.#.#.#.5.#.@.#.[ j k o.5.#.5.5.#.#.4.#.#.#.5.5.#.#.#.#.#.#.#.4.#.#.4.4.",
"4.5.4.#.#.#.#.4.#.5.5.#.#.#.#.5.4.5.#.#.[ v b %.o.#.#.#.4.#.5.#.#.#.5.5.4.#.#.#.#.#.5.#.#.#.#.#.",
"#.#.4.#.#.4.#.#.4.4.#.#.#.#.#.4.o.o.o.o.' x 8 c '  .o.o.#.#.#.#.#.#.@.@.@.@.@.@.#.5.4.@.#.#.#.#.",
"5.#.4.#.#.#.#.#.#.#.4.#.#.#.#.o.j v v v z 2 6 8 z v v B +.#.| #.5.#.#.#.4.4.@.#.4.#.@.4.5.#.#.#.",
"#.6.6.#.5.#.#.#.#.6.5.#.+.[ j v 4 8 q q 9 7 0.0.9 9 q i N [ o...+.#.#.#.4.#.@.4.#.#.#.#.#.#.@.@.",
"#.#.#.#.#.4.#.#.#.4.4.#.[ j 4 2 9 0.t.t.t.t.t.t.t.t.e.0.0 N k ' ' ' o.#.5.5.4.#.@.@.#.#.#.#.#.@.",
"4.@.6.5.#.#.#.#.#.@.#.[ N x 8 0.e.y.u.u.u.u.u.u.u.u.y.t.0.i x c b b %.o.#.@.#.#.#.#.#.#.@.4.#.@.",
"@.#.#.#.5.5.#.#.#.#.o.v 4 8 q.y.u.i.i.i.i.i.i.i.i.i.i.u.y.e.0.0.0.q b ' +.@.@.#.@.@.@.#.#.#.@.#.",
"#.#.#.4.5.#.#.@.#.[ z 3 6 q.u.i.i.i.i.i.i.i.i.i.i.i.i.i.i.u.u.u.y.y.w.b ' @.@.@.#.@.@.#.#.@.@.@.",
"#.#.#.#.#.#.@.#.@.[ 3 9 s.l.z.p.i.i.i.i.i.i.i.i.i.i.i.i.i.i.i.z.D.D.s.r.c j @.#.@.@.@.#.#.@.@...",
"#.@.@.#.#.@.@.#.k N 1 w.x.S.Z.b.z.f.i.i.i.i.i.i.i.i.i.p.f.z.v.S.}.}.b.s.q v #.@.@.5.#.#.@.@.@.^ ",
"..#.#.4.#.@.X.@.3 3 1 w.x.S.S.n.v.z.f.i.p.p.f.f.f.f.z.b.v.D.}.}.S.Z.c.g.w.z @.@.#.#.#.@.#.#.@.X.",
"@.@.#.#.#.5.O...3 3 1 0.t.y.y.t.x.c.z.f.f.f.z.c.m.m.S.}.|.|.S.m.m.c.f.y.w.z @.#.#.#.@.@.@.@.@.@.",
"#.@.@.@.@.#.@.X.3 3 1 1 7 0.0.6 w.t.y.u.u.i.i.p.f.f.f.z.z.z.f.f.p.p.i.t.9 z @.@.@.#.#.@.#.@.@.@.",
"#.#.#.#.@.@.#.#.z 4 6 5 1 6 7 2 i w.e.t.t.u.i.i.i.i.i.p.f.f.i.i.i.i.i.e.8 z @.@.@.#.@.@.#.5.#.#.",
"#.#.#.@.#.#.#.#.j N 1 : ; 2 8 n B.k.a.a.a.y.u.i.i.i.i.i.i.i.i.i.i.i.i.e.8 z @.@.@.#.@.@.5.#.#.@.",
"@.4.5.@.#.@.#.#.+.[ ;   d M n j.$X{.I.I.N.a.t.y.i.i.i.i.i.i.i.i.i.i.i.e.8 z O.@.@.@.@.@.@.@.@.@.",
"#.#.@.@.#.#.@.@.@.[ d O -./.N.j.$XwXwXwX<XB.a.q.t.y.u.i.i.i.i.i.i.i.i.e.8 z @.4.@.#.#.@.@.@.@.@.",
"@.@.@.5.#.#.@.@.#.O.] O >.<X<XI./.[.^.Y.[./.B.7 0.7 7 e.u.i.i.i.i.i.u.e.9 x { #.@.@.@.#.#.@.X.@.",
"#.@.#.#.#.4.#.@.@.@.X.= I %X6X<X$X'.,.<.*X$XG.0.1 ; 5 < e.u.i.i.i.i.t.0.7 2 v ' [ @.@.#.#.@.O.#.",
"#.@.@.@.4.#.@.#.@.#.X.& A !.6XtXwX].$.7.qX5XA.q.y L g ; 9.y.i.i.i.i.e.9 0 x z k ' @.@.@.#.#.@.5.",
"..@.@.4.@.@.@.#.5.4.#.X.& =.6XtX3X3.J @XsX4XA.s.N._.Q w , y.i.i.i.u.q.0 v k ~ ' ' @.@.@.@.@.#.@.",
"@.X.@.#.@.X.#.#.@.@.@.X.& :.wXyX7XoXXX9XsX4XA.g.(.%XQ e , y.i.i.i.y.8.0 j o.+.#.#.@.@.@.@.@.#.#.",
"4.....@.@.@.X.X.@.@.@...& 2.uXfXaX:X>X0XdX4XA.l..XE.M 6 8.y.i.i.u.t.0.0 j O.X.@.@.@.@.@.@.@.@.@.",
"@.#.@.@.@.#.X._ ) @.@...& :.rXfXhXpXpXdXjXwXT.g. XV.n 7 q.y.i.u.y.q.q c ' O.O.@.@.@.@.@.O.@.@.@.",
"@.@.@.@.@.#.@.#.@.@.#.O.& T &XyXfXgXgXgXgXiX Xx.T.U.k.q 0.t.y.y.t.0.0 N o.@.O.5.@.@.@.@.X.#.@.@.",
"@.@.@.@.@.@.4.@.@.@.@.@.) A Q 2XtXfXgXgXgXtX,XL.F._.B.n 0.8.y.t.0.6 x ' #.@...@.@.X.X.O...@.@.@.",
"@.@.@.@.@.@.#.#.@.@.@.@.X._ H Y R.&XtXaXyX5XL.C.`.V.g + . > 8.e.0.4 B [ @.@.@.@.@.@.@.@.@.#.@.#.",
"@.@.@.@.@.@.@.@.@.#.@.@.@.X.] { U V.E.~.<X1XF.p K f # X X . > 9.7 u ' X.@.@.@.@.@.@.@.@.@.O.#.@.",
"@.#.@.@.@.@.@.@.@.@.@.@.@.@.@.X.{ g m >.&X2XU.e @ o @ @ X   - < q z [ +.@.@.@.@.@.@.@.@.@.@.@.X.",
"@.@.@.X.#.#.@.@.@.@.4.@.@.O.@.X.` f m %XuX8XP.o o t g r w O - 6 q z [ +.@.@.#.@.@.@.@.@.@.@.....",
"@.#.@.#.#.5.@.#.@.@.#.4.@.@.O._ % Z K.6XtX+XL w =.#X-X%XW.G b i q z { +.@.@.O.@.O.O.O.O.@.@.X.@.",
"@.#.@.@.@.#.@.@.@.@.@.#.@.@.O.) # V K.,X+XJ.C r h *XeXeX8X).Y c 8 u { +.@.O.@.@.@.@.@.@.@.@.@.@.",
"@.@.@.@.@.@.@.@.@.#.@.@.#.@.X._ % r M.M.M.C p r # ^.;X3X2XOXI d 2 u ' +.O.O.@.O.@.@.@.O.@.@.@.@.",
"@.#.@.@.@.@.@.@.@.@.@.@.@.@.X.X.h w w r V K a r % H :.!.+XR.G d 3 u k ] X.@.@.@.@.@.@.@.@.O.O.O.",
"O.@.@.#.#.@.@.X...@.@.@.@.4.@.#./ $ # Z R R P G A * h W W.W l s d z j { O.@.@.O.O.@.@.@.@.@.@.@.",
"@.#.@.@.@.@.O.| ..| O.| O.#.@.O./ A ;.#X=X=X=X*X2.D G W W.G j k ' [  .+.@.@.@.@.@.O.@.@.@.@.O.O.",
"@.@.@.@.@.@.@.@.@.O.X.X.....@.O.} E ! 2.Q.Q.Q.2.H &.R.E.W A s k ] 5.#.@.@.O.O.@.O.@.@.@.O.@.O.O.",
"#.@.#.@.@.@.#.#.#.@.X.@.@.@.O.X.*.1.H.G G G G G f 2.OX).1.h s l ] @.@.@.@.O.@.@.@.@.@.O.O.O.O.@.",
"@.@.@.@.@.O.@.@.@.@.@.@.@.#.@.X.*.R.H.I G P P G h 2.'.~.1.D s l X.O.X.O.@.@.@.O.4.@.O.O.O.O.@.@.",
"@.@.@.@.@.@.O.O.@.@.@.@.@.@.@.O.} R.H.I P -.;.;.-.h * * * / _ X.X.O.@.@.@.@.O.@.4.@.O.O.O.@.@.@.",
"@.@.@.@.O.O.O.@.@.#.@.O.@.@.@.X.} 1.H.T :.~.#X[.'.{ S ^ ` ` _ X.@.@.@.O.@.@.O.O.O.@.@.O.@.4.@.@.",
"#.@.@.@.@.@.@.@.@.@.@.@.O.@.@.@.} =.=.{ } 2.!.!.!.H D ( ) ) | O.@.O.O.@.@.O.O.O.O.@.O.@.@.@.O.O.",
"@.#.@.@.O.O.X.@.@.@.@.X.@.O.@.@.+.] ] / S F T E T A S ) ) _ X.O.O.O.@.@.O.O.O.@.@.@.@.@.O.O.O.@.",
"@.@.@.@.@.O.X.@.O.@.X.@.@.O.@.@.@...) / & S H T H F ` ( _ ..@.O.O.O.@.O.O.@.O.@.....@.@.O.O.@.@.",
"@.X.@.O.@.@.@.@.@.O.@.@.O.O.@.O.@.X.| ) ) ) ) _ ) ) ) ) ..X.@.@.@.@.O.O.4.O.O.@.@.....@.O.@.O.O.",
"@.@.@.@.O.@.@.@.@.O.@.@.@.@.@.@.@.@.X..._ ) _ _ _ ) _ ..O.@.O.O.O.O.O.O.O.O.O.O.O.O.O.4.@.O.O.@.",
"X.@.@.@.O.O.@.@.@.@.@.@.@.@.@.O.@.O.@.X.X.........X.X.O.O.O.O.O.O.O.O.@.@.O.O.@.@.@.@.O.@.O.@.4."
};
