/* XPM */
static char *_f184507eee6403d8c49adf2948550ea[] = {
/* columns rows colors chars-per-pixel */
"48 48 160 2 ",
"   c #130B06",
".  c #1A0E07",
"X  c #1D140C",
"o  c #151410",
"O  c #1E1710",
"+  c #1D1A13",
"@  c #1D1D1C",
"#  c #25130A",
"$  c #29160D",
"%  c #23190F",
"&  c #2E180D",
"*  c #321A0E",
"=  c #241A11",
"-  c #2B1D13",
";  c #231F1E",
":  c #341D12",
">  c #391F12",
",  c #1E201E",
"<  c #232117",
"1  c #2E2117",
"2  c #24221C",
"3  c #2C251B",
"4  c #2C291E",
"5  c #372215",
"6  c #3C2113",
"7  c #32251A",
"8  c #372A1D",
"9  c #3C2B1E",
"0  c #1F2120",
"q  c #242421",
"w  c #282523",
"e  c #272824",
"r  c #2B2B23",
"t  c #2B2D29",
"y  c #312D22",
"u  c #302F29",
"i  c #2F3027",
"p  c #2F322C",
"a  c #343225",
"s  c #393327",
"d  c #3B3827",
"f  c #33342A",
"g  c #39372B",
"h  c #36392E",
"j  c #3C3B2D",
"k  c #333530",
"l  c #363A32",
"z  c #3D3D32",
"x  c #353738",
"c  c #373939",
"v  c #3B3D3D",
"b  c #432313",
"n  c #4A2614",
"m  c #4E2815",
"M  c #432B1C",
"N  c #4E2E1C",
"B  c #542A16",
"V  c #5A2D17",
"C  c #532D1A",
"Z  c #5E2F18",
"A  c #4D301F",
"S  c #56301C",
"D  c #5F3018",
"F  c #633119",
"G  c #443224",
"H  c #4E3020",
"J  c #433D2E",
"K  c #413F30",
"L  c #3D4035",
"P  c #3F413A",
"I  c #434334",
"U  c #444639",
"Y  c #4A4438",
"T  c #46493B",
"R  c #494C3D",
"E  c #3C3F40",
"W  c #3E4142",
"Q  c #424544",
"!  c #464A43",
"~  c #494E41",
"^  c #444749",
"/  c #464949",
"(  c #4A4E4D",
")  c #4D5244",
"_  c #4D534B",
"`  c #515445",
"'  c #51564A",
"]  c #53594B",
"[  c #5A5D4E",
"{  c #4E5253",
"}  c #515556",
"|  c #565C53",
" . c #595E53",
".. c #535759",
"X. c #565A5B",
"o. c #595D5E",
"O. c #5C6253",
"+. c #5F6659",
"@. c #606656",
"#. c #616759",
"$. c #646B5D",
"%. c #686D5F",
"&. c #5B5F61",
"*. c #5B5F60",
"=. c #5C5F61",
"-. c #5A5E60",
";. c #5C6061",
":. c #5D6061",
">. c #5C6060",
",. c #5C6062",
"<. c #5D6163",
"1. c #5E6263",
"2. c #5E6163",
"3. c #5E6264",
"4. c #5D6162",
"5. c #606365",
"6. c #606465",
"7. c #606466",
"8. c #676D61",
"9. c #676E62",
"0. c #666E60",
"q. c #686E62",
"w. c #687062",
"e. c #6A7163",
"r. c #6A7363",
"t. c #6C7364",
"y. c #6D7566",
"u. c #6E7566",
"i. c #6E7666",
"p. c #6A7263",
"a. c #6F7768",
"s. c #6F7868",
"d. c #707769",
"f. c #707869",
"g. c #71786A",
"h. c #72796B",
"j. c #727A6B",
"k. c #747B6D",
"l. c #737C6C",
"z. c #747D6D",
"x. c #747D6E",
"c. c #757E6F",
"v. c #767E6F",
"b. c #778070",
"n. c #788072",
"m. c #798272",
"M. c #7A8373",
"N. c #788171",
"B. c #7A8374",
"V. c #7B8474",
"C. c #7C8475",
"Z. c #818979",
"A. c #818A7A",
"S. c #868F7F",
"D. c #8A9383",
"F. c #8D9686",
"G. c #8E9787",
"H. c #8F9888",
"J. c #97A090",
"K. c #98A191",
/* pixels */
"o.o.o.*.o.*.;.*.o.;.;.;.o.o.o.o.;.o.X.o.o.X.^ Q / / o.o.o.o.*.o.o.o.;.;.o.o.o.o.o.o.o.*.o.o.=.*.",
"*.;.*.o.o.o.o.*.o.;.;.o.o.o.o.;.*.;.o...{ ( ' | | _ ( { X.o.;.o.o.o.;.;.*.o.o.o.o.o.;.o.o.o.o.o.",
"o.o.*.o.o.*.o.o.*.*.o.o.o.o.o.;.X.} } Q /  .h.M.M.h. ./ Q { } o.o.o.X.X.X.X.X.X.o.;.*.X.o.o.o.o.",
";.o.*.o.o.o.o.o.o.o.*.o.o.o.o.X.{ / P P | B.D.F.F.D.B.| P v v ( X.X.o.o.*.=.X.o.*.o.X.*.;.o.o.o.",
"o.6.5.o.;.o.o.o.o.6.;.o.o.X.} ( _ | T ! $.Z.H.K.K.H.Z.$.! U ~ / ( } X.o.*.o.X.*.o.o.o.o.o.o.X.X.",
"o.o.o.o.o.*.o.o.o.*.*.o.X._ _  .0.c.[ ` #.M.F.K.K.F.M.#.) ` #.#. ._ _ X.;.;.*.o.X.X.o.o.o.o.o.X.",
"*.X.5.;.o.o.o.o.o.X.*.X.( _ +.h.b.Z.[ ) O.u.C.S.S.C.u.O.` ` $.h.h.+._ ( X.X.o.o.o.o.o.o.X.*.o.X.",
"X.o.o.o.;.;.o.o.o.o.X.} _  .u.b.M.Z.] R O.u.h.w.w.a.u.[ ) ~ 0.k.b.u. ._ { X.X.o.X.X.X.o.o.o.X.o.",
"o.o.o.*.;.o.o.X.o.X.{  .+.$.h.M.V.C.` T O.O. .O.[  . .[ T T %.c.M.d.$.+. .{ ..X.o.X.X.o.o.X.X.X.",
"o.o.o.o.o.o.X.o.X._ _ q.d.w.c.M.c.w.I I ` h U ' R U h ` I I O.h.M.c.w.d.0._ ( X.X.X.X.o.o.X.X.{ ",
"o.X.X.o.o.X.X.o.} ^ ' h.c.a.a.w.O.] I a I I ) I z ) I I a j ) O.w.a.a.c.h.' Q { X.3.o.o.X.X.X.W ",
"{ o.o.=.o.X.} } / Q  .c.C.u.O.] ) ! U 4 a z ) U U ' z a 3 I ! ) ] O.u.C.c. .Q / X.o.o.X.o.o.X.} ",
"X.X.o.o.o.;.} ( / _ #.c.c.#.) ! ! ! ! g 4 4 U ) ) U 4 4 a T ) ) ! ) O.l.c.#._ / } X.X.X.X.X.X.X.",
"o.X.X.X.X.o.} / ! | 0.w.+.] ) R R ! ! z 4 < j ) ` h < 4 j R ! ! R ) ] O.t.0.| ! ( X.o.X.o.X.X.X.",
"o.o.o.o.X.X.} / ! #.w.O.) ! ) ! T U I y - = s ] ` a = - y L I U ! ) ) ) O.w.#.! Q } X.X.o.;.o.o.",
"o.o.o.X.o.o.^ P ! $.O.) R R ) ) U g 3 - : : 1 h h 1 : : - 3 g U ) ) ! R ) @.$.~ v ^ X.X.;.o.o.X.",
"X.*.3.X.o.X.t f ) O.] R I U T T g 3 : 6 b b : X 6 : b b 6 : 3 h T T T I R [ #.) p t X.X.X.X.X.X.",
"o.o.X.X.o.o.@ t ) [ ) ) ! R I a 7 5 n B B B b . B b B B B n : 7 a I R R ! )  .) t @ o.X.X.X.X.X.",
"X.X.X.;.o.o.q k ' ] ) R R R g 1 : n V F B Z B X Z B Z Z F V n : 1 g ! ! R R ] ' k q X.o.o.X.} X.",
"o.X.o.o.o.*.q l ) ) ! ! R I 4 : b V F F B F F # F F F V F F V b : 4 I ! ! R ) _ l q X.o.o.X...o.",
"o.X.X.X.*.o.q t I I I I I a - 6 B Z F F Z F F # F F F B F F Z B 6 - a I I I I I t q X.X.o.o.X.;.",
"{ X.X.*.X.X.q c ] ] T j s 1 : m V F F F Z F F # F F F V F F F V m : 1 s j T ] ] l q X.X.X.X.o.X.",
"X.} X.o.X.} q f ~ ] ] ) h + $ m n B F F Z F F # F F F Z F F B n m $ + h ) ` ) ~ p q X.X.X.X.o.o.",
"*.{ { X.X.X., t T ! R R f 4 y 7 s 4 b 5 b n F # F F n b 5 b 4 s 7 y 4 f ! ! R I t @ X.X.X.X.X.X.",
"X.o.X.X.X.o.@ e z I I I y r U ! ] _ ] +.' ~ 6 # F 6 ~ ' +.] _ ] ! U r y I I I h q @ X.X...X.X.X.",
"X.X.X.X.X.o.@ q s g g d 2 < g j g a a g a z : # F : z a g a a g j g < < d g g a 2 @ X.X.} o.X.X.",
"X.X.X.X.X.X.2 t T ` ` ) f r 3 % = X # = $ $ B # F Z $ $ = # X = % 3 r f ) ` ) I e @ } ..{ X.X.X.",
"X.X.X.X.X.X.q f _ O.O.O.L + % b b b V V B Z F # F F Z B V V n b b % + L O.O.O.~ t , X.X.X.o.X.o.",
"X.X.X.X.X.X.@ t U ) ) ) h 1 b V V Z F Z C B F # F F B C Z F F Z V b 1 h ) ) ) U r @ X.X.X...o.X.",
"X.o.X.X.X.X.@ r z U T T a - b V Z F F m y y n # F n y y m F F Z V b - a T T T z w @ X.X.X.X.X.} ",
"X.X.X.} o.o.@ 2 s J J j 4 - b V Z F F > ` ' - # F - ' ` > F F Z V b - 4 j J J s 2 @ X.X.X.X.{ { ",
"X.o.X.o.o.;.@ e z T T U r - b V Z F F b I l b # F b l I b F Z V V b - r T T T z q @ ....X.X.} X.",
"X.o.X.X.X.o.0 p ) O.O.] h 1 b V Z F F b g t b # F b t g b F V V V b 7 P O.O.O.! t , X.X.X.X.X.X.",
"X.X.X.X.X.X.@ t T ' ) R a - b V V Z F 6 h f > # F > f h 6 F F Z V b 1 z ` ] ' U r @ X...X.X.X.X.",
"X.o.X.X.X.X.@ r z I I I y - b V V Z F 6 a a * # F * a a 6 F F Z V b - a T T T z r @ X.X.X.......",
"..X.X.o.o.X.@ 2 g j J J 4 - b V Z Z F m 5 : m # F m 6 5 B F Z Z V b - 4 K I I g 2 @ X.X.X.X.X.X.",
"X.o.X.X.X.X.@ q z T T I r = : B C C F V m B F # F F V m V D C C B : = r T T T z q @ X.X.X.X.....",
"X.X.X.X.X.X.@ t ~ ] ] ' l < 7 M G 9 C A N C F # F F S N H C 9 G M 7 2 l ] ] ] T t @ X.X...X.....",
"o.X.o.X.X.X., t T _ _ ) l r h j I z J Y J J n # F m J J Y J z I j h r l _ ' _ T t @ X.........X.",
"X.X.X.X.X...@ e L R T T f r j z z h z U z z 6 # F 6 z z U z h z z j r f T R T L e @ ........X.X.",
"X.X.X.X.X.X.@ 2 g j J j 4 2 4 3 3 1 7 8 7 8 n # F B 8 7 8 7 1 3 3 4 2 4 j J j g q @ ..X...X.X.X.",
"X.X.X.X.....@ 2 g I K g 2 + - 6 6 6 n n n m Z # F F m n n n 6 6 6 - + 4 z I j a 2 @ X...X.*.X.X.",
"o.X.X.X.X.X.@ r T ) ) T i = > B B B D Z V F F # F F F V Z D B B B > - h ) ) R z e @ ..X.X.X.....",
"X.o.X.X.....@ t T ) ) ! g - 6 B B B V B B V B # V V V B B V B B B 6 1 z ) ) ! P e @ X.X.......X.",
"X.X.X.X.X...@ q h I U U r X % & & & * & & * *   * * * & * * & & & % O r I U I h q @ X.X.....X.X.",
"X.} X...X.X.@ 2 r a s a < o @ q w q q ; ; 2 2 @ 2 2 2 2 q q w w q @ o < a s a r 2 @ { X...X.....",
"X.X.X.X...o.t t t u f f e t v ^ / / ^ Q E v W W v v W Q ^ / / / ^ v t e t u u t t t ..*.X.....X.",
"} X.X.X.....v v c c c c c Q { } X.} ..} } { { ( { { } ..........} { Q c c c x c v E X...X...X.*."
};
