/* XPM */
static char *_3a9264e67d74cf18a9eb6910e823d3a[] = {
/* columns rows colors chars-per-pixel */
"48 48 145 2 ",
"   c #000000",
".  c #0A0A07",
"X  c #0E0D0A",
"o  c #100F0C",
"O  c #14130E",
"+  c #151511",
"@  c #1C1B15",
"#  c #1F1F19",
"$  c #211F16",
"%  c #201F19",
"&  c #242117",
"*  c #24231C",
"=  c #29261B",
"-  c #2C2A1E",
";  c #252620",
":  c #292721",
">  c #272923",
",  c #2A2B23",
"<  c #2D2F2B",
"1  c #312E21",
"2  c #2E3127",
"3  c #2E322A",
"4  c #343326",
"5  c #3A3727",
"6  c #33352B",
"7  c #38362B",
"8  c #3C3B2C",
"9  c #363932",
"0  c #3B3D33",
"q  c #343738",
"w  c #373839",
"e  c #3A3D3B",
"r  c #403F2F",
"t  c #413F30",
"y  c #3E4135",
"u  c #3F423B",
"i  c #434334",
"p  c #43463A",
"a  c #464A3C",
"s  c #494C3D",
"d  c #3E4142",
"f  c #434643",
"g  c #464A43",
"h  c #4A4F41",
"j  c #464A49",
"k  c #4A4D4B",
"l  c #4D5244",
"z  c #4D524A",
"x  c #525646",
"c  c #53554D",
"v  c #555B4C",
"b  c #5A5D4D",
"n  c #4C4F50",
"m  c #4E5253",
"M  c #515556",
"N  c #575E51",
"B  c #595F51",
"V  c #535759",
"C  c #565A5B",
"Z  c #595D5E",
"A  c #5C6253",
"S  c #5D635B",
"D  c #626656",
"F  c #616658",
"G  c #666E5E",
"H  c #63695C",
"J  c #5A5E60",
"K  c #5B5E60",
"L  c #5A5F60",
"P  c #5B5F60",
"I  c #5B5E61",
"U  c #5B5F61",
"Y  c #5C5F60",
"T  c #5C5F61",
"R  c #5A5E60",
"E  c #5C6061",
"W  c #5D6061",
"Q  c #5C6062",
"!  c #5D6162",
"~  c #5D6163",
"^  c #5E6163",
"/  c #5E6263",
"(  c #5E6264",
")  c #5D6162",
"_  c #606364",
"`  c #606365",
"'  c #606465",
"]  c #606466",
"[  c #616663",
"{  c #676F60",
"}  c #646A67",
"|  c #686F61",
" . c #656B69",
".. c #6A7161",
"X. c #687062",
"o. c #697162",
"O. c #6A7262",
"+. c #6B7263",
"@. c #6B7365",
"#. c #6C7465",
"$. c #6F7464",
"%. c #6C7466",
"&. c #6D7567",
"*. c #6B7364",
"=. c #6F7768",
"-. c #6F7769",
";. c #737969",
":. c #70796A",
">. c #71796B",
",. c #717A6B",
"<. c #717A6A",
"1. c #727A6B",
"2. c #727A6A",
"3. c #747A6A",
"4. c #737A6C",
"5. c #747B6D",
"6. c #737C6C",
"7. c #747C6D",
"8. c #757D6F",
"9. c #767E6F",
"0. c #767F6F",
"q. c #717A6A",
"w. c #777F70",
"e. c #767B74",
"r. c #797E76",
"t. c #778070",
"y. c #788171",
"u. c #788172",
"i. c #798173",
"p. c #798272",
"a. c #7A8373",
"s. c #7A8272",
"d. c #7B8474",
"f. c #7D8577",
"g. c #7E8777",
"h. c #7E8677",
"j. c #7C817A",
"k. c #81857C",
"l. c #808979",
"z. c #8C9585",
"x. c #8D9686",
"c. c #8F9888",
"v. c #919A8A",
"b. c #98A191",
"n. c #9AA393",
/* pixels */
"Z Z Z K Z K E K Z E E E Z Z Z Z E Z C V j f z H H z f j M Z K Z Z Z E E Z Z Z Z Z Z Z K Z Z Y K ",
"K E K Z Z Z Z K Z E E Z Z Z Z E K E Z V j f z H H z f j C Z E Z Z Z E E K Z Z Z Z Z E Z Z Z Z Z ",
"Z Z K Z Z K Z Z K K Z Z Z Z Z E C M k u z H 9.h.h.9.H z u j M C Z Z C C C C C C Z E K C Z Z Z Z ",
"E Z K Z Z Z Z Z Z Z K Z Z Z C M z k g y A p.x.v.v.x.p.A i p u k M C Z Z K Y C Z K Z C K E Z Z Z ",
"Z ' _ Z E Z Z Z Z ' E Z C C M k z l h l | h.c.b.b.c.h.+.l p p f g M C C K Z C K Z Z Z Z Z Z C C ",
"Z Z Z Z Z K Z Z Z K K Z V k z H 5.<.D l F p.x.b.b.x.p.F l x F &.H z k V E E K Z C C Z Z Z Z Z C ",
"K C _ E Z Z Z Z Z C Z C j z H <.p.3.D l A +.9.h.h.9.+.A x v F 4.<.H c j C C Z Z Z Z Z Z C K Z C ",
"C Z Z Z E E Z Z Z Z C z z S =.p.p.<.D s A G +.{ G +.G A s x F 9.w.=.S z z M C Z C C C Z Z Z C Z ",
"Z Z Z K E Z Z C Z M m c H @.<.d.p.&.b i A A A v v A A b i s D 9.p.<.&.H c z M C Z C C Z Z C C C ",
"Z Z Z Z Z Z C Z C k f w.<.=.9.l.t.D s 8 s 8 8 x s 7 8 s 5 i b 6.l.9.=.<.p.f j C C C C Z Z C C m ",
"Z C C Z Z C C Z n g z t.9.4.&.H N l i - i s s i y s s i - 8 s v H &.<.9.p.z g k C ~ Z Z C C C d ",
"m Z Z Y Z C M C j g N p.p.+.B x l h i , 4 0 a a a a 0 4 - 0 s l x v +.p.p.N f j Z Z Z C Z Z C M ",
"C C Z Z Z E m k g z S p.<.A h h h h a 8 = , 0 l l 0 , = 5 p l l h h A <.p.S z j M M C C C C C C ",
"Z C C C C Z d e z A H <.A z l a s h s i - - 5 a a 7 - - t a h h a l l v <.H A z d f Z C Z C C C ",
"Z Z Z Z C C w w z H @.v l s h l p i 8 = O @ 4 v x 4 @ O = 8 i p l l l l v @.H z q w C C Z E Z Z ",
"Z Z Z C Z Z < < z F A s a s h l i , @ X . . @ , , @ . . X @ , i l l h a a D F x < < C C E Z Z C ",
"C K ~ C Z C : : z A x a a a a p 4 @ .         . .         . @ 4 p a a a a v A x : : C C C C C C ",
"Z Z C C Z Z = = l B l l s i 8 7 + .                         . + 5 8 i s l l B l = = Z C C C C C ",
"C C C ~ K K 6 6 l x h s s a 7 O .                             . O 7 a h a s x z 9 9 C Z Z C M C ",
"Z C K Z Z K 9 9 p s a s a 8 *                                     * 8 a a a s a 9 9 C Z Z C V Z ",
"Z C C C K Z 9 9 p a i i i : X                                     X : i i i a p 9 9 C C Z Z C E ",
"m C C K C C 0 0 h l i 8 5 @                                         @ 5 8 i l h 9 9 C C C C Z C ",
"C M C Z C M 6 6 a z x l 4 O                                         O 2 l x l p 3 3 C C C C Z Z ",
"K m m C C C 3 3 p h h s , O                                         O , s h s y : : C C C C C C ",
"C Z C C C Z > > 8 i i i = X                                         X * i i i 7 * * C C V C C C ",
"C C C C C Z ; ; 7 i i i * X                                         X * i i i 5 % # C C M Z C C ",
"C C C C C C 3 3 s v v v 6 O                                         O 3 v v v a > : M V m C C C ",
"C C C C C C < < h v v x 6 +                                         + 6 v v v a > > C C C Z C Z ",
"C C C C C C > > p l l l 3 +                                         O 3 l l l p > > C C C V Z C ",
"C Z C C C C * * 8 i p p : O                                         o : p i i 8 * * C C C C C M ",
"C C C M Z Z @ @ 1 5 5 5 $ .                                         . $ 5 5 5 1 @ @ C C C C m m ",
"C Z C Z Z E > > p x x l , O                                         O 2 x x x i ; ; V V C C M C ",
"C Z C C C Z , , h v v l , O                                         + 6 v v v a > > C C C C C C ",
"C C C C C C > > p x l s : o                                         + 6 x x z p > > C V C C C C ",
"C Z C C C C = = 0 p i a : O                                         O , a a s 0 = = C C C V V V ",
"V C C Z Z C @ @ 1 5 7 8 * .                                         . & 8 8 8 4 @ @ C C C C C C ",
"C Z C C C C * * 0 a s a : X                                         X : s s s 0 * * C C C C V V ",
"C C C C C C > > p x x l 3 +                                         O 3 x x x p > > C C V C V V ",
"Z C Z C C C > > p l l l 6 +                                         + 3 l l l p > > C V V V V C ",
"C C C C C V ; ; 0 s s s , O                                         O , s s s y ; ; V V V V C C ",
"C C C C C C % % 4 r t t * X                                         X * t t r 4 % % V C V C C C ",
"C C C C V V * * 8 i i i * + O O O O O + + + O O O O O O O O O O O O + = a i i 7 % % C V C K C C ",
"Z C C C C C ; ; a x h a , : 4 5 5 5 5 5 7 5 5 5 5 5 5 5 5 5 5 5 5 4 : 4 v l s 0 * * V C C C V V ",
"C Z C C V V > > p l l l 6 0 k c c c c c M M c c c c M M M M c c M k 0 6 l l l u > > C C V V V C ",
"C C C C C V * * 8 i p i , h r.k.k.k.k.k.k.k.k.k.k.k.k.k.k.k.k.k.k.r.l , i p i 8 * * C C V V C C ",
"C M C V C C @ @ = 4 4 4 * f e.j.j.j.r.e.e.e.e.e.e.e.e.e.r.j.j.j.j.e.f * 4 4 4 = @ @ m C V C V V ",
"C C C C V C + + @ & * & @ 0 [  . . .} [ S S E E S S E '  . . . . .' e @ & * & @ + + V K C V V C ",
"M C C C V V C C C C C C C C C V C V C M M m m n m M M V V V V V V V V C C V V C C C C V C V C K "
};
