/* XPM */
static char *_9340b3bfaec4ca6ac665b1ae8e2f567[] = {
/* columns rows colors chars-per-pixel */
"48 48 217 2 ",
"   c #32150B",
".  c #35180D",
"X  c #3A1D11",
"o  c #2B190A",
"O  c #3B220D",
"+  c #3D2214",
"@  c #392816",
"#  c #2E312C",
"$  c #363125",
"%  c #34352E",
"&  c #3B3529",
"*  c #393225",
"=  c #3C3C34",
"-  c #3C3C38",
";  c #48170D",
":  c #5A150D",
">  c #55140C",
",  c #4D1C12",
"<  c #461C13",
"1  c #5A1712",
"2  c #65170F",
"3  c #76160E",
"4  c #651613",
"5  c #6D1714",
"6  c #6E1816",
"7  c #661B1B",
"8  c #6B1C1B",
"9  c #7B1612",
"0  c #741915",
"q  c #7B1914",
"w  c #771A16",
"e  c #41250E",
"r  c #412613",
"t  c #4C2D15",
"y  c #4A2A1B",
"u  c #472715",
"i  c #562815",
"p  c #4C3115",
"a  c #473318",
"s  c #5B3913",
"d  c #54341C",
"f  c #593818",
"g  c #69231B",
"h  c #77221D",
"j  c #6A3D17",
"k  c #613C1D",
"l  c #6A3C19",
"z  c #643915",
"x  c #7B351F",
"c  c #483827",
"v  c #593C25",
"b  c #423B33",
"n  c #5F3435",
"m  c #5C3B3C",
"M  c #523331",
"N  c #552C29",
"B  c #642525",
"V  c #6C2927",
"C  c #642C2C",
"Z  c #692C2A",
"A  c #6C2524",
"S  c #7A2822",
"D  c #673827",
"F  c #643433",
"G  c #613C3C",
"H  c #663837",
"J  c #6F3329",
"K  c #3F403D",
"L  c #6B4519",
"P  c #774919",
"I  c #7A5517",
"U  c #5B422D",
"Y  c #47413C",
"T  c #564534",
"R  c #64452C",
"E  c #634729",
"W  c #744B23",
"Q  c #71482B",
"!  c #63532B",
"~  c #765126",
"^  c #664A32",
"/  c #7E4E32",
"(  c #6D5435",
")  c #77573A",
"_  c #49713A",
"`  c #5B3F40",
"'  c #3F4343",
"]  c #444541",
"[  c #464A4A",
"{  c #4A4D4D",
"}  c #4C4543",
"|  c #534444",
" . c #5C4344",
".. c #5B4C4C",
"X. c #574A4B",
"o. c #4B4F50",
"O. c #5C4F50",
"+. c #4E5253",
"@. c #525556",
"#. c #5A5253",
"$. c #535759",
"%. c #595758",
"&. c #55595B",
"*. c #595C5E",
"=. c #4D504D",
"-. c #7D5648",
";. c #67554E",
":. c #6B615D",
">. c #73724E",
",. c #5B5F60",
"<. c #5D6062",
"1. c #616464",
"2. c #696761",
"3. c #736663",
"4. c #83170F",
"5. c #84180F",
"6. c #831712",
"7. c #891711",
"8. c #841A13",
"9. c #8C1912",
"0. c #8C1F18",
"q. c #941912",
"w. c #9B1912",
"e. c #991F18",
"r. c #A41A13",
"t. c #AA1B14",
"y. c #A81F18",
"u. c #892619",
"i. c #93241C",
"p. c #972817",
"a. c #963B16",
"s. c #A4231C",
"d. c #AD261D",
"f. c #B0271F",
"g. c #872D24",
"h. c #972921",
"j. c #8B342A",
"k. c #9D3A2C",
"l. c #8D3B31",
"z. c #AA2C23",
"x. c #B12C24",
"c. c #A9382B",
"v. c #B5342B",
"b. c #B3392F",
"n. c #AD3B31",
"m. c #B63B32",
"M. c #855B17",
"N. c #804D1F",
"B. c #86562C",
"V. c #964B3C",
"C. c #9B4D3D",
"Z. c #875B37",
"A. c #96593A",
"S. c #95492D",
"D. c #AD4633",
"F. c #B84438",
"G. c #A3553C",
"H. c #8C6222",
"J. c #97652B",
"K. c #95663C",
"L. c #A56F3C",
"P. c #93594D",
"I. c #BE4C41",
"U. c #A45C49",
"Y. c #976945",
"T. c #9E724B",
"R. c #9E784E",
"E. c #8A6D51",
"W. c #8E7153",
"Q. c #967551",
"!. c #936D56",
"~. c #A6654C",
"^. c #AB6C54",
"/. c #A86652",
"(. c #A67C56",
"). c #A97258",
"_. c #B37259",
"`. c #B77C5A",
"'. c #B2714F",
"]. c #B87B62",
"[. c #C15246",
"{. c #C6785B",
"}. c #6D9456",
"|. c #7C956F",
" X c #AD8249",
".X c #B9875C",
"XX c #BC8A4E",
"oX c #AF8873",
"OX c #8FAA6B",
"+X c #C28E59",
"@X c #C48D6E",
"#X c #C48767",
"$X c #C9956A",
"%X c #CB9473",
"&X c #D49F7A",
"*X c #CC8D75",
"=X c #D9A67D",
"-X c #B59D8D",
";X c #8FB081",
":X c #B9B190",
">X c #D9AB86",
",X c #C4BE8D",
"<X c #DEB283",
"1X c #C3B498",
"2X c #E2AD83",
"3X c #E9B387",
"4X c #EAB689",
"5X c #E4B185",
"6X c #EDBE95",
"7X c #B7C087",
"8X c #CBC891",
"9X c #EFC196",
"0X c #EAC798",
"qX c #F1C49A",
"wX c #F7CDA2",
"eX c #FCD6AA",
"rX c #F8D4A6",
/* pixels */
"*.*.*.,.*.,.<.,.*.<.<.<.*.*.*.*.<.*.&.*.*.*.*.*.<.*.<.*.#.#.*.*.*.*.<.<.*.*.*.*.*.*.*.,.*.*.,.,.",
",.<.,.*.*.*.*.,.*.<.<.*.*.*.*.<.,.<.*.*.*.*.<.,.*.*.*.*.O...*.*.*.*.<.<.,.*.*.*.*.*.<.*.*.*.*.*.",
"*.*.,.*.*.,.*.*.,.,.*.*.*.*.*.<.*.*.,.*.*.*.,.*.*.*.*...G m O.*.*.*.&.&.&.&.&.&.*.<.,.&.*.*.*.*.",
"<.*.,.*.*.*.*.*.*.*.,.*.*.*.,.,.*.*.,.,.*.*.*.*.*.*.O.H B C | *.<.*.*.*.,.,.&.*.,.*.&.,.<.*.*.*.",
"*.1.1.*.<.*.*.*.*.1.<.*.*.*.*.*.*.*.*.*.#.#...#.....F h 0 Z ..+.&.*.,.*.,.*.&.,.*.*.*.*.*.*.&.&.",
"*.*.*.*.*.,.*.*.*.,.,.*.*.#.#.....#.#.#. .Z Z Z Z Z h 7.q V  .#.%.&.&.*.<.<.,.*.&.&.*.*.*.*.*.&.",
",.&.1.<.*.*.*.*.*.&.,.*.%. .F C Z F G G V 6.6.6.6.6.q.w.q.q V F  .*.,.*.*.&.*.*.*.*.*.*.&.,.*.&.",
"&.*.*.*.<.<.*.*.*.*.,.*...C 8 q 6.q A A 8.w.w.w.w.w.t.t.r.q.6.w Z ..*.*.&.&.&.*.&.&.&.*.*.*.&.*.",
"*.*.*.,.<.*.*.&.*.*.*.*. .A w 7.q.9.w q w.t.t.t.t.t.t.t.t.r.e.0.h C G  .%.&.&.&.*.&.&.*.*.&.&.&.",
"*.*.*.*.*.*.&.*.&.*.&...C w 7.w.w.9.9 6.t.t.t.t.t.t.t.t.y.x.m.n.h.8.w Z  .#.&.*.&.&.&.*.*.&.&.+.",
"*.&.&.*.*.&.&.*.*.*...C 0 7.w.t.r.q.9 6.t.t.t.t.t.t.y.d.v.F.[.[.b.e.7.0 Z  .%.&.&.<.*.*.&.&.&.' ",
"+.*.*.,.*.&.@.&.&.#.m 8 9 i.d.y.t.q.9 6.w.y.f.f.f.x.b.F.I.[.I.F.b.s.q.9 6 F #.&.*.*.*.&.*.*.&.@.",
"&.&.*.*.*.<.$.+.%...C w q.z.m.v.s.q.9 9 q.y.x.z.z.n.D.F.I.F.m.v.x.y.w.6.3 Z  .%.*.*.&.&.&.&.&.&.",
"*.&.&.&.&.*.&.@.#.G h 9.r.f.b.v.s.i.g.g.8.q.s.i.i.i.h.c.n.v.x.d.y.t.r.q.9 7 n O.&.*.*.&.*.&.&.&.",
"*.*.*.*.&.&.*.*.#.F w q.t.y.s.i.i.k./.^.j.w 7.7.q 0 q 0.i.p.r.t.t.t.t.r.7.5 C  .%.*.&.&.*.<.*.*.",
"*.*.*.&.*.*.*.*...F w q.t.r.9.8.j._.>X>X_.S 9 6.5 S S u.8.9.q.r.t.t.t.t.q.9 7 n ..*.&.&.<.*.*.&.",
"&.,.<.&.*.&.*.&.#.F w q.w.9.6.u.U.=XqXwX>X/.S w 5 P./.C.j.u.9.q.q.q.q.w.q.6.0 B  .#.%.&.&.&.&.&.",
"*.*.&.&.*.*.&.&...F w 9.9.9 9 k.{.5X6X9X6X>X/.S g U.@X.X~.V.g.w 9 3 9 9.q.6.0 7 n  ...&.&.&.&.&.",
"&.&.&.<.*.*.&.#. .B w 4.3 5 9 c.{.%X@X@X>X9X>XU.P.l./.].].^.V.h 4 1 4 6.q.6.5 7 B m m *.*.&.@.&.",
"*.&.*.*.*.,.#. .B 5 9 3 i g w k._.).-.P.oX3X3X2X=X~.P.-.-.)._.k.0 i i 3 w.7.8 B C m m *.*.&.$.*.",
"*.&.&.&.,.*...C 6 9 4.> d S.p.c.].oX:.:.-X3X3X3X3X=X-X3.:.oX#XD.p.A.D : q.7.V m m  . .&.*.*.&.<.",
"+.&.&.,.&.*...Z 9 6.4.> v G.z.c.#X-X2.% ;.2X3X3X3X>X>.= 2.-X*XD.c.'.^ > 7.9 C  .@.%.%.&.&.&.*.&.",
"&.@.&.*. .m C 7 4 5 9 4.: : 4.c.#X:X|._ >.5X4X4X4X5X}._ |.:X*XD.9 , > 4.7.9 Z ..*.&.&.&.&.&.*.*.",
",.+.+.&.%.#.| | m C 8 9 3 4.q.c.#X1X;X}.OXqXwXwXwXqXOX}.;X1X*XD.9.9 5.q.9 6 C ..&.&.&.&.&.&.&.&.",
"&.*.&.&.&.&.@.{ }  .B 0 5.p.a.S.`.>X,X:X8XeXeXeXeXeX8X7X,X>X#XS.a.p.q.q.9 B m #.$.&.&.&.$.&.&.&.",
"&.&.&.&.&.*.&.*.%...F 0 5.p.u.x A..X=X0XwXeXeXeXeXeXwX0X=X#XA.x u.p.w.w.9 C X.,.&.&.&.&.@.*.&.&.",
"&.&.&.&.*.&.,.&.&.#.n 0 6.6.2 , D A.`.%X5X4X9X9X9X4X5X%X.XY.D u 2 7.w.w.9 F X.%.&.@.@.$.+.&.&.&.",
"&.&.&.&.&.&.*.*.&.#.n 6 9 2 ; X d / A.Y.`..X@X@X@X`.`.~.A./ v X ; 3 q.q.9 C ..$.&.&.&.&.&.*.&.*.",
"&.&.&.&.&.&.&.&.&.%.` B 4 , y R ) Z.B.A.^._.`.].`._.'.A.B.Z.) R y : 9 7.0 Z  .@.$.&.&.&.&.$.*.&.",
"&.*.&.&.&.&.&.&.&.$.#.M < i Q T.(.K.B.K.+X&X&X&X=X&X#XL.B.K.(.T.Q i : 5 7 C m #.&.&.&.&.&.&.&.@.",
"&.&.&.@.*.*.&.&.&.&.&.= + k B.Y.Y.B.P J.XX<X<X>X<X<X+XJ.N.B.Y.K.~ k < ; N m ..%.&.&.&.&.&.&.+.+.",
"&.*.&.*.*.<.&.*.&.&.+.% a L L k f f j P J. XQ.Q.R. XJ.P j f d f L W p X M =.@.&.$.$.$.$.&.&.@.&.",
"&.*.&.&.&.*.&.&.$.+.- c ~ W k u . O t z j j t e p L L z i O o r k W P p b { &.&.&.&.&.&.&.&.&.&.",
"&.&.&.&.&.&.&.&.&.+.# ! (.Y.R r     O t t r . o O u t t r .   + v Z.T.( = { &.$.&.&.&.$.&.&.&.&.",
"&.*.&.&.&.&.&.&.$.+.# ( $X.X) u .   O U E.W.E.-.E.W.E.^ + . . + ( .X#X) - { $.&.&.&.&.&.&.$.$.$.",
"$.&.&.*.*.&.&.@.+.+.' T ) ) U c u < + U Q..X(.T.(..XQ.^ r < < c T ) ) T ] +.&.$.$.&.&.&.&.&.&.&.",
"&.*.&.&.&.&.$.o.+.{ +.- % % - Y M y O r f H.W W W H.L r e y M | - % % K @.$.&.&.&.$.&.&.&.&.$.$.",
"&.&.&.&.&.&.&.&.&.$.+.{ ' ' { @.Y c e e s M.l l l M.L e e y Y @.{ +.{ +.@.$.$.&.$.&.&.&.$.&.$.$.",
"*.&.*.&.&.&.*.*.*.&.@.&.@.$.@.@.} c d d s M.P l P M.L d d c Y @.@.@.$.$.&.$.&.&.&.&.&.$.$.$.$.&.",
"&.&.&.&.&.$.&.&.&.&.&.&.&.*.&.@.] c R Q f P I P I P f E v c Y +.$.$.@.$.&.&.&.$.,.&.$.$.$.$.&.&.",
"&.&.&.&.&.&.$.$.&.&.&.&.&.&.&.$.Y & v R p s I I I s p v a * Y @.@.$.&.&.&.&.$.&.,.&.$.$.$.&.&.&.",
"&.&.&.&.$.$.$.&.&.*.&.$.&.&.&.@.] $ @ a @ a I I I a @ @ @ $ ] @.&.&.&.$.&.&.$.$.$.&.&.$.&.,.&.&.",
"*.&.&.&.&.&.&.&.&.&.&.&.$.&.&.&.[ - * $ $ c ! ! ! c $ $ $ = { $.&.$.$.&.&.$.$.$.$.&.$.&.&.&.$.$.",
"&.*.&.&.$.$.@.&.&.&.&.$.&.$.&.&.+.- & $ $ c ! ! ! c $ $ & b =.$.$.$.&.&.$.$.$.&.&.&.&.&.$.$.$.&.",
"&.&.&.&.&.$.@.&.$.&.@.&.&.$.&.&.&.o.[ [ [ [ [ [ [ { [ [ { +.&.$.$.$.&.$.$.&.$.&.+.+.&.&.$.$.&.&.",
"&.@.&.$.&.&.&.&.&.$.&.&.$.$.&.$.&.@.o.[ [ [ [ { [ [ [ [ +.@.&.&.&.&.$.$.,.$.$.&.&.+.+.&.$.&.$.$.",
"&.&.&.&.$.&.&.&.&.$.&.&.&.&.&.&.&.&.@.+.{ [ { { [ [ { +.$.&.$.$.$.$.$.$.$.$.$.$.$.$.$.,.&.$.$.&.",
"@.&.&.&.$.$.&.&.&.&.&.&.&.&.&.$.&.$.&.@.@.+.+.o.+.@.@.$.$.$.$.$.$.$.$.&.&.$.$.&.&.&.&.$.&.$.&.,."
};
