/* XPM */
static char *_4a73004e76c4c0fa5cc544a2233997a[] = {
/* columns rows colors chars-per-pixel */
"48 48 198 2 ",
"   c #782019",
".  c #71231E",
"X  c #732620",
"o  c #723A36",
"O  c #693C38",
"+  c #6D453C",
"@  c #71433E",
"#  c #3F4243",
"$  c #464A4B",
"%  c #494C4D",
"&  c #404244",
"*  c #534D4D",
"=  c #594746",
"-  c #5C514D",
";  c #4B4F50",
":  c #4E5253",
">  c #515556",
",  c #5A5453",
"<  c #535759",
"1  c #56595B",
"2  c #595D5E",
"3  c #614745",
"4  c #724944",
"5  c #6E554D",
"6  c #78574D",
"7  c #665955",
"8  c #635D5B",
"9  c #695E5A",
"0  c #6B5750",
"q  c #775F59",
"w  c #735852",
"e  c #65615E",
"r  c #6A605B",
"t  c #71615D",
"y  c #79685E",
"u  c #5B5F60",
"i  c #5D6062",
"p  c #616464",
"a  c #6C6560",
"s  c #726963",
"d  c #7B6960",
"f  c #706762",
"g  c #8F1C0C",
"h  c #80170E",
"j  c #9E240F",
"k  c #87271B",
"l  c #9C2613",
"z  c #9D2B12",
"x  c #972511",
"c  c #95321A",
"v  c #AF240B",
"b  c #B7280E",
"n  c #A52B11",
"m  c #A82C12",
"M  c #B33112",
"N  c #BD3612",
"B  c #BC3917",
"V  c #B4391D",
"C  c #BA3C1C",
"Z  c #B93419",
"A  c #8F2E22",
"S  c #962F20",
"D  c #973E2C",
"F  c #A63A23",
"G  c #B03E24",
"H  c #C53617",
"J  c #C13719",
"K  c #C33C1A",
"L  c #CB3C1B",
"P  c #94422D",
"I  c #8D4335",
"U  c #87463B",
"Y  c #BF4423",
"T  c #A84730",
"R  c #A64E3C",
"E  c #B54F36",
"W  c #C5411E",
"Q  c #CC421D",
"!  c #D5441A",
"~  c #DB451D",
"^  c #E34B1F",
"/  c #C74621",
"(  c #CA4522",
")  c #CC4926",
"_  c #CE4A28",
"`  c #D44621",
"'  c #D54A22",
"]  c #DB4C23",
"[  c #D34F2A",
"{  c #CF512C",
"}  c #DD5026",
"|  c #DC542C",
" . c #D45228",
".. c #CD5F3F",
"X. c #DD5933",
"o. c #D65835",
"O. c #E14E24",
"+. c #E35124",
"@. c #EA5425",
"#. c #E4562A",
"$. c #E5592C",
"%. c #EC5B2B",
"&. c #E8562B",
"*. c #F15B2B",
"=. c #E55E34",
"-. c #EA5D31",
";. c #F6622F",
":. c #E36137",
">. c #EE6234",
",. c #E4653A",
"<. c #E6693F",
"1. c #EC693D",
"2. c #EB673B",
"3. c #F36535",
"4. c #F56837",
"5. c #F46B3C",
"6. c #FB6F37",
"7. c #FA723B",
"8. c #824C43",
"9. c #89574D",
"0. c #8C5F53",
"q. c #A35546",
"w. c #8B6C5F",
"e. c #946958",
"r. c #AE614A",
"t. c #AE6D56",
"y. c #B76B51",
"u. c #AF755B",
"i. c #B3755E",
"p. c #866C61",
"a. c #8E6D61",
"s. c #8C7263",
"d. c #8F7869",
"f. c #827267",
"g. c #917364",
"h. c #9D7A65",
"j. c #977968",
"k. c #997A69",
"l. c #A47A66",
"z. c #D96A48",
"x. c #C9785B",
"c. c #D77856",
"v. c #E56740",
"b. c #E76A42",
"n. c #EA6E42",
"m. c #E56F48",
"M. c #F16E40",
"N. c #EE7044",
"B. c #F57444",
"V. c #F97643",
"C. c #FB7A46",
"Z. c #F47749",
"A. c #F47A4C",
"S. c #FA7D4C",
"D. c #EB7D54",
"F. c #E77E54",
"G. c #F37D51",
"H. c #F97F51",
"J. c #A3816B",
"K. c #B9856B",
"L. c #B6876A",
"P. c #B68D72",
"I. c #FB814D",
"U. c #EE8356",
"Y. c #E6815B",
"T. c #EF875B",
"R. c #E98B5F",
"E. c #F48255",
"W. c #FA8453",
"Q. c #FB8956",
"!. c #F48559",
"~. c #F9875A",
"^. c #F58B5B",
"/. c #FB8C5B",
"(. c #FC915E",
"). c #F2915E",
"_. c #C48769",
"`. c #D68B63",
"'. c #D98E68",
"]. c #C5926E",
"[. c #D5956F",
"{. c #D69A73",
"}. c #E88D65",
"|. c #F48E61",
" X c #F88F62",
".X c #E49265",
"XX c #E3956B",
"oX c #EE9B6F",
"OX c #EA9067",
"+X c #F69263",
"@X c #FB9463",
"#X c #FC9964",
"$X c #F19D6F",
"%X c #FA9C6C",
"&X c #EB9770",
"*X c #EEA576",
"=X c #F9A777",
"-X c #FCB07D",
/* pixels */
"2 2 2 u 2 u i u 2 i i i 2 2 2 2 i 2 1 2 2 2 2 2 i 2 i i 2 2 u 2 2 2 i i 2 2 2 2 2 2 2 u 2 2 u u ",
"u i u 2 2 2 2 u 2 i i 2 2 2 2 i u i 2 2 2 2 i u 2 2 2 2 u 2 i 2 2 2 i i u 2 2 2 2 2 i 2 2 2 2 2 ",
"2 2 u 2 2 u 2 2 u u 2 2 2 2 2 i 2 2 u 2 2 2 u 2 2 2 u 2 2 2 2 2 2 2 1 1 1 1 1 1 2 i u 1 2 2 2 2 ",
"i 2 u 2 2 2 2 2 2 2 u 2 2 2 u u 2 2 u u 2 2 2 2 2 2 u i u 2 ; 2 i 2 2 2 u u 1 2 u 2 1 u i 2 2 2 ",
"2 p p 2 i 2 2 2 2 p i 2 2 2 2 2 2 2 2 2 2 u 2 i 2 1 2 2 1 2 2 : 1 2 u 2 u 2 1 u 2 2 2 2 2 2 1 1 ",
"2 2 2 2 2 u 2 2 2 u u 2 2 1 2 2 2 2 2 2 2 2 2 2 2 1 2 2 1 2 2 2 2 1 1 2 i i u 2 1 1 2 2 2 2 2 1 ",
"u 1 p i 2 2 2 2 2 1 u 2 2 1 2 2 2 2 1 2 2 2 2 i 2 2 1 2 1 1 1 i 2 2 u 2 2 1 2 2 2 2 2 2 1 u 2 1 ",
"1 2 2 2 i i 2 2 2 2 u 2 2 2 2 2 2 2 2 2 2 2 2 2 2 2 2 u 2 2 1 u 2 2 u 2 1 1 1 2 1 1 1 2 2 2 1 2 ",
"2 2 2 u i 2 2 1 2 2 2 2 2 i 2 2 2 i u 2 2 2 2 1 2 1 1 1 1 2 1 1 2 1 2 1 1 1 1 1 2 1 1 2 2 1 1 1 ",
"2 2 2 2 2 2 1 2 1 2 1 2 2 2 2 2 2 2 2 1 2 1 2 u 2 2 1 1 1 2 1 u 2 1 1 1 1 2 1 2 1 1 1 2 2 1 1 : ",
"2 1 1 2 2 1 1 2 2 2 2 2 2 1 1 2 8 9 t p.w.w.w.w.e.p.d s e 8 2 2 1 1 1 $ 1 2 2 1 1 i 2 2 1 1 1 # ",
": 2 2 u 2 1 > 1 1 2 1 2 2 2 e d l.x.c.D.E.U.T.^.|.OX.X'.K.l.s.e i 2 2 : < 1 1 1 2 2 2 1 2 2 1 > ",
"1 1 2 2 2 i < : 1 2 1 1 8 a.i.x.Y.G.S.S.S.S.W.Q.Q./././.|.R.'.K.s.f 1 1 1 1 1 2 2 2 1 1 1 1 1 1 ",
"2 1 1 1 1 2 1 > 1 2 1 e a.c.D.E.W.S.S.S.S.C.I.Q.I.I.Q.Q.W.W.(.).`.L.f.2 1 2 1 1 1 2 2 1 2 1 1 1 ",
"2 2 2 2 1 1 2 2 2 a e.y.z.G.~.H.5.5.S.W.W.B.W.~.W.W.W./.Q.I.W.W.+XoX{.J.a 2 1 1 1 2 1 1 2 i 2 2 ",
"2 2 2 1 2 2 2 2 8 t.z.-.] =.|.N.+.#.Z.W.W.2.G.E./.Q.Z.+X@XQ.S.M. X%X=X*XP.a 1 1 1 2 1 1 i 2 2 1 ",
"1 u i 1 2 1 2 2 9 E ` O.] ' !.5.O.X.Z.W.E.=.1.~./. XA.+X(.W.B.Z.W. X=X-X{.a 1 1 1 2 2 1 1 1 1 1 ",
"2 2 1 1 2 2 1 1 7 T K Q ~ ` B.4.@.O.5.S.A.-.>.Z.I.W.B.E././.B.Z.W.G.%X*X].a 1 u 1 2 2 1 1 1 1 1 ",
"1 1 1 i 2 2 1 1 9 R V K ! ~ ;.4.%.&.-.5.V.4.3.1.Z.C.V.V.C.W.I.C./.W.@X.Xh.2 1 2 1 1 1 2 2 1 > 1 ",
"2 1 2 2 2 u 2 1 9 q.V B ! ^ *.4.M.M.M.Z.Z.B.B.5.B.Z.S.I.W././.Q.Q.Q.(..Xl.2 1 1 1 1 1 2 2 1 < 2 ",
"2 1 1 1 u 2 1 2 2 0.F M K W | :.,.:.-.2.n.n.3.*.*.4.5.5.V.V.I.Q./.@X#XXXj.2 1 1 2 1 1 1 2 2 1 i ",
": 1 1 u 1 1 1 2 i q D n N W / } $.-.>.B.A.A.C.;.4.S.W.W.W.W.W.I.~./.%X{.f.i u 1 1 1 1 1 1 1 2 1 ",
"1 > 1 2 1 > 2 2 1 9 I z N Q Y | >.1.<.n.A.E.~.7.B.E.^.E.!.|.+X(././.$XP.e 1 1 2 2 1 1 1 1 1 2 2 ",
"u : : 1 1 1 > > 1 2 8.c M ! Z ) ,.,.{ _ X.n.U.Z.A.E.E.B.,.b.E.@X(.+X[.d.2 1 > 1 1 1 1 1 1 1 1 1 ",
"1 2 1 1 1 2 > % $ 1 6 P z W Q K [ $. .K Q :.D.E.E./.~.7.4.3.Z.~./.oXP.s 1 1 < 1 1 1 1 1 < 1 1 1 ",
"1 1 1 1 1 2 1 2 1 1 a 9.S B } | ] +.$.Q J | N.E.~.(.Q.7.I.Q.W.W.W.$XK.s u 1 < i 1 1 1 1 > 2 1 1 ",
"1 1 1 1 1 1 u 1 1 1 1 t I z ( | $.%.>.' J _ <.A.~.#XQ.C.W.W.W.W.(.XXk.2 2 1 : 1 1 > > < : 1 1 1 ",
"1 1 1 1 1 1 2 2 1 1 1 2 8.g V ] #.#.%.] K ) b.A./.#X~.S.W.W.I.Q.#X_.a 1 1 1 1 1 1 1 1 1 1 2 1 2 ",
"1 1 1 1 1 1 1 1 1 2 1 1 5 k n L ] +.@.+.Q ( b.S./.@XW.S.W.I.I.(.#Xh.1 1 1 1 1 1 1 1 1 1 1 < 2 1 ",
"1 2 1 1 1 1 1 1 1 1 1 1 2 U x M ` } &.@.! W v.W./.W.C.C.I.I.I.#XXXy 2 1 1 1 1 1 1 1 1 1 1 1 1 > ",
"1 1 1 > 2 2 1 1 1 1 u 2 1 , I l Z ) #.@.O.J o.~.~.S.7.C.W.W.(.&Xg.2 2 1 1 1 2 1 1 1 1 1 1 1 : : ",
"1 2 1 2 2 i 1 2 1 1 2 u 1 1 w A j C | $.] J { /.~.V.6.C.Q.~.+X_.8 1 1 1 1 1 < 1 < < < < 1 1 > 1 ",
"1 2 1 1 1 2 1 1 1 1 1 2 1 1 2 @ k z / ] ] H ( !./.C.V.S./.+X`.d 1 1 < 1 1 < 1 1 1 1 1 1 1 1 1 1 ",
"1 1 1 1 1 1 1 1 1 2 1 1 2 1 1 7 8.k n Q ' L L Z.W.C.C.W.Q.|.g.1 1 1 1 1 < < 1 < 1 1 1 < 1 1 1 1 ",
"1 2 1 1 1 1 1 1 1 1 1 1 1 1 1 2 8 4 h m ( Q Z E.C.V.I.~.U.u.r 2 < 1 1 < < 1 1 1 1 1 1 1 1 < < < ",
"< 1 1 2 2 1 1 > : 1 1 1 1 u 1 2 1 , o k l M b N.V.S.W.Y.e.7 1 1 < 1 1 1 1 1 1 < < 1 1 1 1 1 1 1 ",
"1 2 1 1 1 1 < ; : ; < ; < 2 1 < % % * o   g v =.V.S.F.t.- % > u 1 1 1 1 1 1 1 1 1 < 1 1 1 1 < < ",
"1 1 1 1 1 1 1 1 1 < > > : : 1 < ; % $ 3 O X g [ 1.m.y.0 % $ > 1 < i 2 1 1 < < 1 < 1 1 1 < 1 < < ",
"2 1 2 1 1 1 2 2 2 1 > 1 1 1 < > ; $ $ % * 3 . G ..r.5 $ $ & $ > < 1 1 1 1 < 1 1 1 1 1 < < < < 1 ",
"1 1 1 1 1 < 1 1 1 1 1 1 1 2 1 > % $ $ % ; % = + 6 - % % $ $ $ : < < > < 1 1 1 < u 1 < < < < 1 1 ",
"1 1 1 1 1 1 < < 1 1 1 1 1 1 1 < % % $ $ % % $ $ $ $ % % $ $ % > > < 1 1 1 1 < 1 u 1 < < < 1 1 1 ",
"1 1 1 1 < < < 1 1 2 1 > 1 1 1 > % $ $ % % $ % $ % $ $ $ % $ % > 1 1 1 < 1 1 < < < 1 1 < 1 u 1 1 ",
"2 1 1 1 1 1 1 1 1 1 1 1 < 1 1 1 ; $ $ % $ $ $ $ $ $ $ $ $ $ ; < 1 < < 1 1 < < < < 1 < 1 1 1 < < ",
"1 2 1 1 < < > 1 1 1 1 > 1 < 1 1 > % $ $ $ $ $ $ $ $ $ $ $ % > < < < 1 1 < < < 1 1 1 1 1 < < < 1 ",
"1 1 1 1 1 < > 1 < 1 > 1 1 < 1 1 1 ; $ $ $ $ $ $ $ % $ $ % : 1 < < < 1 < < 1 < 1 : : 1 1 < < 1 1 ",
"1 > 1 < 1 1 1 1 1 < 1 1 < < 1 < 1 > ; $ $ $ $ % $ $ $ $ : > 1 1 1 1 < < u < < 1 1 : : 1 < 1 < < ",
"1 1 1 1 < 1 1 1 1 < 1 1 1 1 1 1 1 1 > : % $ % % $ $ % : < 1 < < < < < < < < < < < < < u 1 < < 1 ",
"> 1 1 1 < < 1 1 1 1 1 1 1 1 1 < 1 < 1 > > : : ; : > > < < < < < < < < 1 1 < < 1 1 1 1 < 1 < 1 u "
};
