/* XPM */
static char *_64c869ed89847d8b4bbfb0a00293579[] = {
/* columns rows colors chars-per-pixel */
"48 48 250 2 ",
"   c #070303",
".  c #0C0504",
"X  c #140805",
"o  c #180806",
"O  c #1B0C09",
"+  c #1B100B",
"@  c #230D08",
"#  c #24120C",
"$  c #2A1608",
"%  c #2B140D",
"&  c #33180C",
"*  c #2C1911",
"=  c #381C13",
"-  c #3A230C",
";  c #3C2216",
":  c #3B2618",
">  c #540102",
",  c #5B0101",
"<  c #481A0C",
"1  c #501911",
"2  c #640103",
"3  c #6C0103",
"4  c #6E0A0A",
"5  c #740102",
"6  c #7B0202",
"7  c #7A0C08",
"8  c #78170D",
"9  c #691818",
"0  c #791412",
"q  c #48290C",
"w  c #4C320F",
"e  c #54340F",
"r  c #442516",
"t  c #472817",
"y  c #412619",
"u  c #4B2B1B",
"i  c #552C1B",
"p  c #4C3318",
"a  c #563716",
"s  c #682A18",
"d  c #772414",
"f  c #6A3511",
"g  c #743119",
"h  c #411939",
"j  c #4C3222",
"k  c #593523",
"l  c #543B25",
"z  c #5B3C25",
"x  c #5A3D29",
"c  c #493F31",
"v  c #732F2A",
"b  c #633B25",
"n  c #633926",
"m  c #5D4218",
"M  c #674518",
"N  c #6C4C1C",
"B  c #744C1B",
"V  c #784A1A",
"C  c #79531C",
"Z  c #5B412C",
"A  c #534734",
"S  c #66472A",
"D  c #6B432C",
"F  c #76472C",
"G  c #6B5329",
"H  c #785625",
"J  c #674932",
"K  c #764B33",
"L  c #6C5538",
"P  c #755233",
"I  c #79573A",
"U  c #7E643A",
"Y  c #39314F",
"T  c #0B327C",
"R  c #513D4D",
"E  c #2A4A75",
"W  c #6E4F49",
"Q  c #745D43",
"!  c #7B5E43",
"~  c #577B51",
"^  c #7B6547",
"/  c #716F52",
"(  c #64606E",
")  c #830203",
"_  c #8B0203",
"`  c #870B0A",
"'  c #920202",
"]  c #950102",
"[  c #930204",
"{  c #990102",
"}  c #9C0204",
"|  c #980C0A",
" . c #89140C",
".. c #97160B",
"X. c #8A1815",
"o. c #981515",
"O. c #A40204",
"+. c #AC0204",
"@. c #A70709",
"#. c #B40104",
"$. c #BB0104",
"%. c #B40108",
"&. c #BC0109",
"*. c #A21916",
"=. c #8C290E",
"-. c #882719",
";. c #972715",
":. c #87391B",
">. c #963C1A",
",. c #A42D18",
"<. c #8B2B26",
"1. c #972625",
"2. c #8D372F",
"3. c #953528",
"4. c #973A36",
"5. c #A83131",
"6. c #C30204",
"7. c #CA0103",
"8. c #C20109",
"9. c #D20104",
"0. c #904419",
"q. c #85571E",
"w. c #855A25",
"e. c #905628",
"r. c #854435",
"t. c #97473B",
"y. c #85593B",
"u. c #825B3D",
"i. c #8C6429",
"p. c #92642B",
"a. c #996829",
"s. c #8B6B37",
"d. c #946C32",
"f. c #98693E",
"g. c #8F703C",
"h. c #99753A",
"j. c #A56D28",
"k. c #A6742B",
"l. c #A67735",
"z. c #B17B34",
"x. c #953C41",
"c. c #8E4E4D",
"v. c #825E42",
"b. c #975B47",
"n. c #A35253",
"m. c #836244",
"M. c #8B6444",
"N. c #8B6A49",
"B. c #8C6B4B",
"V. c #966A47",
"C. c #926B4A",
"Z. c #89734A",
"A. c #957549",
"S. c #9C734D",
"D. c #976A52",
"F. c #8B7353",
"G. c #987655",
"H. c #A57C48",
"J. c #A56B57",
"K. c #A67B55",
"L. c #8A786B",
"P. c #AC736C",
"I. c #508520",
"U. c #769B4C",
"Y. c #77986E",
"T. c #AC823A",
"R. c #B58539",
"E. c #C49237",
"W. c #D8A022",
"Q. c #9E8148",
"!. c #93825E",
"~. c #A88346",
"^. c #B48C47",
"/. c #B9934C",
"(. c #A98757",
"). c #B09056",
"_. c #B99756",
"`. c #ABAA5C",
"'. c #988868",
"]. c #948973",
"[. c #968976",
"{. c #A38967",
"}. c #AA946A",
"|. c #B89765",
" X c #A78978",
".X c #A89778",
"XX c #B79472",
"oX c #B9A37C",
"OX c #C39948",
"+X c #C49D55",
"@X c #C7A45A",
"#X c #D0AD5F",
"$X c #E0AB41",
"%X c #C39E66",
"&X c #C7A967",
"*X c #C8A97A",
"=X c #D1B573",
"-X c #DDC27F",
";X c #032B80",
":X c #25448A",
">X c #395493",
",X c #455788",
"<X c #425B9A",
"1X c #4F698B",
"2X c #71768B",
"3X c #526BA5",
"4X c #556EA4",
"5X c #728690",
"6X c #7487AA",
"7X c #969289",
"8X c #B28F8E",
"9X c #A89B86",
"0X c #B19A86",
"qX c #A39E92",
"wX c #B7A68A",
"eX c #AEA797",
"rX c #AFAE91",
"tX c #B9AB93",
"yX c #9199A8",
"uX c #94A5B3",
"iX c #B0ACAE",
"pX c #BBB5AB",
"aX c #C2AC84",
"sX c #CAB18A",
"dX c #C6B596",
"fX c #D1BA91",
"gX c #C5B8A8",
"hX c #CDB9B3",
"jX c #BAC5B8",
"kX c #DCC181",
"lX c #CEC1AB",
"zX c #D7C6A6",
"xX c #C9C4B9",
"cX c #D3C6B2",
"vX c #E2CFAD",
"bX c #E7D6B4",
"nX c #95A2C2",
"mX c #A7B2CB",
"MX c #B5BBC4",
"NX c #C0BAC0",
"BX c #BAC3D4",
"VX c #D5CBC4",
"CX c #CED1D2",
"ZX c #D9D8D7",
"AX c #E1DCD7",
"SX c #DBE2DA",
"DX c #D7DAE2",
"FX c #DFE2E5",
"GX c #E8E9EB",
"HX c #F2F2F2",
/* pixels */
") ) ' { 6 3 ) _ > , 5 _ ] 5 3 3 3 3 3 6 _ _ ) 5 [ } 6 2 6 6 5 6 5 , 3 3 6 ) _ 5 5 5 5 6 ) 3 2 3 ",
") ) ' { 6 5 ) _ > 2 5 ' { 6 3 3 5 3 3 6 _ ] _ 5 } O.) 2 6 6 5 6 6 2 3 3 6 _ ' 6 5 5 6 ) _ 5 3 3 ",
"_ ) ] { 6 5 ) ' > 2 6 ' { 6 5 5 5 5 5 ) ] { _ 5 } O.) 2 6 6 6 ) 6 2 5 3 6 _ ] ) 6 6 ) _ { 5 3 5 ",
"_ _ { { 6 5 _ ' , 2 6 ' { 6 5 5 6 6 6 _ { } ' 6 } O.) 3 6 6 6 ) 6 2 5 3 6 ' } ) 6 6 ) ' O.6 5 5 ",
"_ _ { { 6 6 _ [ , 2 6 ] { 6 5 6 6 6 ) _ { O.] 6 O.+.) 3 6 6 ) _ 6 2 5 3 6 ] } ) 6 ) _ ] O.6 5 5 ",
"' _ } ] 6 6 ' [ , 2 6 ' { 6 5 6 ) ) ) _ { } ' 6 O.+.) 3 6 6 ) ) 6 2 5 5 6 ] O._ 6 ) _ ] +.) 6 6 ",
"' _ } ] 6 6 ' ] , 3 6 ' { 6 5 6 ) _ _ ' { } _ 6 O.+.) 3 6 6 6 ) 6 2 5 5 6 ] O._ ) _ ' ] O.) 6 6 ",
"6 5 _ ) 3 5 ) _ > 2 5 ) _ 5 4 0 <.4.3.1.1.1.<.d *.@.X.d <.<.<.-.-.v 9 3 5 ) ' 6 3 5 ) ) ] 6 5 3 ",
"3 2 6 5 2 3 6 ) > 3 5 6 ) 6 9 c.P.XXP.b.r.v s s X.X.d n r.V.J.b.t.D.c.4 3 5 ) 5 2 3 5 6 _ 6 5 3 ",
"2 2 6 5 2 3 6 6 2 ) _ ) 6 ` v {.*X*X*XJ t < = = < 1 1 t t K *XH.f.(. X<.5 5 ) 6 3 3 6 _ _ _ ) 6 ",
"2 3 ) 6 3 6 ) ) 6 ] { _ 6 ` b.(.=X*XS & @ . . . . . . $ < q z |.~.|.|.<.6 6 _ _ ) 5 ) [ { { } _ ",
"2 3 _ ) 5 ) _ ) _ } } _ 6  .S.l.&XZ.- o   . o X o O o . X q = U *X).~.-.) _ [ } [ ) _ O.O.O.O.' ",
"3 5 ' ) 6 _ ' _ } O.} _ ) X.H.~.).m $ X O # # # # # % # o @ q p ).T.~.2.` ' [ +.O._ _ O.+.+.+.} ",
"3 6 [ ) ) [ [ _ +.+.{ ' ` <._.=XQ.: @ & ; y u : : : t : & @ - q Q.&X_.r.X.] ] +.+.' _ O.+.+.+.} ",
"5 ) } ) _ } [ _ +.#.{ ' o.2.^.kXA.- % r u z S Z l p z u r & @ f d._.h.K -.[ ' #.+.} [ O.+.+.+.O.",
"6 ' } _ [ O.} [ #.#.{ ' *.b.^.-Xg.# ; l z S P J J S K n i : # a N ~.d.I <.[ ] #.#.O.} O.#.#.#.+.",
") } O._ } O.} O.#.#.} [ *.K.@X=XU @ u l J K I L L L I u.P j = a N _.^.h.3.[ { #.$.#.O.O.#.#.#.+.",
"_ O.O.' +.O.O.+.$.#.} [ ;.S./.&Xg.* k F I I m.Q ^ m.N.C.u.F t p S _.~.p.:.o.O.+.$.$.+.O.$.#.#.#.",
"' +.O.} #.O.O.$.6.+.O.| 3.H./.&XQ.* l P v.! C.N.^ Q S.A.C.P l a H _.T.d.r.1.+.O.$.6.#.O.$.#.$.$.",
"} #.+.O.#.+.+.6.6.O.O.o.t.l./.@X@X: l I N.N.S.B.^ ^ K.S.C.P p G ^.z.p.w.y.4.+.O.6.6.$.+.$.$.&.&.",
"O.$.+.#.$.#.$.6.6.O.O.1.P.p.R./.#XI j P M.C.K.F./ Q K.S.S.P z s.OXk.q.M M.P.@.O.6.7.6.#.$.$.&.8.",
"#.&.#.$.$.$.6.7.$.} | n.iX/./.#X#X&XL P m.N.B./ ^ A G.H.K.u.N.%X+X^.l.d.wX Xo.+.$.7.7.6.#.6.6.8.",
"%.&.#.7.#.6.7.7.+.O.o.W fX~.^.+X&XQ.s.Z I D.^ L W / ! S.A.P U h.+X^.H.h.wXG.1.#.#.7.9.7.+.6.6.8.",
"&.&.$.7.#.6.9.7.O.O.5.8X=X)._.&XA.S : x I N.v.W c A u.V.N.J = a s.T.l.d._.hXn.+.+.6.9.7.+.6.&.8.",
"%.&.$.6.#.7.9.6.{ @.P.gX_.~.^.+XH X # x m.B.u.x A J S.S.N.z O & M h.^.H._.VX Xo.+.6.9.9.#.$.$.&.",
"+.%.$.#.$.7.7.$.} o.J.yXl.p.a.k.p.X = J ^ C.M.^ ^ Q K.S.u.k # w M i.p.H (.wX( 4.@.$.6.9.6.#.#.%.",
"O.+.#.O.$.6.6.+.} x.8XxXp.p.j.j.h.+ = k K m.C.^ ^ Q S.V.D u % a B d.p.N (.CXMX8X,.#.$.7.6.+.+.+.",
"} O.+.[ #.6.#.} o.8XNXxXp.a.a.p.l.# : J v.N.m.! Q Q (.V.y.x ; w i.h.H M ~.CXZXVX5.@.$.6.$.O.O.O.",
"} } } } #.#.O.| n.2X[.gXT.R.R.R.T.% : L N.S.M.! ^ Q A.M.I l * e T.^.~.~.).7X4XGXc.o.+.#.#.O.} } ",
"' ] ' } #.O.} 1.8X,XxXzXa.z.z.E.R.# r D I S.M.! Q L V.V.D u & e w.d.d.d.h.dX,XCXqX3.@.+.#.O.' _ ",
"_ _ _ } +.}  .n.,X:X2XdXa.k.R.E.R.* r n v.m.N.Q m.I M.M.I k r e C i.p.H s.yX:X4XAXt.1.O.+.O.' ) ",
"6 ) _ } O.| 2.8XDXBX4XtXd.l.R.R.z.# y S I N.M.I m.I V.u.P n ; w w.w.H M H MXDXGXhX Xr.o.O.} ' ) ",
"4 7 _ O.' -.P D.9XuXGXdXa.k.R.R.k.O y x K K D J I J F K S z = q a.l.g.g.h.AXuXqX X~ L.4.| [ [ ` ",
"d d X.| ` n.2X5X5XMXHXwXq.j.z.R.a.o = u n n J S J x I K D u % w q.p.i.w.M AXMX6X5XuXVXP.;.....X.",
"g :.>.=.=. XCXCXDXFXHX0XC a.z.z.i.O ; i D D J z Z x K P D i r w C w.q.M m AXHXFXZXZX7X2Xj.>.>.:.",
"8 -.:.-.0.L.<XDXnX<XGX0XB w.a.l.q.$ r i k n z j x z F r.F k t q B H C M a AXGX5XCXZXZX5Xl.:.g d ",
"7 ` 8 =.>.8X:X2X;X>XGX0XM C a.j.C O ; i n n n k l k n F D i < q M H C m m xX3XZXZXiXHXeXe.d 8 7 ",
") _ ` | ;. XnX1X,X}.pXwXq.q.a.a.q.o * k D n D p j x K F D i ; q B l.T.d.g.xX[.uXGXGXjX/ d 7 ) _ ",
"_ [ _ } ;.i.ZXiXE.W.'.wXV w.p.p.V o @ $ & u i y u u i i r & & & e H B m M lX$XoX>X6X~ / d ` _ [ ",
") ] _ } ,.l.tX1X2XOX2X0XM w.w.w.M @ # # % r t : t y i t = % % & w B N a e gX$X1XT mXeXI 0. ._ } ",
"_ ] ' } >.j./ 2XT >XDX9Xf V w.i.a O % r u n k y y y k k i ; # $ q N N a w pXeX1X5XFXgXw.k.;.| } ",
") ] ' } >.a.W mX4X:XCX0Xf B w.w.e X # : : : y : r ; : y y * O $ w H C m N xXHXyXE 1XgXw.z.>...} ",
") ' _ } ;.0.{.HXHXY.VX].q a M V w o 1 g g s g s t s i s s < @ O w m e - $ pXY.SXBX6XiXy.j.>...} ",
") ' _ } ..d B.mXU.I.I..XG M M C N ^ '..X.X.X.X.X.X}.}.}.{.!.Z.G m a p t - pX~ ~ iX2X( K 0.-.| } ",
") ' _ ] ] 5 h <X+XrX`..XB N C w.S.|.*XsXsXsX*X*XsX*X*X%X|.|.).(.U N m a p pXjXoX7X1XY 9 8 7 _ } ",
") [ _ [ O.6 W MXzXAXVX{.A.g.h.~.tXdXlXlXcXcXcXcXhXhXgXeXwXeX9X9XL.^ ^ ^ ^ '.9X9X9X9XR 9 5 5 _ } ",
"` | ` ` .. .r.XX{.}.G.F.F.'.{. X[.wXwXsXsXsXsXsXaXaXaX{.{..XgX0X]..X.X.XwX9X9X'.F.Z.F.9 0 0  .| ",
"4.t.4.c.:.f D.oXoXaXoXoXfXfXfXfXzXzXzXvXvXvXbXvXbXbXbXwXtXtXdXtXwXtXwX9X.X'.9X'.L.!./ k c.v t.,."
};
