/* XPM */
static char *fe152f9921d04760a903ec45ea306c18[] = {
/* columns rows colors chars-per-pixel */
"48 48 201 2 ",
"   c #6F0C03",
".  c #690F09",
"X  c #740C03",
"o  c #7B0C03",
"O  c #770E0A",
"+  c #6C1C0E",
"@  c #731309",
"#  c #7D1209",
"$  c #7B1A0B",
"%  c #503715",
"&  c #6D291D",
"*  c #752617",
"=  c #7C281A",
"-  c #453732",
";  c #7E2120",
":  c #65322D",
">  c #7C322F",
",  c #5F4217",
"<  c #734C1B",
"1  c #714C1D",
"2  c #6B5021",
"3  c #7F413D",
"4  c #7D663E",
"5  c #103174",
"6  c #673B4F",
"7  c gray31",
"8  c #4E4D52",
"9  c #76454D",
"0  c #754656",
"q  c #6C5C59",
"w  c #785358",
"e  c #577753",
"r  c #7A6745",
"t  c #4C5973",
"y  c #766567",
"u  c #830C02",
"i  c #8C0D02",
"p  c #940E02",
"a  c #9B0E02",
"s  c #82140A",
"d  c #8B1309",
"f  c #88190A",
"g  c #921003",
"h  c #9D1002",
"j  c #931409",
"k  c #9C1509",
"l  c #951E0C",
"z  c #A40E02",
"x  c #AA0E02",
"c  c #B30F01",
"v  c #BB0F02",
"b  c #A41002",
"n  c #AB1002",
"m  c #A31509",
"M  c #A9150A",
"N  c #B41002",
"B  c #BC1102",
"V  c #92290D",
"C  c #862817",
"Z  c #9C2C1B",
"A  c #B5220E",
"S  c #AA2A16",
"D  c #A32F1E",
"F  c #B7301E",
"G  c #872A25",
"H  c #9D2D27",
"J  c #8B312B",
"K  c #97302D",
"L  c #AA332E",
"P  c #C31102",
"I  c #CC1201",
"U  c #D41301",
"Y  c #DB1401",
"T  c #E01501",
"R  c #875133",
"E  c #94743F",
"W  c #8B4D4C",
"Q  c #974E4B",
"!  c #8E554E",
"~  c #955D4D",
"^  c #885152",
"/  c #9B5552",
"(  c #9A5B56",
")  c #9E5E5B",
"_  c #A65B58",
"`  c #88744D",
"'  c #977A48",
"]  c #99625C",
"[  c #917B5A",
"{  c #AA6158",
"}  c #B36A5F",
"|  c #866866",
" . c #AB6B65",
".. c #AD6F69",
"X. c #4E821A",
"o. c #68943D",
"O. c #7A8C5A",
"+. c #8D805F",
"@. c #90825D",
"#. c #A0814D",
"$. c #A88B55",
"%. c #B28E5B",
"&. c #BA9B57",
"*. c #BAA64B",
"=. c #8D816B",
"-. c #998869",
";. c #879769",
":. c #968C79",
">. c #8D957E",
",. c #959678",
"<. c #A38B63",
"1. c #A18C6C",
"2. c #BC9864",
"3. c #B19369",
"4. c #B5996E",
"5. c #A98876",
"6. c #A38D7B",
"7. c #B8887A",
"8. c #A5967C",
"9. c #A8967A",
"0. c #B79B7B",
"q. c #99AF75",
"w. c #A5A379",
"e. c #B7A27B",
"r. c #BBA67E",
"t. c #C59F5B",
"y. c #C29C6A",
"u. c #C2A66C",
"i. c #C9A875",
"p. c #CCAC7E",
"a. c #0D3180",
"s. c #143785",
"d. c #415A9A",
"f. c #4E6187",
"g. c #5F6C8E",
"h. c #7E7D8C",
"j. c #686F91",
"k. c #787691",
"l. c #8A7D88",
"z. c #88828A",
"x. c #988C87",
"c. c #9F9486",
"v. c #90948D",
"b. c #848397",
"n. c #8D9F9C",
"m. c #989699",
"M. c #A49984",
"N. c #A89788",
"B. c #B29587",
"V. c #A59797",
"C. c #A99B96",
"Z. c #B49E98",
"A. c #92A085",
"S. c #99A697",
"D. c #A2A486",
"F. c #AEA287",
"G. c #B5A58A",
"H. c #BBAE8C",
"J. c #A4BA8F",
"K. c #ACA393",
"L. c #ABA19B",
"P. c #BAAD93",
"I. c #B5A59A",
"U. c #B5B69A",
"Y. c #9C9AA3",
"T. c #8A97BA",
"R. c #A89FA3",
"E. c #9CA5AB",
"W. c #97A3B1",
"Q. c #A4A1A3",
"!. c #ACA5A4",
"~. c #B8AAA8",
"^. c #B9B4A9",
"/. c #B0AEB5",
"(. c #AAB2BE",
"). c #B5B6B9",
"_. c #C2AC84",
"`. c #CEB184",
"'. c #C5B18D",
"]. c #CAB18E",
"[. c #D0B181",
"{. c #C7B696",
"}. c #D2BF99",
"|. c #C1AEAD",
" X c #C7B9A8",
".X c #C9BCB6",
"XX c #B9C4BA",
"oX c #CEC1AB",
"OX c #D9C8A6",
"+X c #C9C8BC",
"@X c #D3C6B2",
"#X c #E1CEAD",
"$X c #E4D2AF",
"%X c #E5D4B2",
"&X c #E9D9B7",
"*X c #B7BAC6",
"=X c #B8B9C3",
"-X c #BBC1C5",
";X c #C9C7C5",
":X c #D5CEC4",
">X c #E1DDD7",
/* pixels */
"0.C.Q.).>.c.^./.g.h.z.R.:Xx.:.L.Y.1.3.4.5.Z.~.C.:X+XN.N.&.&.6.V.L.O.;.C.Y.j.j.b.~..X;.,.C.m.D.G.",
"I.V.R.I.K.N.0..Xb.l.z.~.u.6.N.V.g.q | 6.|.^.>.x.U.,.I.V.<.q q l.C.D.$.N.!.b.k.V.~.3.F.c.x.m.Q.Z.",
"( ( ) Q  .Q / } } { ) ] w W _ W 9 _ R 3 ..~ ^ 9 0 ! ~ ] : : Q Q ^ ] 6 / ]  ...{ ) 0 6 ) Q / _ _ ",
"d d s d k k m m m k j s . j k j k k k d s d s @ d j d # @ s k M d s # k # s j k d O O j d j k M ",
"u u X X p a a a a p i u X o u i p p p p i i o   u i u o   o i z p i i i X o u i u X   X i p a a ",
"a i o o x c c c x z a p i i p a z x n N n z i o a a p i u i h N n n x a u u p a p i u u z v N x ",
"x a u i P P I I P c x z a p a x N B P I P N a u n n z a i a n I P P P z i p z x z a p p B U I P ",
"B x i i I U U Y I B N N z z z c B I U U U B b i N N c z p b N U I U U N p h n c x z a a I Y Y U ",
"B x i i U U Y Y I B N N z z x c B I U U U P b i N B N z p b B Y I U U N a h n B c x a a I Y Y U ",
"B x i p U U Y Y I B N N z z x c P I U U U P n p N B N x a b B Y U Y U B a h N B c x a a I T Y Y ",
"B x i p U Y Y Y I B N N z z z c P I U Y U P n p B B N x a b B Y U Y U B a h N P N x z a I T Y Y ",
"B x i p U Y Y Y I v c N z z z N P U Y Y U P n p B B B x a b P Y Y Y U B a b N P B x z a I T Y U ",
"B x i p U Y Y Y I v c N n z z N I U Y Y U P z p B B N x a b P Y Y Y U N p a N P c x z a I T Y U ",
"B x i p U U Y Y I B c N z z z c P I U U U P b p N B N z p b B Y U U U N p a n B c x a a I Y Y U ",
"B x i i I U U Y I B N N z z z c B P I U U P b i N N N z p b B U I U U N a h n B c x a a I Y Y U ",
"B x i i U U Y Y I B N N z z x c B I U U U P n i N B N x p b B Y U Y U B a h n B c x z a I T Y Y ",
"B x i p U U Y Y I B N N z z z c P I U U U P n p N B N x a b B Y U Y U B a h N P v x z a I T Y Y ",
"B x i p U Y Y Y I B N N z z z N P U Y Y U P b p N B N x a b B Y U Y U B a h N P B x z a I T Y Y ",
"B x i p U Y Y Y I B N N x z z N P U Y Y U P n p N B N x a b B Y Y Y U B a h N P v x z a I Y Y Y ",
"B x i p U U Y Y I B c N x z x c P U U Y U P n p N B N x a b B Y U Y U B a h N P v x a a I Y Y U ",
"B x i p U U Y Y I B c N z z x c P I U U U P n i N B N x a b B Y U Y U B a h n B v x a a I Y Y U ",
"B x i p U U Y Y I v N N z z x c P I U U U P n i N B N x a b B Y U Y U B a h n B v x z a I Y Y Y ",
"B x i p U Y Y Y I v N N z z z c P I U Y U P n p N B N x a b P Y U Y U B a h N P v x z a I T Y Y ",
"v x i a U Y Y Y I v N N z z z c P U Y Y Y P n g B P B x a n P T Y Y U B a b N P v x z a I T Y U ",
"c z i p U U Y Y I v N N z a z c P I U U U P b p N B c z p b B Y U U I c p a x v c x z a I T Y I ",
"c z u i U U Y Y I v c N z z z c B I U U U P b i N N x z p z B U I U I c p a x c c x z a I Y Y I ",
"B x i i I U U Y I v N N z z z c B I I U U P b i N N N z p z B U I U U N p a x B c x a a I Y Y U ",
"B x i p U U Y Y I v N N z z x c B I U U U P n i N B N z p b B Y U Y U B a a n B c x a a I Y Y Y ",
"B x i p U U Y Y I v N N z z x c P I U U U P n p N B N x a b B Y U Y U B a h N P v x z a I T Y Y ",
"v x i p U U Y Y I v N N z z z c P I U Y U P b p N B N x a b B Y U Y U N a h N P c x z a I T Y U ",
"c x i p U U Y Y I B c N z z z c P I U Y U P b p N B N z a b B Y U Y U N p a N B c x z a I T Y U ",
"c z i p U U Y Y I B c N z a z c P I U U U B z i N N x z p b B Y U U I c p a x c x z a a I Y Y I ",
"B x i i I U U U I B N N z z z c B P I U U P b i N N N z p a N U I U U N p a n N x z a a P Y Y U ",
"B x i i U U U Y I B N N z z x c B P I U U P b i N B N z p h B U I U U N a h n B c z a a I Y Y U ",
"B x i p U U Y Y I B N N z z x c P I U U U P n i N B N x a b B Y U Y Y B a h n B c x z a I T Y Y ",
"B x i p U U Y Y I B N N z z z c P I U Y U P n g N B N x a b B Y U Y U B a h N P N x z a I T Y Y ",
"v x i p U Y Y Y I B N N z z z c P I U Y U P b p N B N z a b B Y U Y U N p h N B c x z a I T Y U ",
"c x i p U U Y Y I B c N z a z c P I U Y U P b p N B c z a b B Y U U U N p h n N x z a a I Y Y U ",
"v x i p I U Y U I v N N z a z c P I U U U P b i N N c z p b B U U U I N p h n c x z a a I Y Y U ",
"B x i i I U U U I v N N z z z c B P I U U P b i N N N z p b B U I U U N p h n c x z a a I Y Y U ",
"B x i i U U U Y I B N N z z x c P I U U U P b p N B N x p b B Y U Y U N p h n B c x a a I T Y Y ",
"B x i p I I U U I B N n a a z c B P I U U P b i N B N z p b B Y I U U N p h n B c x a p P Y Y Y ",
"x z i p P P P I P N n b p p a x N B P I I B a u n N n a i h N U P P B n g g b n x z a i N I U U ",
"= C G G H J K L S V V G + $ f l f C Z S F D C & Z D Z C = C S A l f $ f @ J * * G G ; > J H S S ",
"q.U.7.B.;X5 s.d.*.J.q.9.1 1 < R ' 2.i.[.`.`.p.p.`.p.i.y.2.2.%.$.4 2 , % % ^.XXu.v.f.5 *Xy 8 m.S.",
"-X~.5.- m.a.W.*XOX>X:X1.' E E #.H.{.oXoX@X@X@X@XoX X XK.K.K.N.M.[ ` r r r =.C.N.M.c.t =X| ).(.E.",
"XXn.T.7 A.w.4.4.<.3.[ ` [ -.1.6.:.G.H.].].].'.'._._._.<.1.9. XN.:.8.8.8.G.M.N.-.` ` w.S.|.).-X^.",
"OXU.E.-Xo.X.r.e.e._.r.0.{.}.}.}.OXOXOX%X#X#X%X$X&X&X&XH.H.P.{.P.G.P.F.N.6.1.M.-.+.@.A.e XXW.+Xt."
};
