/* XPM */
static char *_261c2ae90a74eecbca9721082dbf6a9[] = {
/* columns rows colors chars-per-pixel */
"48 48 252 2 ",
"   c #070607",
".  c #150E0A",
"X  c #151516",
"o  c #380E0B",
"O  c #2D140C",
"+  c #2B1B16",
"@  c #32231C",
"#  c #201F21",
"$  c #2D2C2E",
"%  c #352A27",
"&  c #343439",
"*  c #470B0A",
"=  c #520B0A",
"-  c #5E0909",
";  c #4E1819",
":  c #571315",
">  c #711110",
",  c #4A2023",
"<  c #43372A",
"1  c #50302A",
"2  c #453B3A",
"3  c #743131",
"4  c #396838",
"5  c #4E4A3C",
"6  c #5A463C",
"7  c #4B7634",
"8  c #636531",
"9  c #172C5B",
"0  c #34394D",
"q  c #19386F",
"w  c #04287C",
"e  c #173C7B",
"r  c #233D70",
"t  c #571D41",
"y  c #473F42",
"u  c #39404E",
"i  c #16437B",
"p  c #334A77",
"a  c #474545",
"s  c #574843",
"d  c #545556",
"f  c #6B574B",
"g  c #55784E",
"h  c #786A59",
"j  c #595A64",
"k  c #495672",
"l  c #666668",
"z  c #646174",
"x  c #6C6F74",
"c  c #797776",
"v  c #990E0E",
"b  c #920F10",
"n  c #8A1010",
"m  c #951112",
"M  c #991314",
"N  c #B20F0F",
"B  c #A3120F",
"V  c #BE0E10",
"C  c #A51515",
"Z  c #AB1112",
"A  c #B71415",
"S  c #882C2C",
"D  c #B8272C",
"F  c #C50F11",
"G  c #C51111",
"H  c #CB1413",
"J  c #D41313",
"K  c #DB1413",
"L  c #D51919",
"P  c #E31413",
"I  c #E41C1C",
"U  c #D23132",
"Y  c #E52E2E",
"T  c #A8612B",
"R  c #C9523A",
"E  c #99384B",
"W  c #935346",
"Q  c #AD554C",
"!  c #926F54",
"~  c #A96A56",
"^  c #90586F",
"/  c #887365",
"(  c #8F706D",
")  c #9A7D68",
"_  c #B07268",
"`  c #CA5252",
"'  c #E64645",
"]  c #CC646E",
"[  c #4D8219",
"{  c #56862B",
"}  c #668D3A",
"|  c #578555",
" . c #6E9154",
".. c #749659",
"X. c #64876A",
"o. c #78986A",
"O. c #769271",
"+. c #7DA472",
"@. c #AE8F32",
"#. c #CB9517",
"$. c #D9A21B",
"%. c #C8992A",
"&. c #D5A42B",
"*. c #8D9154",
"=. c #B4924F",
"-. c #B2A456",
";. c #839767",
":. c #91926E",
">. c #958A77",
",. c #97957B",
"<. c #A5887A",
"1. c #AE9171",
"2. c #8FAA6F",
"3. c #8AA577",
"4. c #96A87C",
"5. c #AEA96F",
"6. c #B5A579",
"7. c #C3964F",
"8. c #CBA657",
"9. c #E2AE46",
"0. c #C8AB6A",
"q. c #D2A16F",
"w. c #D4B271",
"e. c #072B84",
"r. c #0D3283",
"t. c #183887",
"y. c #184689",
"u. c #284589",
"i. c #344B87",
"p. c #3B568A",
"a. c #2B4E90",
"s. c #324F93",
"d. c #2A5794",
"f. c #385595",
"g. c #3D6596",
"h. c #455A86",
"j. c #5E5D8E",
"k. c #445D99",
"l. c #496389",
"z. c #586789",
"x. c #5A7887",
"c. c #4B6798",
"v. c #5A739D",
"b. c #676E83",
"n. c #66758B",
"m. c #767B88",
"M. c #667998",
"N. c #435EA0",
"B. c #4869A2",
"V. c #556CA2",
"C. c #4D70A9",
"Z. c #5C77A5",
"A. c #647BA6",
"S. c #697DB1",
"D. c #817E80",
"F. c #DC7D80",
"G. c #7A8788",
"H. c #708D8B",
"J. c #6A8396",
"K. c #78899A",
"L. c #6A83A9",
"P. c #7189AC",
"I. c #798AA8",
"U. c #778AB4",
"Y. c #7A92B7",
"T. c #8A8989",
"R. c #859886",
"E. c #909390",
"W. c #959698",
"Q. c #A99684",
"!. c #B2938B",
"~. c #89A685",
"^. c #96A985",
"/. c #9BB092",
"(. c #A8A789",
"). c #ADB48D",
"_. c #A9A59A",
"`. c #B4B89A",
"'. c #8997A8",
"]. c #979CA4",
"[. c #8797B8",
"{. c #909EB4",
"}. c #99A4A9",
"|. c #8EA4B2",
" X c #99A5B8",
".X c #A6A8A8",
"XX c #A9B6A9",
"oX c #B5B0A8",
"OX c #A6ADB8",
"+X c #ABB3BA",
"@X c #B6B7B9",
"#X c #D08F8C",
"$X c #CCAA8F",
"%X c #ECBD9F",
"&X c #CEB5AD",
"*X c #E3BEA8",
"=X c #E5B6B5",
"-X c #AAC098",
";X c #AFC5A8",
":X c #B8C5AB",
">X c #BAC6B8",
",X c #D9C38F",
"<X c #E7C78D",
"1X c #C8C5A9",
"2X c #C8CAB9",
"3X c #D1CDB5",
"4X c #E5C9B2",
"5X c #F3CCB4",
"6X c #F9D1B8",
"7X c #8E9DC2",
"8X c #8DA3C5",
"9X c #9AA7C4",
"0X c #A4AEC6",
"qX c #AAB6CA",
"wX c #B5BBC8",
"eX c #AFBED3",
"rX c #B5BED3",
"tX c #AFC1CC",
"yX c #BBC2CA",
"uX c #B9C4D5",
"iX c #BBC4D4",
"pX c #C8C9C9",
"aX c #D4CCC4",
"sX c #CCD5C7",
"dX c #D8D7CA",
"fX c #C4CAD7",
"gX c #CACED4",
"hX c #CFD1D3",
"jX c #CDD2DD",
"kX c #D3D4D4",
"lX c #D6DBD4",
"zX c #DBDCD4",
"xX c #D3D5DB",
"cX c #D6D9DC",
"vX c #DBDCDC",
"bX c #E4DCCA",
"nX c #E2DDD8",
"mX c #DDE2D9",
"MX c #E3E3DD",
"NX c #EAE6DC",
"BX c #CED6E1",
"VX c #D2D6E0",
"CX c #D6DAE3",
"ZX c #DBDEE4",
"AX c #DEE1E6",
"SX c #E3E4E4",
"DX c #E8E8E5",
"FX c #E3E5E9",
"GX c #ECECEC",
"HX c #F0F0EF",
"JX c #EEEFF0",
"KX c #F2F2F2",
/* pixels */
"8.>X X>X| O.DXiXe e e OXzXo.7 >X].! #.%.~ !.SXdXnXDX1.=.#.$.*.}.2X[  .bX[.w w u.DXbX} { @X}.^.w.",
":XyX@X&X/.6.0.GXL.d.v.nX8.5./.qXf.& & :.3XsX..oX1X3.dX&X@.< X t.fX).@.w.fXV.s.9XDX=.).3.l {.OX>X",
" XqX+X( wXp J.cXdXAXbXkXK.p iXB.d.].& $ mX3.x.u.V.H.4.zXX X x t.V.wXu.{.2XbXFX,XwXk.t.}.& !.oXwX",
".X.Xj ( fXe l.T.5.XX:.T.p.i iXY.jXFXhXW.mX3.x.t.f.I.;.sXc @XSXiXU.qXe.a.>.5.;X@.V.t.w wX) _ &X3.",
" .+.+XwXiXA.A.OXg g 7 .XY.Y.ZXZXY.'.[.cXGX2X .}. X .`.DXcX[.H.[.vXxXY.Y.>X} { 7  X[.[.9X[. X..} ",
";X).v.i L.AXP.yXmX+.sXBXL.qXFX+. .<.,.J.SX@XmXvXMXmXpXMX{. .<.o.| hXl pXKXlXo.zXKXCXfXk.w p -.;X",
"GX<XI.c.Z.KXZ.i I.HXtXd.d.CX[.X./._ Q.z #XE ` ` ` W S ` f ! Q `.4 A.SXcXT.cXs.L.rXr.[.k.k.'.,XGX",
"hXGXFX'.'.KXFXJ.c._.L.v.iXGXH.) &X#XU A F V V V V V V V V A U #X~ X.kX@XSXZXs.w M.e ZX_.1.nXAXU.",
"p L.bX-.7 ;XeXi h.9.E.y.C.GX[.;.=XD K J J G G G F G G G H J J U Q x.SXT.qXM.-.b.c.qXsX7 5.dXa.r.",
"i i.jXsX| | Y.f.6.9.w.L.B.fXCX.XF.U Y I P P P P P P P P P P P J Q oXKXFXs.>.$.$._.GX;.{ :XjXt.e.",
"r c.zX,X| >XFXAX XE.+XFXKXKXKXnX] ' ' I P P P P P P P P P P P K ' =XHXKXiX@X-.b.c.|.lX} -.dXZ.t.",
"K.gXNX,.XXKXyXpXjXC.9XGXiXZXCX=X` ' Y I P P P P P P P P P P P K U #XxXrXZXGXB.e.M.e fX}.m.jXbXwX",
"MX<X+XZ.Z.cXZXvXl FXKXZXd.g.f.!.' Y I P P P P P P P P P P P P P L E i.r.rXKXk.S.jXs.L.S.f.z.8.zX",
";X-.J.a.Z.+XhXFXSXKXKXJXZ.6.$X_ Y I I P P P P P P P P P P P P P L R 1.a.xXKXCXAXvXSXjXU.t.p.5.o.",
"o.~.fXeXfXHXqXK.K.qXKXJXZ.(.4X_ Y I P P P P P P P P P P P P P P J ` q.h.CXKXfXL.X.U.lXZXqXrX-X{ ",
"XXFX8XP.AXXX| Q._.].AXKXcXW.z.Q Y I P P P P P P P P P P P P P P K D ^ pXGXJXOX;.!  .| xXP.a.9X2X",
"pXZ.d.8XCXJ.XXaXHXGXeX0XFXZXj.E Y I P P P P P P P P P P P P P P K A !.GXwXU.jXGXDX`...S.jXf.i._.",
"6.d k cX+XE.~ GX8Xd.c.Q.z.c.=X' I P P P P P P P P P P P P P P P P J ^ u.1.z.u.u.GXQ 1.~.SXl . T ",
"8.(.u W.iXR.<.fXAXZ.(.bX@Xt.^ Y P P P P P P P P P P P P P P P P J N t M.NX1Xh.fX0X4.3.[..X  6 T ",
"0.w.d d cXwXZ.[.CXY.m.$X'.I.T.; > n > > M A Z Z B B B B B b - = * o y z W.1.c.HXwXM.'.vXT.a 6.@.",
"6.#XDXmXGXKXkXGXKXFXgX{.f.k.l . + + + + , @ O O O O O O @ , % % @ + $ r V.fXSXGXKXhXSXGXdXlX&X~ ",
"Q.aXsX~.:XHXx ZXKXjXgXiXiXgXj < ! ) ) >.Q.<.h h / / / / Q.$X$X$X1.! 5 G. XpXqXZXGXj pX:X;.;.sX!.",
"aXsX^.{.R.>XkXJXfXc.Q.z.r.A.l 1 q.4X5X5X5X5X5X5X5X5X5X5X5X5X5X5X%X1.s 9 t.1.b.V.fXhXSX .l.n.;.SX",
"pX1X'.i.M.aXnX[.u.oXaXaX_.wXT.s ) *X6X6X6X6X6X6X6X6X6X6X6X6X6X6X$X! h T.pXMXdX'.f.cXNXOXs.c.2XnX",
"aXaXA.B.qXvXcXB. XdXnXpX+XvX0Xj s !.5X6X6X6X6X6X6X6X6X6X6X6X6X5X>.2 W._.3XbX&Xf.Z.SXzXI.u.v.1XnX",
"lX4.z Z.O.lXkXiXB.n.(.a.t.rX@Xd . % !.5X6X6X6X6X6X6X6X6X6X5X4X/   % z w p.6.p.9XAXoXzX .'.R./.MX",
"!.dX4...`.vXj GXVX XwX{.iXhXh > b 1 / $X*X*X*X*X*X*X*X*X*X!.s . = v 3 m. XpXiXGXGXa kX:X3.`.zX<.",
"! &XlXsXDXSXpXGXGXFXjXL.p.j 3 N G n o < 6 6 6 6 6 6 6 6 2 +   * Z H M , z.yXZXGXGXgXSXGXsXlX$X7.",
"%.0.l T.SX XP.wXGXL.,.G.k 2 > P L C > o * - - - - - - - - * * > D K G : f c V.FX'.p. XcXl $ =.&.",
"#.8   W.9X^.(.{.ZXp.2X@Xx 0 S J A S C m Z K P P P P P P J v Z S 3 H A 3 / >.k jXiX/ O.0X@X$ f &.",
"@.# a cXXX>.W HXs.u.n.% $ / _ D m - B b Z K P P P P P P J v Z n * C Q _ f 0 9 A.GXW Q.'.SXm.u =.",
"(.l.c.xXU.3.`.GXZXiXZ.$ 5 ) $X~ > - B b Z K P P P P P P J m Z b o 3 _ $X6 j E.GX&X).X.iXqXy.B.gX",
"pX[.t.A.jX+.} ! ^.}.GXa s ) $X! : b G b Z K P P P P P P J m Z G > , _ $Xf c x ^.<.g ~.SXU.Y.CX:X",
" ./.qX9XCXlXI.H.J.wXHXW.p h f < * N K b Z K P P P P P P J m Z P v O 1 f c @X}.K.H.{.DXgXqXiX~.g ",
"-X*.z.u.L.ZXFXgXVXAXGXjXi.h 6 # * N K b Z K P P P P P P J m Z P v O < 0 .XSXGXAXzXkXT.L.y.z.=./.",
"mX8.z s.V.[.f.VX7XN.FXfXt.p p l ; N K b Z K P P P P P P J v Z P v + 0 q iXGXFXG.hXcXcXL.Z.OX<XSX",
"fX3XgXM.'.fXt.M.e.f.FXFXqXjXxXT.; Z J v N K P P P P P P J M Z K v 1 ].rXFXqXB.cXkX.XKXXX,.zXfXI.",
"i.P.zX0.} 2X9Xl.h.1.@XfXHXKXGXW., m Z Z H L H H J J J H L A C Z m s oXGXSX+X>.|.FXGX>Xg `.dXh.q ",
"t.r.gX2X .} GX.X%.#.:.s.CXKXfXK.( : v S S 3 = = = = = : S S M b 1 T.wXc.L.0.&.6.p.L.g g pXcXp r ",
"t.u.kX`.[ 4.jXc.m.7.b. XE.cXA.O..X% 3 s 2 a d u j 0 D.c $ y 3 , % n.FXc.y.>.9.z.e qX>X7 -.4XI.p ",
"Z.wXnX-.(.FXf.x.w f.CXSX.XkXX.) _.l a a a x pXZ.u.iXSXhX& & a 2 2 x SXyXx.M._.l.J.AXKX].K.CXMXcX",
"GX,XwXc.f.9Xe.0XV.u.jXc hXSXA.7 /.W @   l a @XSXgXpXl kXz %   5 X.[.CXa.h.tXKX{.p c.KXM.l.n.w.nX",
"sX-.k r.f.iXiXKXGXo.sXKXkXd cX....1.;.K.AXhXMXmXzXMXhXSXH.,.Q.o.3.FXrXP.BX2XO.mXiXI.ZXM.q l.(.~.",
"2.{ '.A.[.9X9XqX..[ { :X8X[.jXZX[.x.[.jXGX1X .}.OX..2XDXcX{.W.[.AXAX[.I..Xg g g .XM.M.iX+X.XO.g ",
"4.`.1.Q.pXw t.k.-.).2.,.u.r.9X[.iXSX@Xl dX2.K.k.a.J.2.mXx @XSXxX[.fXi l.,.5.>X0.E.l.q wXh d W._.",
"rXoXQ.2 W.w k.0X,XDXbX1X Xu.0XV.r.x .   lX).G.A.i.x 4.MX& $ T.i.Z.gXp '.cXbXAXbXZXm.k wX( @X+X}.",
">XW.[.a ^.4.=.DXrXB.A.jX,X@.4.fXt.X < @.$XzX^.1X`.o.dX&X1.s & p iX^.6.w.vXM.p.I.GXw.5.^.&X@XwX`.",
"1X`.}.pX} [ 3XNXf.e.e.[.bX..[ :X X! &.$.7._ nXMXzXNX1.=.#.#.=.OXXXg /.DXOXp e u.jXGXR.g >X X2X8."
};
