/* XPM */
static char *_2d2003cae3a46a990423aa2d0fac138[] = {
/* columns rows colors chars-per-pixel */
"48 48 210 2 ",
"   c #78240A",
".  c #5D4014",
"X  c #694A17",
"o  c #655719",
"O  c #724928",
"+  c #6A5225",
"@  c #5F7A26",
"#  c #586F28",
"$  c #677F2E",
"%  c #78722C",
"&  c #606433",
"*  c #667D34",
"=  c #677942",
"-  c #6D6D6D",
";  c #7C7C7C",
":  c #747474",
">  c #832E0C",
",  c #862E16",
"<  c #8D3B13",
"1  c #883518",
"2  c #993C16",
"3  c #9C3C1A",
"4  c #943314",
"5  c #94380D",
"6  c #823C25",
"7  c #9F461A",
"8  c #86511E",
"9  c #A84B1B",
"0  c #B3561F",
"q  c #844A24",
"w  c #9D4425",
"e  c #994928",
"r  c #945728",
"t  c #9A4D34",
"y  c #934833",
"u  c #885A3B",
"i  c #9D5434",
"p  c #995339",
"a  c #A34926",
"s  c #B44F28",
"d  c #AC5727",
"f  c #BE5D21",
"g  c #B6572A",
"h  c #A1543B",
"j  c #B45F3A",
"k  c #B65C38",
"l  c #BB6632",
"z  c #BA683D",
"x  c #AE6B34",
"c  c #C15E19",
"v  c #D25F1F",
"b  c #C55D28",
"n  c #C76723",
"m  c #D47529",
"M  c #CA6C3C",
"N  c #C36936",
"B  c #D16534",
"V  c #CB7334",
"C  c #C6793A",
"Z  c #D57E35",
"A  c #D66A2D",
"S  c #9F5943",
"D  c #9B5F51",
"F  c #9B6A47",
"G  c #977646",
"H  c #9C6A55",
"J  c #8B784D",
"K  c #A5674A",
"L  c #B26742",
"P  c #BE734C",
"I  c #AB6F5A",
"U  c #AC7557",
"Y  c #B47357",
"T  c #B17F5F",
"R  c #807F7F",
"E  c #AD7B6C",
"W  c #AA7263",
"Q  c #B27E6A",
"!  c #A87B72",
"~  c #CA7F4D",
"^  c #C67A42",
"/  c #D17E43",
"(  c #CB7C59",
")  c #70892D",
"_  c #7F893D",
"`  c #778B39",
"'  c #7E973D",
"]  c #768A4A",
"[  c #748848",
"{  c #7C9246",
"}  c #7B8C52",
"|  c #7A8859",
" . c #6D8346",
".. c #7E8C61",
"X. c #CD803D",
"o. c #DB853A",
"O. c #E2802B",
"+. c #819849",
"@. c #848759",
"#. c #958C5E",
"$. c #86965D",
"%. c #8A9C5C",
"&. c #879A5A",
"*. c #8DA44F",
"=. c #898F64",
"-. c #9A8669",
";. c #85946B",
":. c #8D9D6B",
">. c #879565",
",. c #899673",
"<. c #8F9C77",
"1. c #B18362",
"2. c #B88567",
"3. c #AE8878",
"4. c #B58977",
"5. c #B1997C",
"6. c #95A669",
"7. c #99A37B",
"8. c #98A276",
"9. c #9EB172",
"0. c #A4A87D",
"q. c #A6B777",
"w. c #D98742",
"e. c #D88947",
"r. c #D4915A",
"t. c #D38657",
"y. c #E08C48",
"u. c #E69347",
"i. c #C88B6B",
"p. c #CD936E",
"a. c #D89365",
"s. c #D59467",
"d. c #DC9C75",
"f. c #E39565",
"g. c #818181",
"h. c #8F8F8F",
"j. c #9A9480",
"k. c #949494",
"l. c #9B9B9B",
"z. c #979898",
"x. c #B18A80",
"c. c #BE968A",
"v. c #B79D93",
"b. c #9CA685",
"n. c #A2AF89",
"m. c #B0A98D",
"M. c #A9B28C",
"N. c #ABB596",
"B. c #B2BA9B",
"V. c #B9A792",
"C. c #A7A7A7",
"Z. c #AEAEAE",
"A. c #A7A7A8",
"S. c #B6BDA3",
"D. c #BBBBB2",
"F. c gray72",
"G. c #C99988",
"H. c #C0A78C",
"J. c #DBA982",
"K. c #C9A697",
"L. c #D8B195",
"P. c #C8B8A9",
"I. c #D2B7AA",
"U. c #D9BBA5",
"Y. c #D0BEB4",
"T. c #D9BDB2",
"R. c #D1BEB9",
"E. c #B8C29B",
"W. c #BBC3A4",
"Q. c #BCC4A9",
"!. c #BEC3B2",
"~. c #C4D298",
"^. c #C1C9AF",
"/. c #DBC0AA",
"(. c #C1C7B5",
"). c #C5CBB4",
"_. c #C9CBBF",
"`. c #C3C7B9",
"'. c #D3C2BD",
"]. c #D6C9BC",
"[. c #CDD2BD",
"{. c #E1C4AE",
"}. c #CECCC1",
"|. c #CACBC7",
" X c #D5C5C1",
".X c #DBCBC4",
"XX c #D6CCCA",
"oX c #CED2C4",
"OX c #D0D5C5",
"+X c #D2D4CC",
"@X c #DCD2CF",
"#X c #D4D4D4",
"$X c #DDD4D2",
"%X c #D6D8D2",
"&X c #DBDCD5",
"*X c #DCDED9",
"=X c #E3D9D4",
"-X c #E4DDDA",
";X c #E9D8CD",
":X c #DCE0CF",
">X c #DFE1DB",
",X c #DFE0D7",
"<X c #E1E4D6",
"1X c #E1E2DC",
"2X c #E5E8DE",
"3X c #E6E6E6",
"4X c #E7E8E7",
"5X c #E8E8E7",
"6X c #EAEAEA",
"7X c #E8E7E7",
/* pixels */
"z.h.k.k.h.h.h.k.k.k.z.z.z.z.z.z.k.z.z.z.z.z.z.z.k.k.k.z.z.z.z.z.z.z.z.z.z.z.z.z.z.z.z.z.z.l.A.- ",
"k.h.Z.Z.Z.Z.Z.Z.Z.Z.Z.Z.Z.Z.Z.Z.Z.Z.Z.Z.Z.Z.Z.Z.Z.Z.Z.Z.Z.Z.Z.Z.Z.Z.Z.Z.Z.Z.Z.Z.Z.Z.Z.Z.Z.A.F.: ",
"k.A.6X6X6X6X6X6X6X6X6X6X6X6X6X6X6X6X6X6X6X6X6X6X6X6X6X6X6X6X6X6X6X6X6X6X6X6X6X6X6X6X6X6X6X3X#X: ",
"z.A.6X7X7X7X7X7X7X6X6X6X6X6X6X6X7X7X7X7X7X7X7X7X7X7X7X7X7X7X6X6X6X6X6X6X6X6X6X6X6X7X7X7X7X3X#X; ",
"z.A.6X7X7X7X7X7X6X6X6X6X6X6X6X4X7X7X7X7X7X7X7X7X7X7X7X7X7X6X6X6X6X6X6X6X6X6X6X6X6X7X7X7X7X3X#X; ",
"z.A.6X7X7X7X7X6X6X6X6X6X6X6X7X7X7X7X7X7X7X7X7X7X7X7X7X7X6X6X6X6X6X6X6X6X6X6X6X6X7X7X7X7X7X3X#X; ",
"z.A.6X7X7X7X7X6X6X6X6X6X6X7X7X7X7X7X7X7X7X7X7X7X7X7X7X7X6X6X6X6X6X6X6X6X6X6X7X7X7X7X7X7X7X3X#X; ",
"z.C.6X7X7X6X6X6X6X6X6X6X7X7X7X7X7X7X7X7X7X7X7X7X7X7X6X6X6X6X6X6X6X6X6X6X6X6X7X7X7X7X7X7X7X3X#X; ",
"z.C.6X7X6X6X6X6X6X6X6X7X7X7X7X7X7X7X7X7X7X7X7X7X>X1X6X6X6X6X6X6X6X6X6X6X6X7X7X7X7X7X7X7X7X3X#X; ",
"z.C.6X6X6X6X6X6X6X6X7X7X7X7X7X7X7X7X7X7X7X7X7X7Xb.M.,X6X6X6X6X6X6X6X6X6X7X7X7X7X7X7X7X7X7X3X#X; ",
"z.C.6X6X6X6X6X6X6X7X7X7X7X7X7X7X7X7X7X7X7X7X5X7X$.} [.6X6X6X6X6X6X6X7X7X7X7X7X7X7X7X7X7X7X3X#X; ",
"z.C.6X6X6X6X6X6X7X7X7X7X7X7X7X7X7X7X7X7X7X7X6X6X6.= W.6X6X6X6X6X6X7X7X7X7X7X7X7X7X7X7X7X6X3X#X; ",
"l.C.6X6X6X6X6X7X7X7X7X7X7X7X7X7X7X7X7X7X7X6X6X1X%.=.M.6X6X6X6X6X4X7X7X7X7X7X7X7X7X7X4X6X6X3X#X; ",
"l.C.6X6X6X6X7X7X7X7X7X7X7X7X7X7X7X7X7X7X>XOX^.0.@.m.0.1X6X6X6X7X7X7X7X7X7X7X7X7X7X7X6X6X6X3X#X; ",
"l.C.6X6X6X7X7X7X7X7X7X7X7X7X7X7X7X7X7XoXB.%.] % u H J ].=X;X=X3X7X7X7X7X7X7X7X7X6X6X6X6X7X3X#X; ",
"l.C.6X6X6X7X7X7X7X7X7X7X7X7X7X7X7X7X[.{ @ = #.^ 2   X 1.a.f.d.T.-X7X7X7X7X7X7X6X6X6X6X4X7X3X#X; ",
"l.C.6X7X7X7X7X7X7X7X7X7X7X7X7X7X1XQ.$  .,.H.r.m 5 1 O q k M M z 4.XX3X7X7X7X6X6X6X6X6X7X7X3X#X; ",
"z.C.6X7X7X7X7X7X7X7X7X7X7X7X7X7X).:.,.`._.2.Z c < 6 -.u 1 , 4 2 w H P.7X3X3X6X6X6X7X7X7X7X3X#X; ",
"z.C.6X7X7X7X7X7X7X7X7X7X7X7X7X%X!.7X6X_.& r / 0 < o @.8.v.6 1   a a K 3X6X6X6X6X6X7X7X7X7X3X#X; ",
"z.C.6X7X7X7X7X7X7X7X7X7X7X7X6X6X6X6X&X:.o z t.7 F _ ` =.}.XXD t , , y '.6X6X6X6X7X7X7X7X7X3X#X; ",
"z.C.6X7X7X7X7X7X7X7X7X7X7X7X6X6X6X%X:.} G k j 6 3.G x G P.$X'.v.! ! x.$X6X6X7X7X7X7X7X7X7X3X#X; ",
"l.C.6X7X7X7X7X7X7X7X7X7X6X6X6X6XOX7.N.oXV.p q . i Z o.r G Y P Y K.$X5X6X6X6X7X7X7X7X7X7X7X3X#X; ",
"l.C.6X7X7X7X7X7X7X7X7X6X6X6X6X5XB.n.&XS.7.-.% X l u.w.r q g b 9 i c.$X6X6X7X7X7X7X7X7X7X7X3X#X; ",
"l.C.6X6X7X7X7X7X7X7X7X6X6X6X6XOXN.W.&.>.$.N._ 8 e.o.N F r V n d 9 w Q 3X7X7X7X7X7X7X7X7X7X3X#X; ",
"l.C.6X7X7X7X7X7X7X6X6X6X6X6X4X+XE.' = b.] B.#.C O.V L Y.j.x X.C N g w K.3X5X7X7X7X7X7X7X6X3X#X; ",
"l.C.6X7X7X7X7X7X6X6X6X6X6X6X6X:X*.* B.| [ 7.5.V n d 2.$X5.=.L.a.^ g 2 S .X5X7X7X7X7X6X6X6X3X#X; ",
"l.C.6X7X7X7X7X6X6X6X6X6X6X6X2X~.+.>.%... .@.T f d U K.K.K @.=XU.p.z 3 y '.5X7X7X7X7X6X6X6X3X#X; ",
"l.C.6X7X7X7X7X6X6X6X6X6X6X<X~.*.7.n.# S.[ | 4.a I I.J.l 1 + P./.{.K.E 4.$X5X7X7X6X6X6X6X6X3X#X; ",
"l.C.6X7X7X6X6X6X6X6X6X6X,X9.+.N.).%.| +X} ;.}.P.Y.J.w.9 > O U e.u.a.K.&X7X7X7X6X6X6X6X6X6X3X#X; ",
"l.C.6X7X6X6X6X6X6X6X6X>Xq.6.|.7XW.) D.+X= ;.%X7X.Xe.m 7   D.r N v A N T.7X7X6X6X6X6X6X6X6X3X#X; ",
"l.C.6X6X6X6X6X6X6X6X3X).W.>X7X1X9.` *X>Xb.;.%X7XI.~ l e v.7Xu a s b B ( ].7X6X6X6X6X6X6X6X3X#X; ",
"z.C.6X6X6X6X6X6X6X6X6X>X7X7X7XoX{ &.7X3XQ.<.%X7XQ j a E $X7X1.I t a s j G.-X6X6X6X6X6X6X6X3X#X; ",
"z.C.6X6X6X6X6X6X6X6X6X6X6X7X3XB.* N.7X7X&X(.*X6X3.h E $X7X4.e.~ 4.W p S c.-X6X6X6X6X6X6X6X3X#X; ",
"z.C.6X6X6X6X6X6X6X6X6X7X7X7X&X:.| +X7X7X7X1X4X6X$XR.@X7X7Xt u.w.2. X X X=X6X6X6X6X6X6X6X6X3X#X; ",
"z.C.6X6X6X6X6X6X6X6X7X7X7X7XoX] b.3X7X7X7X6X6X6X7X7X7X7X7Xe y.o.Q &X6X6X6X6X6X6X6X6X6X6X7X3X#X; ",
"k.C.6X6X6X6X6X6X6X6X7X7X7X7X(.>.+X7X7X6X6X6X6X6X7X7X7X7X7XK V o.2.-X6X6X6X6X6X6X6X6X6X7X7X3X#X; ",
"k.C.6X6X6X6X6X6X6X7X7X7X7X1X`.!.7X7X6X6X6X6X4X7X7X7X7X7X7XK.g m p.-X6X6X6X6X6X6X6X6X7X7X7X3X#X; ",
"k.C.6X6X6X6X6X6X7X7X7X7X7X7X>X3X7X7X6X6X6X4X7X7X7X7X7X7X7X&Xe f i.-X6X6X6X6X6X6X6X7X7X7X7X3X#X; ",
"k.C.6X6X6X6X7X7X7X7X7X7X7X7X7X7X6X6X6X6X7X7X7X7X7X7X7X7X7X5X3.9 i.-X6X6X6X6X6X6X7X7X7X7X7X3X#X; ",
"k.C.6X6X6X6X7X7X7X7X7X7X7X7X7X4X6X6X6X6X7X7X7X7X7X7X7X7X6X6X@XK..X6X6X6X6X6X6X7X7X7X7X7X7X3X#X; ",
"k.C.6X6X7X7X7X7X7X7X7X7X7X7X4X6X6X6X7X7X7X7X7X7X7X7X7X6X6X6X6X6X6X6X6X6X6X6X7X7X7X7X7X7X7X3X#X; ",
"k.C.6X7X7X7X7X7X7X7X7X7X7X7X6X6X6X7X7X7X7X7X7X7X7X7X6X6X6X6X6X6X6X6X6X6X6X7X7X7X7X7X7X7X7X3X#X; ",
"z.C.6X7X7X7X7X7X7X7X7X7X6X6X6X6X7X7X7X7X7X7X7X7X7X6X6X6X6X6X6X6X6X6X6X4X7X7X7X7X7X7X7X7X7X3X#X; ",
"z.C.6X7X7X7X7X7X7X7X7X7X6X6X6X4X7X7X7X7X7X7X7X7X6X6X6X6X6X6X6X6X6X6X6X7X7X7X7X7X7X7X7X7X7X3X#X; ",
"z.C.6X7X7X7X7X7X7X7X7X7X7X7X7X7X7X7X7X7X7X7X7X7X6X6X6X6X6X6X6X6X6X6X7X7X7X7X7X7X7X7X7X7X7X3X#X; ",
"l.C.3X3X3X3X3X3X3X3X3X3X3X3X3X3X3X3X3X3X3X3X3X3X3X3X3X3X3X3X3X3X3X3X3X3X3X3X3X3X3X3X3X3X3X3X#X; ",
"A.F.#X#X#X#X#X#X#X#X#X#X#X#X#X#X#X#X#X#X#X#X#X#X#X#X#X#X#X#X#X#X#X#X#X#X#X#X#X#X#X#X#X#X#X#X|.; ",
"; g.g.g.g.g.g.g.g.g.g.g.; ; ; ; ; ; ; ; ; ; ; ; ; ; ; ; ; ; ; ; ; ; ; ; ; ; ; ; ; ; ; ; ; ; ; - "
};
