/* XPM */
static char *e1a7ad3976704836a197c79307707410[] = {
/* columns rows colors chars-per-pixel */
"48 48 159 2 ",
"   c #4E4E4E",
".  c #5D5D5D",
"X  c #5F5F60",
"o  c #656565",
"O  c #6B6B6C",
"+  c #6F6F70",
"@  c #6F7172",
"#  c #737474",
"$  c #75767A",
"%  c #78777C",
"&  c #757B7B",
"*  c #7D7D7D",
"=  c #807F7F",
"-  c #777F81",
";  c #7D7D81",
":  c #807F84",
">  c #7E8A8B",
",  c #7E9092",
"<  c #45BDCB",
"1  c #4BBDCB",
"2  c #5BBBC7",
"3  c #53BDCB",
"4  c #62BAC6",
"5  c #65BEC9",
"6  c #4BC0CC",
"7  c #52C2CE",
"8  c #59C4D0",
"9  c #64C4CF",
"0  c #69C0CA",
"q  c #74C3CD",
"w  c #7AC6CE",
"e  c #61C6D2",
"r  c #68C6D1",
"t  c #67C9D3",
"y  c #6ECBD4",
"u  c #74CDD6",
"i  c #79CDD7",
"p  c #7ECED9",
"a  c #7BD0D8",
"s  c #838383",
"d  c #85868A",
"f  c #818889",
"g  c #8B8B8B",
"h  c #829295",
"j  c #8D9596",
"k  c #86989A",
"l  c #8E989D",
"z  c #939393",
"x  c #969599",
"c  c #979898",
"v  c #9A9A9A",
"b  c #87A3A7",
"n  c #94ABAE",
"m  c #9DADAE",
"M  c #94AEB1",
"N  c #8CB1B6",
"B  c #91B3B7",
"V  c #98B4B7",
"C  c #97B3B8",
"Z  c #9BB4B8",
"A  c #A6A6A6",
"S  c #A7A7A8",
"D  c #A7A9AA",
"F  c #AEAEAE",
"G  c #AEB4B5",
"H  c #A1B7BA",
"J  c #A5B9BB",
"K  c #ABBABC",
"L  c #B4B4B5",
"P  c #B6B7B9",
"I  c #B4BCBE",
"U  c #BCBCBC",
"Y  c #8BBBC1",
"T  c #94BBC0",
"R  c #C1BFC1",
"E  c #80C8CF",
"W  c #9DC1C6",
"Q  c #92C7CC",
"!  c #9FC4C9",
"~  c #9DCACF",
"^  c #86CAD0",
"/  c #8CCCD2",
"(  c #93CED4",
")  c #9DCED4",
"_  c #82D3DA",
"`  c #8BD5DC",
"'  c #9CD1D7",
"]  c #92D6DD",
"[  c #9CD6DD",
"{  c #97D9DF",
"}  c #9FD9DF",
"|  c #A2C2C8",
" . c #AAC7C8",
".. c #BBC0C2",
"X. c #A8CDD2",
"o. c #A3D3DA",
"O. c #AAD5DA",
"+. c #B6D1D2",
"@. c #B2D6DA",
"#. c #B4D9DD",
"$. c #BBDBDE",
"%. c #9FDBE2",
"&. c #A3DBE3",
"*. c #ACDFE6",
"=. c #ACE0E5",
"-. c #B4E2E5",
";. c #B2E2E8",
":. c #C3C3C3",
">. c #C3CDCE",
",. c #CCCCCC",
"<. c #C5CED0",
"1. c #CECFD0",
"2. c #D1CFD1",
"3. c #CCD4D6",
"4. c #C3D7D9",
"5. c #C1DDDE",
"6. c #CDD9DB",
"7. c #D3D3D3",
"8. c #D0D0D1",
"9. c #D5D5D5",
"0. c gray84",
"q. c #D6D5D6",
"w. c #D3D3D3",
"e. c #D9D9D9",
"r. c gray86",
"t. c #D9D9DA",
"y. c #DDDDDD",
"u. c #DCDCDD",
"i. c #DDDDDE",
"p. c #DCDEDE",
"a. c #DDDEDF",
"s. c #DDDFDF",
"d. c #DDDEDE",
"f. c gray87",
"g. c #DFDFDF",
"h. c #DCDCDC",
"j. c #C1DDE0",
"k. c #C4DEE1",
"l. c #DFDFE0",
"z. c #DDE0E1",
"x. c #E1E1E1",
"c. c #E3E3E3",
"v. c gray90",
"b. c #E4E4E4",
"n. c #E6E6E6",
"m. c #E7E7E7",
"M. c #E6E6E7",
"N. c #E5E6E6",
"B. c #E5E5E5",
"V. c gray91",
"C. c #E9E9E9",
"Z. c #EAEAEA",
"A. c gray92",
"S. c gray93",
"D. c #EEEEEE",
"F. c #EAEAEA",
"G. c #F3F3F3",
"H. c gray94",
"J. c #F4F4F4",
/* pixels */
"v g z z g g g z z z c c c c c c z c c c c c c c z z z c c c v c c c c c c c c c c v v v v v S O ",
"z g F F F F F F F F F F F F F F F F F F F F F F F F F F F F F F F F F F F F F F F F F F F S U # ",
"z S A.A.A.A.A.A.A.A.A.A.A.A.A.A.A.A.A.A.A.A.A.A.A.A.A.A.A.A.A.A.A.A.A.A.A.A.A.A.A.A.A.A.A.x.0.% ",
"c S A.m.m.m.m.m.m.A.A.A.A.A.A.A.m.m.m.m.m.m.m.m.m.m.m.m.m.m.A.A.A.A.A.A.A.A.A.A.A.m.m.m.m.x.0.* ",
"v S A.m.m.m.m.m.A.A.A.A.A.A.m.0.:.F F F F F F F F F F F F F F F L :.r.A.A.A.A.A.A.m.m.m.m.x.0.% ",
"v S A.m.m.m.m.A.A.A.A.A.A.m.f.U v d d d d d d d d d d d d d d d z v :.f.A.A.A.A.m.m.m.m.m.x.0.% ",
"v S A.m.m.m.m.A.A.A.A.A.A.x.7.c s d d g g g g g g g g g g g g g g g v U A.A.m.m.m.m.m.m.m.x.0.% ",
"c S A.m.m.A.A.A.A.A.A.m.f.U z v F U :.,.,.,.,.,.,.,.,.,.,.,.,.,.:.:.F S U r.m.m.m.m.m.m.m.x.0.% ",
"c S A.m.A.A.A.A.A.A.A.m.7.A o v :.r.m.A.A.D.D.D.D.D.D.D.D.D.D.A.m.x.U v x ,.m.m.m.m.m.m.m.x.0.% ",
"v S A.A.A.A.A.A.A.A.m.m.,.z   S ,.0.f.x.m.G.G.J.J.J.J.J.J.J.G.A.m.m.U v * :.m.m.m.m.m.m.m.x.0.% ",
"v S A.A.A.A.A.A.A.m.m.m.,.z   S ,.0.f.m.m.3.<.>.>.>.>.>.>.>.1.f.m.x.U v * :.m.m.m.m.m.m.m.x.0.% ",
"v S A.A.A.A.A.A.m.m.m.m.,.z   S ,.0.f.z.6.! Y Y Y Y Y Y Y T K ,.r.f.U v * :.m.m.m.m.m.V.A.x.0.% ",
"v S A.A.A.A.A.m.m.m.m.m.,.z   S ,.0.f.3.| 5 3 1 1 1 1 1 1 4 Z L R 7.L v * :.m.m.m.m.A.A.A.x.0.% ",
"v S A.A.A.A.m.m.m.m.m.m.,.z   S ,.0.f.@.q 3 < < < < < < < 2 C G U 7.L v * :.m.m.m.m.A.A.A.x.0.% ",
"v S A.A.A.m.m.m.m.m.m.m.,.z   S ,.0.f.O.r 1 < < < < < < < 2 C G U 2.L v * :.m.m.A.A.A.A.m.x.0.% ",
"v S A.A.A.m.m.m.m.m.m.m.,.z   S ,.0.f.O.9 1 < < < < < < < 2 C G U 2.L v * :.m.A.A.A.A.A.m.x.0.% ",
"v S A.m.m.m.m.m.m.m.m.m.,.z   S ,.0.f.O.9 1 < < < < < < < 2 C G U 2.L c * :.A.A.A.A.A.m.m.x.0.% ",
"v S A.m.m.m.m.m.m.m.m.m.,.g   S ,.0.f.O.9 1 < < < < < < < 2 C G U 2.L c * :.A.A.A.m.m.m.m.x.0.% ",
"v S A.m.m.m.m.m.m.m.m.m.,.z   S ,.0.f.O.r 6 < < < < < < < 2 C G U 2.L v * :.A.A.A.m.m.m.m.x.0.% ",
"v S A.m.m.m.m.m.m.m.m.m.,.z   S ,.0.f.O.r 7 6 6 6 6 6 6 6 2 V G U 7.L v * :.A.A.m.m.m.m.m.x.0.% ",
"v S A.m.m.m.m.m.m.m.m.m.,.z   S ,.0.f.O.y 7 7 7 7 7 7 7 7 5 Z G U 7.L v * :.m.m.m.m.m.m.m.x.0.% ",
"v S A.m.m.m.m.m.m.m.m.m.,.z   S ,.0.f.@.u 8 8 8 8 8 8 8 8 0 Z G U 2.L v * :.m.m.m.m.m.m.m.x.0.% ",
"v S A.m.m.m.m.m.m.m.m.A.,.z   S ,.0.f.#.i t e e e e e e e q Z G U 2.L v * :.m.m.m.m.m.m.m.x.0.% ",
"v S A.m.m.m.m.m.m.m.m.A.,.z   S ,.0.f.#.p y t t t t t t t q H G U 7.L v * :.m.m.m.m.m.m.m.x.0.% ",
"v S A.V.m.m.m.m.m.A.A.A.,.z   S ,.0.f.#._ u y y y y y y y w H G U 7.L c * :.m.m.m.m.m.A.A.x.0.% ",
"v S A.m.m.m.m.m.A.A.A.A.,.z   S ,.0.f.$.` i u u u u u u u E J G U 7.L c * :.m.m.m.m.A.A.A.x.0.% ",
"v S A.m.m.m.m.A.A.A.A.A.,.z   S ,.0.f.$.] _ a a a a a a a ^ J G U 7.L v * :.m.m.m.A.A.A.A.x.0.% ",
"v S A.m.m.m.m.A.A.A.A.A.,.z   S ,.0.f.j.{ _ _ _ _ _ _ _ _ / J L U 7.L v * :.m.m.A.A.A.A.A.x.0.% ",
"v S A.m.m.A.A.A.A.A.A.A.,.z   S ,.0.f.j.[ ` ` ` ` ` ` ` ` ( K L U 7.L v * :.m.A.A.A.A.A.A.x.0.% ",
"v S A.m.A.A.A.A.A.A.A.A.,.z   S ,.0.f.k.} ] ] ] ] ` ` ` ` ( K L U 7.L v * :.A.A.A.A.A.A.A.x.0.% ",
"v S A.A.A.A.A.A.A.A.A.A.,.z   S ,.0.f.4.~ Q ( { { { { { { ' K L U 7.L v * :.A.A.A.A.A.A.A.x.0.% ",
"v S A.A.A.A.A.A.A.A.A.A.,.z   S ,.0.f...l h N [ %.%.&.&.&.o.K L U 7.L v * :.A.A.A.A.A.A.A.x.0.% ",
"v S A.A.A.A.A.A.A.A.A.A.,.z   S ,.0.f.P d - b ) o.&.&.&.&.O.K L U 7.L v * :.A.A.A.A.A.A.A.x.0.% ",
"c S A.A.A.A.A.A.A.A.A.m.,.z   S ,.0.f.P s $ , B W o.*.*.=.O.I L U 7.L v * :.A.A.A.A.A.A.A.x.0.% ",
"c S A.A.A.A.A.A.A.A.m.m.,.z   S ,.0.f.U d # @ & k W ;.;.;.#.I L U 3.L v * :.A.A.A.A.A.A.m.x.0.% ",
"z S A.A.A.A.A.A.A.A.m.m.,.z   S ,.0.f.P s # O @ > M X.@.-.$.I L U 7.L v * :.A.A.A.A.A.m.m.x.0.% ",
"z S A.A.A.A.A.A.A.m.m.m.,.z   S ,.0.f.P s + O O & h n  .$.$.I L U 7.L v * :.A.A.A.A.m.m.m.x.0.* ",
"z S A.A.A.A.A.A.m.m.m.m.,.g   S ,.0.f.P s + O O O O & m +.5.I L U 7.L c * :.A.A.A.m.m.m.m.x.0.* ",
"z S A.A.A.A.m.m.m.m.m.m.,.z   S ,.0.f.L ; + O O O O # j m K G L U 7.L v * :.A.A.m.m.m.m.m.x.0.* ",
"z S A.A.A.A.m.m.m.m.m.m.,.g   S ,.0.f.L % O O O O O + * f j D L U 7.L v * :.A.m.m.m.m.m.m.x.0.* ",
"z S A.A.A.m.m.m.m.m.m.m.,.z   S ,.0.f.L % O o o o o o o o # A F U 7.L v * :.m.m.m.m.m.m.m.x.0.* ",
"z S A.m.m.m.m.m.m.m.m.m.,.z   S ,.0.f.L % o X o O O O O O # d z S ,.L v * :.m.m.m.m.m.m.m.x.0.* ",
"c S A.m.m.m.m.m.m.m.m.m.,.v . F 7.r.l.P : O O O % * * * * * s d v 1.U A d :.m.m.m.m.m.m.m.x.0.* ",
"c S A.m.m.m.m.m.m.m.m.m.0.S % U 0.f.b.:.x d s d z c c c c c c v F 0.:.L v ,.m.m.m.m.m.m.m.x.0.* ",
"c S A.m.m.m.m.m.m.m.m.m.x.0.:.r.x.m.m.f.,.,.,.,.7.7.7.7.7.7.7.7.e.b.f.0.7.f.m.m.m.m.m.m.m.x.0.* ",
"v A x.x.x.x.x.x.x.x.x.x.x.x.x.x.x.x.x.x.x.x.x.x.x.x.x.x.x.x.x.x.x.x.x.x.x.x.x.x.x.x.x.x.x.x.0.* ",
"S L 7.7.7.7.7.7.7.7.7.7.7.7.7.7.7.7.7.7.7.7.7.7.7.7.7.7.7.7.7.7.7.7.7.7.7.7.7.7.7.7.7.7.7.7.,.* ",
"= s s s s s s s s s s s * * * * * * * * * * * * * * * * * * * * * * * * * * * * * * * * * * * O "
};
