/* XPM */
static char *e2a1e6cb76dd4f47b12be963ff54454f[] = {
/* columns rows colors chars-per-pixel */
"48 48 245 2 ",
"   c #0C0C0B",
".  c #151516",
"X  c #26221D",
"o  c #2D2D2F",
"O  c #343438",
"+  c #433B2F",
"@  c #396838",
"#  c #5F652D",
"$  c #4B7634",
"%  c #19386F",
"&  c #03277C",
"*  c #173D7C",
"=  c #223D71",
"-  c #394048",
";  c #16437B",
":  c #364977",
">  c #304C79",
",  c #49494A",
"<  c #545556",
"1  c #635C4B",
"2  c #4C7A47",
"3  c #577D4B",
"4  c #577C54",
"5  c #525A6A",
"6  c #556D7D",
"7  c #656568",
"8  c #707274",
"9  c #A66C25",
"0  c #9A5846",
"q  c #A45E4A",
"w  c #957351",
"e  c #A76851",
"r  c #936F6C",
"t  c #997964",
"y  c #AE7769",
"u  c #4D8219",
"i  c #56862B",
"p  c #668D3A",
"a  c #538452",
"s  c #5C8758",
"d  c #688B56",
"f  c #719452",
"g  c #749659",
"h  c #64876A",
"j  c #7C8A6C",
"k  c #78986A",
"l  c #6C8877",
"z  c #748F73",
"x  c #7A9679",
"c  c #7DA472",
"v  c #AE8F32",
"b  c #CC9611",
"n  c #CB951A",
"m  c #D6A110",
"M  c #C8992A",
"N  c #D5A42B",
"B  c #E0A532",
"V  c #8E8F57",
"C  c #B4924F",
"Z  c #B2A456",
"A  c #958F6A",
"S  c #849667",
"D  c #938C78",
"F  c #879A7B",
"G  c #979779",
"H  c #AB956A",
"J  c #A8877B",
"K  c #B58678",
"L  c #A49A78",
"P  c #8BA66A",
"I  c #89A577",
"U  c #8EAB7A",
"Y  c #96A57C",
"T  c #92AD7C",
"R  c #94B27E",
"E  c #99B278",
"W  c #B2AC6F",
"Q  c #ABA679",
"!  c #B5A777",
"~  c #C3964F",
"^  c #CBA657",
"/  c #E2AE46",
"(  c #C8AB6A",
")  c #D4B271",
"_  c #E1B972",
"`  c #072B84",
"'  c #0D3283",
"]  c #183987",
"[  c #184687",
"{  c #1A4A93",
"}  c #284589",
"|  c #324C88",
" . c #2A528B",
".. c #3B578A",
"X. c #2D4A94",
"o. c #324F93",
"O. c #2A5794",
"+. c #385595",
"@. c #3D6194",
"#. c #3D6AA2",
"$. c #445988",
"%. c #435C99",
"&. c #496389",
"*. c #556888",
"=. c #597788",
"-. c #4B6697",
";. c #556B9B",
":. c #5B759A",
">. c #667687",
",. c #717686",
"<. c #657A98",
"1. c #435EA0",
"2. c #4869A2",
"3. c #546BA3",
"4. c #4D70A9",
"5. c #5C77A5",
"6. c #637BA7",
"7. c #697DB1",
"8. c #6B8787",
"9. c #778986",
"0. c #6D9385",
"q. c #7A9485",
"w. c #6A8396",
"e. c #77899A",
"r. c #7A9498",
"t. c #6B83A9",
"y. c #748CAA",
"u. c #788BA8",
"i. c #7789B4",
"p. c #7A92B7",
"a. c #888787",
"s. c #938E8A",
"d. c #869986",
"f. c #959D87",
"g. c #869997",
"h. c #949496",
"j. c #A98C84",
"k. c #AF998F",
"l. c #8AA584",
"z. c #97A986",
"x. c #96B482",
"c. c #99B684",
"v. c #99B687",
"b. c #9BBB84",
"n. c #9DBC8A",
"m. c #8AA595",
"M. c #96A997",
"N. c #9BB494",
"B. c #98B596",
"V. c #A9A889",
"C. c #B4AD89",
"Z. c #A4B486",
"A. c #A1BE8C",
"S. c #B7B78B",
"D. c #A9A799",
"F. c #A6BA97",
"G. c #B5B899",
"H. c #8898A9",
"J. c #8B98AF",
"K. c #969BA6",
"L. c #8493B5",
"P. c #8998B9",
"I. c #99A6AA",
"U. c #95AAAD",
"Y. c #98A5B8",
"T. c #A5A9A8",
"R. c #B4A6AA",
"E. c #A8B6A8",
"W. c #B3BCA5",
"Q. c #A5ADB8",
"!. c #AAB3B9",
"~. c #B6B9BA",
"^. c #C09682",
"/. c #C9B68D",
"(. c #CAB6AC",
"). c #9FC088",
"_. c #A3C18D",
"`. c #A5C292",
"'. c #A9C595",
"]. c #AAC49A",
"[. c #B3C09F",
"{. c #ADC4A3",
"}. c #B8C6A9",
"|. c #AFC2B1",
" X c #BAC6B8",
".X c #D9C38F",
"XX c #CAC49B",
"oX c #E7C78D",
"OX c #C7C6AA",
"+X c #D5CBA9",
"@X c #C8CBB9",
"#X c #D5C5BB",
"$X c #C8D3B8",
"%X c #D4D5BD",
"&X c #E1D2BC",
"*X c #8E9DC1",
"=X c #8DA3C5",
"-X c #9AA7C4",
";X c #A3ADC7",
":X c #AAB7CA",
">X c #B5BBC4",
",X c #B3BACC",
"<X c #AFBED3",
"1X c #B4BED3",
"2X c #AFC1CC",
"3X c #BAC3C8",
"4X c #BAC3D4",
"5X c #BAC5D6",
"6X c #C5C7C6",
"7X c #CCCCCD",
"8X c #D5CCC5",
"9X c #CBD4C7",
"0X c #D7D8CB",
"qX c #C4CBD5",
"wX c #C5CAD7",
"eX c #CACED5",
"rX c #C4CBDA",
"tX c #CED3D4",
"yX c #CCD2DD",
"uX c #D3D4D4",
"iX c #D6DCD3",
"pX c #DBDCD4",
"aX c #D2D5DB",
"sX c #D6D9DC",
"dX c #DBDCDC",
"fX c #E3DCC9",
"gX c #E2DBD4",
"hX c #E1DEDC",
"jX c #DAE1D5",
"kX c #DEE2DB",
"lX c #E3E3DD",
"zX c #CED6E1",
"xX c #D2D6E0",
"cX c #D6DBE3",
"vX c #DBDEE4",
"bX c #DDE1E5",
"nX c #DFE2E8",
"mX c #E3E4E4",
"MX c #E7E7E5",
"NX c #EAEBE6",
"BX c #E3E5E9",
"VX c #ECECEC",
"CX c #EFF0ED",
"ZX c #F0F0EF",
"AX c #F2F2F2",
/* pixels */
"^  XY. Xa x NX4X* * * Q.0Xk $  XK.w n M q k.mX0XgXMXK C m N V I.$Xu f fXL.& & X.MXfXp i ~.I.z.) ",
"}.3X~.(.N.S.( VXt. .:.hX^ W F.:X+.O O A #X0Xg E.OXU 0X(.v + . ] qXZ.v _ rX3.o.-XMXC C.F 7 J.Q. X",
"Y.:XR.r >X: w.sX0XbXfXuXe.> 5X#.O.K.O o jXI =.} ;.9.E pX. . 8 ' 3.,X} J.@XfXBX.X,X%.] I.O k.R.,X",
"N.T.5 r qX* &.a.H E.A s...; 4Xp.yXBX7Xh.jXI =.] +.u.S 0X8 ~.mX4Xi.:X` } D W {.v ;.] & >Xt y (.I ",
"d c !.>X5X6.6.Q.2 2 $ T.p.p.vXvXp.g.P.sXVX@Xd I.Y.d G.NXsXP.8.L.dXaXp.p.~.p i $ Y.L.P.-XL.Y.f p ",
"{.'.:.; t.bXy.3XkXc 9XzXt.:XBXx d J G w.mX~.kXdXlXjX6XlXJ.f J k s tX7 6XAXpXk pXAXcXqX%.& : Z }.",
"NXoXu.-.5.AX5.; u.ZX2XO.O.vXP.h F.y V.=.dXa.7XeXmX6X, 6X;.V q }.@ <.BXsXa.sXX.t.1X' P.%.%.J./.NX",
"tXNXBXH.H.AXBXw.-.D.t.:.4XVX0.t #XVXrXY.VXNXeXo.:.tXNXNXY.:XNXgXt h uX~.mXvXo.& <.* vXD.H hXbXi.",
": t.fX^ $ |.<X; $./ f.[ 4.BXp.j NX2.:XBXNXvX6.H.t.u.kXNXNXqX+.NXf.=.mXa.:X<.Z >.-.:X9X$ W 0XX.' ",
";  .aX9Xs a p...! / ) t.2.rXcXY.cX@.=.&.tX3X,.OXXX6 !.iX:.&.} aXI.3XAXBXo.D m N D.NXS i }.aX] ` ",
"= -.0XXXs |.BXbX-Xs.!.BXAXAXAXVX:X:.XXV.|. XZ.}.}.Z.{.}.G S.>.L.MXCXZXAX5X~.Z >.-.Y.pXp Z 0X5.] ",
"e.qXlXL E.AX3X6XyX4.-XVX5XvXcXMXqXV.$X{.N.].N.`.'.n.A.n.c.}.Q Q.MXdXaX1XvXNX2.` <.* qXI.,.tXfX,X",
"lXoX!.5.5.sXvXdX7 BXAXvXO.-.:.~.0Xg.M.F.N.`.c.A.A.c.A.c.x.c.q.}.}.*...] 1XAX%.7.yXo.t.7.o.*.^ pX",
"|.Z w. .5.!.tXBXmXAXAXVX5.C.XXE.{.].c.A.A._.b.b.b.b.b.b.b.x.x.A.F W Q ..yXAXcXnXdXmXyXi.] ..W k ",
"k l.qX<XrXZX:Xe.r.:XAXVXy.S.$X{.N.`._.b.b.b.b.b.b.c.b.b.b.b.b.x.l.G.W *.tXAXqXt.h u.iXvX:X1XF.$ ",
"W.BX=Xt.bXE.a j.D.K.bXNXtXE.M.`.`.A.b.R T R x.x.x.x.c.b.b.b.b.b.c.l.x E.pXVXQ.S w d a aXi.X.-X9X",
"6X5.O.=XcX8.W.8XZXNX2X:X9X$XN._.).b.R U I T x.x.x.x.c.b.b.b.b.b.b.l.z.}.Q.i.eXVXMXG.g t.yX+.| D.",
"! < 5 sX!.s.e VX=X@.:.D.M.F.]._.b.R U R x.c.b.n.b.b.n.n.n.).).b.b.b.x.l A 6 > } VXq K l.hX7 . 9 ",
"^ V.- K.5Xd.J qXbXt.C.%X{.`.`._.R I I R A._._._._._._._._._._.).b.b.R l.}.C.5 rX;Xz.F P.T.  # 9 ",
"( _ < < sX>X5.J.vXP.g.G.F.'._.).R I I x._._._._._._._.A.n.n.n.b.b.b.b.U F A 6 ZX,X<.H.dXa., ! v ",
"! ^.NXkXZXAXuXVXAXjX9XE.N.`._.b.R U U c._.A.n.A._._.A.n.b.b.b.b.b.b.b.I x M.F.VXAX7XmXNX0XpX(.e ",
"j.8X9Xl.}.VX8 vXAX9X9X X{._._.b.R T T b._.n.b.n.A._.n.x.x.x.x.b.b.b.b.c.l.l.d.vXVX< 7X}.S S 0Xk.",
"8X0Xm.J.d. XuXZXrXr.G.M.M._._.b.R R R b._.n.x.c.n.n.x.U R x.b.b.b.b.b.I l S j 3.rX7XBXd *.>.S mX",
"6XOXu.| <.8XhXL.} }.$X}.`._._.b.b.R R n._.c.x.x.c.c.T I U c.b.b.b.b.b.x.z.z.Y J.+.sXlXQ.o.-.@XhX",
"8X8X6.2.:XhXsX2.Y.%X0X}.]._._._.b.R x.n.`.n.c.c.n.n.x.T x.n.n.b.b.b.b.R Y z.F +.5.mXpXu.} :.OXhX",
"iXT 6 5.z iXuX4X2.g.G.e.m._._._.b.x.c.n.`.A.n.n.n.n.n.v.n._._.n.b.b.b.I z S 8 -XbX!.pXd H.d.F.lX",
"j.0XY g G.dX5 VXxXQ. XQ.{.'._._.n.c.v.n.A.A.A.A.n.n.n.n._.`._.n.b.b.b.x.l.z.f.NXNX, uX}.I G.pXK ",
"w (.pX9XNXBX6XVXVXmXtXH.m.`.`._.A.n.n.b.c.n.A.A.A.A.`.`.`.`._.n.b.c.R F q.M.D.VXVXeXBXNX9XiX^.~ ",
"M ( 7 s.BXY.y.,XVXt.G h.m.].'._.A.A.n.c.x.b.n.A.A._.`.`.`.`._.n.b.x.R I G 8 >.BXL.$.U.dX5 o C B ",
"n 1   h.-Xx.V.P.vX..@XjXE.m.]._._.A.n.b.x.x.c.b.n._.`.'.'.`._.n.b.R I z.W.L 6 yX4Xt j ;X!.o 1 N ",
"v X , sXE.A 0 VXo.} >.Q =.U.}._._.n.n.b.x.x.R x.b.A.`.].'.`._.n.b.x.I l L *.} 6.VX0 s.H.mX,.- C ",
"V.&.-.aXi.I G.NXvX4X5.Y.iX6Xr.N.'.A.n.n.n.b.x.x.b.n.`.'.`._.n.b.x.I N.W.U.Y.sXNX(.F.l 4X:X{ 2.eX",
"6XL.] 6.yXx p w z.U.VXVXtXe.r.N.N.`._.`.`.n.b.b.n.n._.`._._.b.x.T x F ~.pXbXI.f.J 4 l.mXi.p.cX|.",
"f c.:X-XcXiXu.0.w.>XZXBX-./.%Xg.m.{.F.].`.A.n.n.n.n.A.A.A.n.A.I I G.Q *.dXVX>Xe.8.Y.BXyX:X4Xl.3 ",
"'.V *.} t.vXmXeXxXnXVXcX+././.9. XM.q.N.N.`.n.n.n.n.A.c.c.x M.M.F ! ! &.vXVXZXkXdXuXs.t.{ *.V N.",
"jX^ 6 o.3.*X+.xX*X1.BXrX] ..$.7XlX*.M.d.l.F.l.c.c.l.c.F l.x 6 @X!.$.$.] yXZXBX9.7XsXsXt.5.Q.oXmX",
"qX%XeX<.H.rX] <.` +.BXnX:XyXcXVX,XQ %Xz.g.E.8.[.F.>.E.9.z.OXL ~.dXtXaX1XBX:X2.sXuXT.AXE.L pXqXu.",
"| t.0X( p $X-X&.$.H ~.rXAXAXAXZX*X;./.D 3X3XQ %X%XG  X~.Q XX*.Y.mXNXNXVXBX!.D Y.BXNX X3 S.0X$.% ",
"] ' eX$Xf p NXT.M b A o.cXAXqXJ.cX} $.-.vX,X$.(.#X,.>XsX$.*...sXI.tXqX-.t.( B ! ..t.4 4 6XsX> = ",
"] } uXS.u T yX-.,.~ >.Y.h.dX5.j VX+.5XVXVXmXL.:.K.:.sXMXBX,Xo.NXj u.BX-.[ D / *.* :X X$ Z &Xt.: ",
"6.,XhXZ V.BX+.=.& +.cXmXT.uXh t #XVXqXL.ZXVXvX6.X.qXNXVXQ.4XNX#Xt l BX3X=.<.D.&.w.nXAXK.e.vXlXsX",
"VX+X>X-.+.-X` ;X3.} yX8 7XmX6.$ Z.e A ..6X, ~.mXeX6X7 uX<.j.0 z.h P.vX .@.2XAXJ.> -.AX<.&.>.) hX",
"9XZ 5 ' +.4X5XAXVXk 9XAXuX< sXg g L S r.mXeXlXjXdXlX7XmX8.G j.k l.BX,Xy.zX@Xz kX4Xu.vX<.% &.V.l.",
"I i H.6.L.-X-X:Xf u i |.=XP.yXvXL.=.P.aXNXOXf I.!.g @XNXsXY.g.P.bXvXL.u.T.2 4 3 T.<.<.4X!.T.z 4 ",
"R G.K j.6X& ] %.Z A.E G } ' -XL.1XBX~.7 0XP e.%.} <.P jX8 ~.mXaXJ.qX[ &.G W  X( s.&.% >X7 , h.M.",
"1XR.J + h.& %.;X.XBXfXOXY.} ;X5.' ,..   iXZ.q.6.| =.Y lXO o a.| 5.eX: H.sXgXbXfXcX,.5 >Xr ~.!.I.",
" Xg.P., z.Q C MX,X2.6.yX.Xv E qX] . + v /.pXc.OXG.k 0X(.H 1 O : 5Xz.W _ dX<...u.VX) Q M.(.~.>XW.",
"+XG.I.3Xp u +XlX+.` ` *XfXg u }.Y.w N m ~ y hXlXpXlXK C n n C Q.W.3 N.NXQ.> * } yXVXd.4  XY.@X^ "
};
