/* XPM */
static char *_bea1bf7e9a84d1caa855401602f66dc[] = {
/* columns rows colors chars-per-pixel */
"48 48 178 2 ",
"   c #2E1D07",
".  c #2C1B09",
"X  c #341C08",
"o  c #3B230D",
"O  c #4A290E",
"+  c #452711",
"@  c #452812",
"#  c #4E2B12",
"$  c #522D14",
"%  c #5C3217",
"&  c #56391A",
"*  c #5D3D1C",
"=  c #643517",
"-  c #633618",
";  c #683718",
":  c #663A1B",
">  c #733D1D",
",  c #66411D",
"<  c #7E411E",
"1  c #6E4020",
"2  c #764122",
"3  c #7A4321",
"4  c #794F24",
"5  c #764C24",
"6  c #7E5827",
"7  c #6F4336",
"8  c #734637",
"9  c #7B493A",
"0  c #91491F",
"q  c #844521",
"w  c #8B4721",
"e  c #844A25",
"r  c #8D4922",
"t  c #8F4E2A",
"y  c #934B22",
"u  c #994E25",
"i  c #974F29",
"p  c #815527",
"a  c #9B5225",
"s  c #9E5824",
"d  c #95502C",
"f  c #9B532A",
"g  c #905F2C",
"h  c #814D3B",
"j  c #96553F",
"k  c #A35C27",
"l  c #A3542A",
"z  c #AB572E",
"x  c #A65C2B",
"c  c #AB5B2D",
"v  c #AF5D31",
"b  c #B45E33",
"n  c #83652F",
"m  c #8F622D",
"M  c #95612D",
"N  c #AB622C",
"B  c #A6642D",
"V  c #B1672E",
"C  c #B46B2E",
"Z  c #A56031",
"A  c #AD6534",
"S  c #A46830",
"D  c #AD6A30",
"F  c #B66133",
"G  c #BE6436",
"H  c #B46A32",
"J  c #BB6D33",
"K  c #BD6438",
"L  c #BF6A38",
"P  c #AF7235",
"I  c #A87638",
"U  c #B47436",
"Y  c #BB7335",
"T  c #BB7837",
"R  c #BC7639",
"E  c #B47E3B",
"W  c #BC7C3B",
"Q  c #C06537",
"!  c #C16936",
"~  c #C16638",
"^  c #C46C3A",
"/  c #C86F3C",
"(  c #C07636",
")  c #C27937",
"_  c #C47239",
"`  c #CB743C",
"'  c #C47B3A",
"]  c #CC7B3D",
"[  c #D17C3F",
"{  c #8C5440",
"}  c #975844",
"|  c #9B5B45",
" . c #A55C43",
".. c #A85E45",
"X. c #AA6045",
"o. c #B8674B",
"O. c #B5694C",
"+. c #BD6A4E",
"@. c #B46449",
"#. c #C06C4F",
"$. c #CD7D41",
"%. c #D37E40",
"&. c #C26E50",
"*. c #C27255",
"=. c #A2833C",
"-. c #B6833F",
";. c #BC823E",
":. c #CC833D",
">. c #D1853F",
",. c #D38A3F",
"<. c #B69246",
"1. c #CA8642",
"2. c #CC8C43",
"3. c #C28E43",
"4. c #D58342",
"5. c #D98543",
"6. c #D58C42",
"7. c #DC8B44",
"8. c #D18748",
"9. c #C59145",
"0. c #CB9749",
"q. c #C69E4B",
"w. c #CF9A4A",
"e. c #D79446",
"r. c #DC9244",
"t. c #DC9249",
"y. c #D49B4A",
"u. c #DC9C4D",
"i. c #E08E46",
"p. c #E18F48",
"a. c #E29246",
"s. c #E39947",
"d. c #E49449",
"f. c #E59B49",
"g. c #EA9C4B",
"h. c #DAA44E",
"j. c #DFA84F",
"k. c #D9A551",
"l. c #DFAA52",
"z. c #E6A14B",
"x. c #EEA24C",
"c. c #EDA84E",
"v. c #F1A54E",
"b. c #F7AC4F",
"n. c #F8AC4F",
"m. c #E3A652",
"M. c #E8A150",
"N. c #E3AB54",
"B. c #EEAC51",
"V. c #E3AE58",
"C. c #F4A750",
"Z. c #F6AA51",
"A. c #F7AD50",
"S. c #F7AF50",
"D. c #F7AD50",
"F. c #F8AE50",
"G. c #F8AD50",
"H. c #EEB356",
"J. c #EEB358",
"K. c #E7B858",
"L. c #EBBA5B",
"P. c #F6B454",
"I. c #F8B454",
"U. c #F7B957",
"Y. c #F8B957",
"T. c #F3BB59",
"R. c #F8BA59",
"E. c #F9BF5B",
"W. c #F8BD5A",
"Q. c #EFC35E",
"!. c #F2C35E",
"~. c #F9C35D",
"^. c #EEC562",
"/. c #F1C460",
"(. c #F9C661",
"). c #F0C862",
"_. c #FACE63",
"`. c #FACC63",
/* pixels */
"Q.V.u.1.r > l G b y 2 d G G G l =   ).N.U q 3 2.u.R r . -.L.L.x : q.`.E.E.m.u.t.G u O # ! 5.~ G ",
"m.6./ b y f b G b y i v G G G l > $ V.5.F c ` ~ G z r $ H u.m.L u k.~.I.D.4.` ` F u - 1 ] g.[ ` ",
"L d.5.b w X r ! b y # 3 ! ! G l l K L g.5.%.x.` ! z 0 L g.5.! G u h._._.G.b.Z.g.G a v ` Z.! x.a.",
"L.8.G b y K a.p.b y b 7.d.G G l =   ^.$.5.d._ g.[ z y Z.` 7.g.~ u 6.R._.G.D.a.F a f.V N Z.G x.a.",
"Q.M.] b u t.5.` b y ] 5.5.7./ l M =.T.f.] ' 7.5./ z y 4.7.5.] l y y.E.Y.D.7.5.4.b J ' :.4.7.5.5.",
"T.I.4.F Y D.a.` b y r.d.5.a./ l ;._.D.n.( H x.5./ z y c 4.] F y > 0.R.n.n.5.a.v.4.Y ] >.4.a.4.5.",
"B.G.:.H s.b.D.a.b y r.b.g.` ~ l ;._.D.P.:.Y r.b.5.F u y L ^ F r o E b.b.b.D.D.D.b.f.J Y Z.` x.f.",
"!.I.v.6.x D.G.a.F y r.b.Z.v.` l ;.`.P.~.P.>.N s.b.7.G y 6.%.F r o E D.G.b.b.b.D.v.N 4.x.G.b.b.b.",
"!.I.,.Y r.b.G.v.>.y r.D.D.b.` l T I.~.R.6.Y 6.[ g.7.G y _ / F r o E I.~.D.b.b.D.b.r.Y ( G.G.D.g.",
"!.I.' D E.D.n.s.' ' g.n.b.b.` l Y D.`.I.( H x.i.7.7.5.( 4.` F y = 9.E.E.b.b.b.b.v.:.' :.n.b.G.a.",
"!.I.6.W l.D.f.' Y b.b.b.D.b.` l T I.~.R.2.Y 6.v.7.i.G.G.g.5._ f y k.~.n.b.G.P.U.v.J :.s.G.b.G.a.",
"!.Y.E.l.s D.Y Y v.D.b.Z.b.b.` l ;.`.P.(.E.6.k s.D.D.b.G.] i.x.! u k.~.b.b.D.U.~.G.D.C N D.b.G.a.",
"B.~.E.U.`.D.G.:.x b.D.5.[ b.` l Y D.`.I.E.~.P.G.b.b.D.n.G.G.g.~ u k.~.n.D.`.~.b.n.b.D.D.D.b.G.a.",
"C.~.E.I.R.D.>.( 6.b.7.5.7.>.c u R ~.R.E.E.I.D.b.b.b.D.G.7.g.x.~ u k.~.D.~.E.E.E.G.b.b.b.b.b.G.a.",
"v.R.E.I.D.D.>.( 6.Z.7.7.4.K u > I ~.U.~.E.U.D.b.b.b.D.a.5.7.5.v y y.E.R.~.E.E.E.G.b.b.b.b.b.G.a.",
"v.P.E.~.G.b.b.6.J b.x.5./ G u # 6 b.~.I.R.E.D.b.b.b.Z.` d.%.b y > 2.R.(.U.~.E.b.b.D.g.f.b.b.G.a.",
"C.~.E.I.n.b.b.b.b.b.4.7.i.G u # 6 D.P.D.G.P.b.b.b.b.G.v.[ ~ F r o <.~.P.`.I.P.b.b.c.H H G.b.G.a.",
"v.U.E.E.G.b.b.b.D.D.g.5.` G u # 6 D.~.P.Y.E.D.b.b.b.D.[ a.[ b w o -.E.~.U.~.E.b.v.Y :.s.n.G.G.a.",
"J.I.U.Y.D.b.b.b.b.b.a.7.%.G u # 6 D.E.E.E.Y.D.b.b.b.b.7.v.5.b u M e.I.E.E.E.I.D.v.:.' :.n.b.G.a.",
"T.E.I.b.n.b.b.b.b.b.7.7.7.$.z : g D.U.~.E.I.D.n.b.b.D.b.b.5.b u U f.I.U.~.R.I.D.b.r.Y ' n.b.G.a.",
"B.~.E.D.n.b.b.b.b.b.b.7.%.v.` l T P.`.I.E.~.I.G.b.b.b.b.D.5.b r # -.U.`.P.~.E.v.c.N 6.v.n.G.C.a.",
"!.U.E.~.n.b.b.b.b.D.] 7.d.G G l ;._.D.(.E.Y.`.I.b.b.b.b.D.5.F a f.(.~.D.`.U.a.` b.Z.V N G.G.` %.",
"P.~.E.E.~.b.n.b.b.b.g.g.v.a./ l ;._.D.I.E.E.Y.G.b.b.b.b.D.5.F y 4 w.I.b.R.7.5.i.%.Y ' r.Z.4.i.7.",
"J.~.E.E.E.D.b.b.b.b.b.b.D.b.` l ;._.D.Y.E.E.R.G.b.b.b.b.D.5.F y p w.I.n.G.7.5.5.G u 6.D.Z.4.7.%.",
"T.I.R.~.I.b.b.b.b.b.b.b.b.b.` l W ~.U.~.E.R.~.I.b.b.b.b.D.5.F a f.~.~.b.I.D.d.` G u 6.D.b.G.%./ ",
"c.D.G.U.`.D.n.b.b.b.b.b.b.b.` l Y D.`.I.~.~.P.b.b.b.b.b.D.5.b a f.~.~.D.`.U.G.g.G u 6.D.D.D.Z.a.",
"c.n.R.~.I.(.1.:.G.D.b.b.b.b.` l Y D.`.I.I.I.D.b.b.b.b.b.D.5.F y , 9.R.~.U.G.b.g.G u 6.D.b.b.G.a.",
"c.n.I.E.E.E.T Y G.b.b.b.b.b.` l W E.E.E.U.n.b.b.b.b.b.b.D.5.b y M h.E.E.E.I.g.4.G u 6.D.b.b.D.a.",
"P.P.n.I.~.6.( T r.b.b.b.b.b.` l W ~.Y.~.U.G.b.b.b.b.b.b.D.5.F u P N.E.D.~.g.7.` G u 6.D.b.D.g.4.",
"/.U.D.G.v.a :.:.V b.b.b.b.b.` l Y D.`.I.G.v.x.b.n.b.n.D.v.4.b w o E D.G.D.] 4.g./ l 6.c.Z.v.` ^ ",
"/.I.Y.~.b.s.Y T g.b.b.b.b.b.` l Y D.I.D.G.r.V g.G.D.D.D.[ ^ F w o E G.D.G.x.7.[ g.f.J Y Z.` d.7.",
"/.I.E.~.G.D.s.' ( b.b.b.b.b.` l W ~.D.E.I.x.6.Y s.G.G.[ 7.] F y > 0.R.Z.C z.v.i.[ J ' r.Z.a.4.` ",
"T.E.E.~.R.D.r.' :.b.b.D.x.7.F u ;._.D.R.E.c.:.T s.G.D.5.7.7.] z y k.~.Z.T ' 4.7.4.( ' 6.b.G.7.] ",
"H.~.R.U.~.D.' T f.Z.b.D.d.G u < E _.U.U.E.j.U 6.c.G.D.b.4.7.a.G u k.~.D.r.x b [ f.s.Y T D.g.b.a.",
"!.Y.D.b.D.b.Z.:.N b.D.D.d.G u $ n _.`._.E.U.!.B 6.G.D.D.Z.5.! G u k.~.Z.u F %.g.! a 6.Z.Z.! x.a.",
"H.~.R.b.b.b.b.7.b x s.D.d.G u # n _.U.I.E.j.U 6.x.D.D.b.4.7.a.G u e.I.b.r.x c ` G u 6.b.D.g.%./ ",
"T.E.E.R.G.~.I.a.b y r.b.d.G u M 3.E.D.G.I.B.:.( f.n.D.5.7.7.$.z y y.B.4.T ' 4.5.G u 6.D.Z.4.7.%.",
"T.R.E.~.R.~.I.a.b y r.x.5.G u S 2.D.b.r.f.x.6.Y s.b.D.%.7.] F u P N.H.8.l ' 6.7.G u 6.b.Z.[ a.4.",
"C.~.E.U.(.z.v.a.b y 6.5.^ G u - m D.b.A ' >.N r.v.b.D.b.[ ~ F f K.P.P.(.G u l / G u 6.n.D.v.] ^ ",
"c.I.E.~.Z.k 6.i.b y G 7.7.G u T f.D.D._ x J r.V r.n.D.D.x.%.F f L.t.7.P.G u H d.G u 6.D.Z.` d.7.",
"T.I.P.z.H 6.R F b y :.7.` G u y.R.b.n.` l H x.r.x.G.D.[ x.5.b a ' t.7.[ ! u x ` G u 6.D.D.d.4.` ",
"T.E.I.s.z ' ' L b y ] 5.%.G u y.J.7.b.` l H v.b.d.g.D.5.7.` F y 3 R 7.5.G u N %.G u 6.v.7.D.7.] ",
"P.~.R.g.K 0 ' 4.b y L 7.7.K u 2.u.] g.` l H x.D.5.5.g.b.` G F r % Z 4.g.! u V i.G u $.a.] g.Z.a.",
"!.U.D.f.G y c ! b y 6.5.! G u c 4.Z.! ! l H c.b.G.7.L Z.` G F u b d.d.! G u l G F u v ` Z.! x.a.",
"$.g.a./ G r - 2 b y J ^ G G u - e ` g.` l 2 * H g.v.g.` ~ G F d k.6./ G G u l G F u = : ` g.[ / ",
"6.5.7.4.G y q f b y > d ! G u # 5 i.4.^ l w e :.5.4.4.! G G F y n A ~ ! G u q 2 b u # & i.4.~ ! ",
"7.` %.5.K r r f b y + 2 Q G u # 4 a.~ ! l r t 4.` ! ~ ! ! ! F r o t ! ! ! u ; @ b u # & a.~ ! G ",
"+.+.&.&.+...h { +. .8 | #.+...9 { &.#.#.@.j 9 O.&.#.#.#.#.#.o. .7 } #.&.#.X.h h +...h h &.#.#.*."
};
