/* XPM */
static char *_6622d95b038499abcd6c6a9ca9541af[] = {
/* columns rows colors chars-per-pixel */
"48 48 60 1 ",
"  c gray60",
". c gray56",
"X c #909090",
"o c #8E8E8E",
"O c gray57",
"+ c #929292",
"@ c gray58",
"# c #959595",
"$ c #939393",
"% c #979797",
"& c gray59",
"* c #989898",
"= c #9A9A9A",
"- c #9B9B9C",
"; c #A7A7A8",
": c #6F6F6F",
"> c #AEAEAE",
", c #AFAFAF",
"< c #A9A9A9",
"1 c gray73",
"2 c #747474",
"3 c gray66",
"4 c gray92",
"5 c #EAEAEA",
"6 c #E1E1E1",
"7 c #D6D5D6",
"8 c gray47",
"9 c #E7E7E7",
"0 c gray91",
"q c #E9E9E9",
"w c gray84",
"e c #7C7C7C",
"r c #7B7B7B",
"t c #797979",
"y c #A7A7A7",
"u c #9B9B9B",
"i c gray61",
"p c #9D9D9D",
"a c gray62",
"s c gray48",
"d c gray65",
"f c #979898",
"g c #A6A7A6",
"h c #7C7B7C",
"j c #9D9D9C",
"k c #A3A4A3",
"l c #AAAAAA",
"z c #B6B6B6",
"x c LightGray",
"c c gray82",
"v c #D2D2D2",
"b c #CDCCCD",
"n c gray49",
"m c #807F7F",
"M c #848484",
"N c gray51",
"B c #818181",
"V c #7E7E7E",
"C c #7E7E7F",
"Z c gray42",
/* pixels */
" .XX.o.XO+@####@$@#%%&&@$$$#%%*%&@@@##&%% ===-;:",
"+o>>>>>,,,,,,,,,,,,,,,,,,,,,,,,,,,,,,,,,,,,,><12",
"O34555555544444455555555555555544444444445555678",
"&35999999044444q999999999999990444444444599996we",
"=3599999q54444q099999999999990544444444q099996wr",
"=359999054444q999999999999990q4444444450999996wt",
" 359999544445999999999999999544444444499999996wt",
"%y5990544440999999999999990544444444q099999996wt",
"&y59q54444q99999999999999q544444444q0999999996wt",
"*y50544445999999999999990544444444509999999996wt",
"=y444444q9999999999999994444444445999999999996wt",
"uy44444099999999999999q544444444q9999999999056wt",
"iy44445999999999999990544444444509999999990q46wt",
"iy444q9999999999999995444444445999999999995446wt",
"iy44q99999999999999044444444459999999999044596wt",
"iy4q099999999999990544444444q09999999990q4q096wt",
"iy59999999999999905444444445099999999905450996wt",
"uy59999999999999044444444459999999999944599996wt",
"uy59999999999990544444444q0999999999054q099996wt",
"uy59999999999905444444445099999999905450999996wt",
"uy59999999999944444444449999999999954499999996wt",
"iy59999999990544444444q0999999999054q099999996wt",
"py599999999q544444444q0999999999054q0999999996wt",
"py599999999544444444409999999999q4409999999996wt",
"py59999990444444444599999999990445999999999046wt",
"py599999q544444444q0999999999054q099999999q546wt",
"py599990544444444509999999990q4509999999905446wt",
"ay59999544444444599999999999545999999999044446wt",
"ay5990544444444q09999999990545099999999q544446wt",
"ay590q44444444509999999990q45q9999999905444446wt",
"py50544444444599999999990545099999999044444446wt",
"uy4444444444599999999999445999999999q444444446wt",
"*y444444444q09999999990q4q099999999q5444444446wt",
"&y44444444599999999990545099999999044444444456wt",
"#y44444445999999999995449999999990444444444596wt",
"$y444444q0999999999054q099999999q4444444440996ws",
"Od44444q0999999999054q099999999q544444444q9996we",
"Xd44444099999999995440999999990444444444599996we",
"Xd4445999999999904459999999990444444444q999996we",
"Od44q0999999999054q099999999q544444444q9999996we",
"+d4509999999990q450999999990544444444599999996we",
"$d5999999999994459999999990444444444q999999996we",
"#d5999999999054q099999999q54444444409999999996we",
"&d59999999990550999999990544444444599999999996we",
"fg599999999999999999999944444444459999999999967h",
"jk666666666666666666666666666666666666666666667e",
"lzxcvvvvvvvvvvvvvvvvvvvvvvvvvvvvvvvvvvvvvvvcccbn",
"mMNBBBBBBBBBVVVVVVVVVVVVVVVVVVVVVVVVVVVVVVVVnCVZ"
};
