/* XPM */
static char *aee2b0d856784596a427878c28233f9d[] = {
/* columns rows colors chars-per-pixel */
"48 48 201 2 ",
"   c #070606",
".  c #130808",
"X  c #1C150D",
"o  c #1F1516",
"O  c #3E0708",
"+  c #360D07",
"@  c #2D140C",
"#  c #3B110F",
"$  c #2E1C15",
"%  c #261C17",
"&  c #331513",
"*  c #3F221B",
"=  c #30261C",
"-  c #362B26",
";  c #3C3C3B",
":  c #440707",
">  c #460C0C",
",  c #4A0D0C",
"<  c #520B0A",
"1  c #5E0909",
"2  c #4F1818",
"3  c #561312",
"4  c #541B19",
"5  c #660F0C",
"6  c #790D0C",
"7  c #7E100D",
"8  c #640F10",
"9  c #691616",
"0  c #7E1718",
"q  c #40241D",
"w  c #57251F",
"e  c #442B26",
"r  c #5B2625",
"t  c #453227",
"y  c #573D2D",
"u  c #483738",
"i  c #543F3B",
"p  c #6B2E2E",
"a  c #792B2A",
"s  c #712D31",
"d  c #763736",
"f  c #673638",
"g  c #49443F",
"h  c #5B453D",
"j  c #554339",
"k  c #654D3F",
"l  c #444242",
"z  c #4D4B4C",
"x  c #4B4844",
"c  c #5A4944",
"v  c #58514D",
"b  c #5B5551",
"n  c #724343",
"m  c #6B5A52",
"M  c #705C58",
"N  c #6D5249",
"B  c #63625F",
"V  c #7C695A",
"C  c #6C6B6B",
"Z  c #656564",
"A  c #766F6A",
"S  c #78726D",
"D  c #747474",
"F  c #7B7572",
"G  c #7C7C7C",
"H  c #8B0E0E",
"J  c #9B0E0E",
"K  c #910E0E",
"L  c #80110F",
"P  c #8F0F10",
"I  c #920F10",
"U  c #891211",
"Y  c #941112",
"T  c #991212",
"R  c #981C1D",
"E  c #A70F0F",
"W  c #BD0E0E",
"Q  c #A2120F",
"!  c #A8120F",
"~  c #BE0E10",
"^  c #A31112",
"/  c #AB1112",
"(  c #A41C1C",
")  c #AD1D1E",
"_  c #B31111",
"`  c #B81A1A",
"'  c #8A2423",
"]  c #822C2E",
"[  c #843A3A",
"{  c #982427",
"}  c #BD2324",
"|  c #AC2C2A",
" . c #C50F11",
".. c #C51111",
"X. c #CC1312",
"o. c #C41919",
"O. c #C41718",
"+. c #D31313",
"@. c #DB1413",
"#. c #D21A19",
"$. c #DB1A19",
"%. c #E31413",
"&. c #E41C1C",
"*. c #D22627",
"=. c #D82626",
"-. c #C93D3E",
";. c #D23536",
":. c #E62424",
">. c #E62C2C",
",. c #E63433",
"<. c #E83534",
"1. c #E73938",
"2. c #AE413B",
"3. c #AB5C5C",
"4. c #8D674F",
"5. c #876C5C",
"6. c #906351",
"7. c #9A745D",
"8. c #AE665A",
"9. c #B36C5F",
"0. c #896F62",
"q. c #877363",
"w. c #8A7566",
"e. c #9C7E6A",
"r. c #957A6A",
"t. c #817D7D",
"y. c #8C7D7D",
"u. c #827875",
"i. c #B76D6D",
"p. c #A47B65",
"a. c #B87A6A",
"s. c #D14748",
"d. c #CE5D5E",
"f. c #C65E5E",
"g. c #D15757",
"h. c #E44444",
"j. c #E94240",
"k. c #E54A4A",
"l. c #EA504F",
"z. c #E55B5A",
"x. c #C96464",
"c. c #D46666",
"v. c #E67575",
"b. c #83817F",
"n. c #9D8373",
"m. c #B28264",
"M. c #A18A79",
"N. c #BA957D",
"B. c #CA9777",
"V. c #818181",
"C. c #8B8584",
"Z. c #8D8D8D",
"A. c #988C8B",
"S. c #949494",
"D. c #9B9B9B",
"F. c #989696",
"G. c #AF9583",
"H. c #B49784",
"J. c #A19A9B",
"K. c #A0A09F",
"L. c #A7A7A7",
"P. c #AEAEAE",
"I. c #A9A6A7",
"U. c #AFB0AF",
"Y. c #B4B3B3",
"T. c #BDBDBC",
"R. c #D78182",
"E. c #D88788",
"W. c #D99494",
"Q. c #D89898",
"!. c #E58787",
"~. c #E69898",
"^. c #C2A38F",
"/. c #D9A589",
"(. c #D4A386",
"). c #CAAA95",
"_. c #D3AC93",
"`. c #ECBD9F",
"'. c #DEBBA4",
"]. c #DEB8B9",
"[. c #DFB2B2",
"{. c #DAA7A7",
"}. c #E5ABAB",
"|. c #E4BFA9",
" X c #E1B9A0",
".X c #E3B8B8",
"XX c #E8C0A7",
"oX c #F3CCB4",
"OX c #F9D1B8",
"+X c #C6C6C5",
"@X c #CDCCCC",
"#X c #D1CFD0",
"$X c #D4D4D4",
"%X c #DCDCDC",
"&X c #D9D6D6",
"*X c #E5CCCC",
"=X c #E5D6D6",
"-X c #E7DCDC",
";X c #E6E6E6",
":X c #EAE6E6",
">X c #EAEAEA",
/* pixels */
"D.Z.S.S.Z.Z.Z.S.S.S.F.F.F.F.F.F.S.F.F.F.F.F.F.F.S.S.S.F.F.F.D.F.F.F.F.F.F.F.F.F.F.D.D.D.D.D.L.C ",
"S.Z.P.P.P.P.P.P.P.P.P.P.P.P.P.P.P.P.P.P.P.P.P.P.P.P.P.P.P.P.P.P.P.P.P.P.P.P.P.P.P.P.P.P.P.L.T.D ",
"S.L.>X>X>X>X>X>X>X>X>X>X>X>X>X>X>X>X>X>X>X>X>X>X>X>X>X>X>X>X>X>X>X>X>X>X>X>X>X>X>X>X>X>X>X;X$XD ",
"F.L.>X;X;X;X;X;X;X>X>X>X>X>X>X>X;X;X;X;X;X;X;X;X;X;X;X;X;X;X>X>X>X>X>X>X>X>X>X>X>X;X;X;X;X;X$XG ",
"D.L.>X;X;X;X;X;X>X>X>X>X>X>X>X>X;X;X;X;X;X;X;X;X;X;X;X;X;X>X>X>X>X>X>X>X>X>X>X>X>X;X;X;X;X;X$XG ",
"D.L.>X;X;X;X;X>X>X>X>X>X>X>X;X;X;X;X;X;X;X;X;X;X;X;X;X;X>X>X>X>X>X>X>X>X>X>X>X>X;X;X;X;X;X;X$XG ",
"D.L.>X;X;X;X;X>X>X>X>X>X>X;X;X;X;X;X=X].Q.c.d.d.f.3.x.x.W..X=X:X>X>X>X>X>X>X;X;X;X;X;X;X;X;X$XG ",
"F.L.>X;X;X>X>X>X>X>X>X>X;X;X;X>X=XE.-.o.~ ~ ~ W ~ ~ ~ ~ ~ O.-.W.-X>X>X>X>X>X;X;X;X;X;X;X;X;X$XG ",
"F.L.>X;X>X>X>X>X>X>X>X;X;X;X;X;X}.h.$.+.+....... .......X.+.+.*.E.:X>X>X>X;X;X;X;X;X;X;X;X;X$XG ",
"D.L.>X>X>X>X>X>X>X>X;X;X;X;X;X=X!.j.<.&.%.%.%.%.%.%.%.%.%.%.%.+.g.*X>X>X;X;X;X;X;X;X;X;X;X;X$XG ",
"D.L.>X>X>X>X>X>X>X;X;X;X;X;X;X*Xv.l.j.&.%.%.%.%.%.%.%.%.%.%.%.@.s.[.;X;X;X;X;X;X;X;X;X;X;X;X$XG ",
"D.L.>X>X>X>X>X>X;X;X;X;X;X;X;X.Xz.j.,.&.%.%.%.%.%.%.%.%.%.%.%.@.;.Q.;X;X;X;X;X;X;X;X;X;X>X;X$XG ",
"D.L.>X>X>X>X>X;X;X;X;X;X;X;X;X}.k.<.:.%.%.%.%.%.%.%.%.%.%.%.%.%.=.R.=X;X;X;X;X;X;X;X>X>X>X;X$XG ",
"D.L.>X>X>X>X;X;X;X;X;X;X;X;X;X~.1.:.&.%.%.%.%.%.%.%.%.%.%.%.%.%.$.c.*X;X;X;X;X;X;X;X>X>X>X;X$XG ",
"D.L.>X>X>X;X;X;X;X;X;X;X;X;X-X!.,.&.%.%.%.%.%.%.%.%.%.%.%.%.%.%.$.s.].;X;X;X;X;X>X>X>X>X;X;X$XG ",
"D.L.>X>X>X;X;X;X;X;X;X;X;X;X=Xv.>.&.%.%.%.%.%.%.%.%.%.%.%.%.%.%.@.;.{.;X;X;X;X>X>X>X>X>X;X;X$XG ",
"D.L.>X;X;X;X;X;X;X;X;X;X;X;X*Xv.:.&.%.%.%.%.%.%.%.%.%.%.%.%.%.%.@.*.Q.;X;X;X>X>X>X>X>X;X;X;X$XG ",
"D.L.>X;X;X;X;X;X;X;X;X;X;X;X.Xh.&.%.%.%.%.%.%.%.%.%.%.%.%.%.%.%.%.+.R.;X;X;X>X>X>X;X;X;X;X;X$XG ",
"D.L.>X;X;X;X;X;X;X;X;X;X;X;X}.,.%.%.%.%.%.%.%.%.%.%.%.%.%.%.%.%.+._ i.&X>X>X>X>X>X;X;X;X;X;X$XG ",
"D.L.>X;X;X;X;X;X;X:X;X;X;X%XA.4 5 L 7 6 T _ / ! Q Q Q Q ^ P 5 < , + m +X>X>X>X>X;X;X;X;X;X;X$XG ",
"D.L.>X;X;X;X;X;X;X;X;X;X;X&XF X $ $ $ $ q * @ @ @ @ @ @ * e - - = % g U.;X>X;X;X;X;X;X;X;X;X$XG ",
"D.L.>X;X;X;X;X;X;X;X;X;X>X&XS t 7.e.r.M.G.M.V V q.q.q.w.G.^.^.^.N.4.j F.;X>X;X;X;X;X;X;X;X;X$XG ",
"D.L.>X;X;X;X;X;X;X;X;X>X>X&XC y B.XXoXoXoXoXoXoXoXoXoXoXoXoXoXoX`.m.c F.%X;X;X;X;X;X;X;X;X;X$XG ",
"D.L.>X;X;X;X;X;X;X;X;X>X>X;XD.m p. XOXOXOXOXOXOXOXOXOXOXOXOXOXOX_.5.S Y.;X;X;X;X;X;X;X;X;X;X$XG ",
"D.L.>X;X;X;X;X;X;X>X>X>X>X>X;XZ.x H.oXOXOXOXOXOXOXOXOXOXOXOXOXoXn.x L.;X;X;X;X;X;X;X;X;X>X;X$XG ",
"D.L.>X;X;X;X;X;X>X>X>X>X>X>X%XC.o - H.oXOXOXOXOXOXOXOXOXOXoXXX5.  - J.;X;X;X;X;X;X;X>X>X>X;X$XG ",
"D.L.>X;X;X;X;X>X>X>X>X>X>X#XF 9 Y r 0._.|.|.|.|.|.|.|.|.'.H.c . < T d F.&X;X;X;X;X;X>X>X>X;X$XG ",
"D.L.>X;X;X;X;X>X>X>X>X>X$Xy.a _ ..U # t j h h h h h h h i % . : / X.( n I.;X;X;X>X>X>X>X>X;X$XG ",
"D.L.>X;X;X>X>X>X>X>X>X>X+Xv 7 %.#.( 9 O : 1 1 1 1 1 1 1 1 : , 0 } @...9 C.&X;X>X>X>X>X>X>X;X$XG ",
"D.L.>X;X>X>X>X>X>X>X>XY.L.M ' X.` ] ) Y / @.%.%.%.%.%.%.+.T / { s o.` d u.T.@X>X>X>X>X>X>X;X$XG ",
"D.L.>X>X>X>X>X>X>X>X>Xz b r.9.| Y 8 ^ I / @.%.%.%.%.%.%.+.T ^ L , ( 2.a.m b.K.>X>X>X>X>X>X;X$XG ",
"D.L.>X>X>X>X>X>X>X>X>X; g 7./.8.9 1 E I / @.%.%.%.%.%.%.+.Y ^ K O a a.(.k F F.>X>X>X>X>X>X;X$XG ",
"D.L.>X>X>X>X>X>X>X>X>Xz v e./.6.3 K ..I / @.%.%.%.%.%.%.+.Y / ..6 w p.(.N G D.>X>X>X>X>X>X;X$XG ",
"F.L.>X>X>X>X>X>X>X>X>XD.Z.A m t , _ @.I / @.%.%.%.%.%.%.+.Y / %.J & j V F Y.+X>X>X>X>X>X>X;X$XG ",
"F.L.>X>X>X>X>X>X>X>X;X%X@XZ.B ; > _ @.I / @.%.%.%.%.%.%.+.Y / %.J & x C P.%X;X>X>X>X>X>X;X;X$XG ",
"S.L.>X>X>X>X>X>X>X>X;X;X;X$X+XF 2 _ @.I / @.%.%.%.%.%.%.+.Y / %.J e S.@X%X>X>X>X>X>X>X;X;X;X$XG ",
"S.L.>X>X>X>X>X>X>X;X;X;X:X;X;XZ.4 _ X.T _ @.%.%.%.%.%.%.+.^ / @.J t L.>X>X>X>X>X>X>X;X;X;X;X$XG ",
"S.L.>X>X>X>X>X>X;X;X;X;X:X:X;XS.r T ^ / o.#.X.X.X.X.X.X.#.` ^ / Y c Y.>X>X>X>X>X>X;X;X;X;X;X$XG ",
"S.L.>X>X>X>X;X;X;X;X;X;X;X;X;X+Xy.a T ' [ d < < < < < 3 [ ] R K f J.$X>X>X>X>X>X;X;X;X;X;X;X$XG ",
"S.L.>X>X>X>X;X;X;X;X;X;X;X;X;X;XL.i p n u l t.C.C.C.C.G - i d r z +X>X>X>X>X>X;X;X;X;X;X;X;X$XG ",
"S.L.>X>X>X;X;X;X;X;X;X;X;X;X>X>XT.Z l l l C $X;X;X;X;X@Xl l l l G $X>X>X>X>X;X;X;X;X;X;X;X;X$XG ",
"S.L.>X;X;X;X;X;X;X;X;X;X;X;X>X>X>XY.;   D $X;X;X;X;X>X>X@Xl   C >X>X>X>X>X;X;X;X;X;X;X;X;X;X$XG ",
"F.L.>X;X;X;X;X;X;X;X;X;X>X>X>X>X;X;X;X;X;X;X;X;X;X>X>X>X>X>X>X>X>X>X>X>X;X;X;X;X;X;X;X;X;X;X$XG ",
"F.L.>X;X;X;X;X;X;X;X;X;X>X>X>X>X;X;X;X;X;X;X;X;X>X>X>X>X>X>X>X>X>X>X>X;X;X;X;X;X;X;X;X;X;X;X$XG ",
"F.L.>X;X;X;X;X;X;X;X;X;X;X;X;X;X;X;X;X;X;X;X;X;X>X>X>X>X>X>X>X>X>X>X;X;X;X;X;X;X;X;X;X;X;X;X$XG ",
"D.L.;X;X;X;X;X;X;X;X;X;X;X;X;X;X;X;X;X;X;X;X;X;X;X;X;X;X;X;X;X;X;X;X;X;X;X;X;X;X;X;X;X;X;X;X$XG ",
"L.Y.$X$X$X$X$X$X$X$X$X$X$X$X$X$X$X$X$X$X$X$X$X$X$X$X$X$X$X$X$X$X$X$X$X$X$X$X$X$X$X$X$X$X$X$X@XG ",
"t.V.V.V.V.V.V.V.V.V.V.V.G G G G G G G G G G G G G G G G G G G G G G G G G G G G G G G G G G G C "
};
