/* XPM */
static char *_d10f2697a8a4ccead87d9806468fbc9[] = {
/* columns rows colors chars-per-pixel */
"48 48 227 2 ",
"   c #030302",
".  c #0B0B04",
"X  c #0D0605",
"o  c #130D06",
"O  c #160906",
"+  c #171109",
"@  c #191818",
"#  c #260505",
"$  c #3C0D09",
"%  c #27170A",
"&  c #241C16",
"*  c #361B11",
"=  c #36150A",
"-  c #2F2116",
";  c #372514",
":  c #3C230D",
">  c #393939",
",  c #460A08",
"<  c #580B0A",
"1  c #571812",
"2  c #650B0A",
"3  c #7A0D0E",
"4  c #760E0E",
"5  c #7D0E10",
"6  c #770F10",
"7  c #6E1610",
"8  c #4D2A13",
"9  c #472C18",
"0  c #552D18",
"q  c #4C341B",
"w  c #55351D",
"e  c #5C391F",
"r  c #59361B",
"t  c #47260E",
"y  c #662918",
"u  c #643618",
"i  c #723D1D",
"p  c #712E1B",
"a  c #563723",
"s  c #49312B",
"d  c #623D21",
"f  c #78392D",
"g  c #6B4424",
"h  c #7A4321",
"j  c #784823",
"k  c #775328",
"l  c #754B35",
"z  c #795339",
"x  c #6F4336",
"c  c #55493E",
"v  c #763B40",
"b  c #474648",
"n  c #5B5555",
"m  c #574948",
"M  c #67584C",
"N  c #6D584D",
"B  c #7D6A5E",
"V  c #7B6761",
"C  c #850D0E",
"Z  c #9A0F10",
"A  c #970F10",
"S  c #871212",
"D  c #9E1011",
"F  c #961817",
"G  c #8E110F",
"H  c #A30F0E",
"J  c #BE0E0E",
"K  c #AB110F",
"L  c #A90F11",
"P  c #BD0E10",
"I  c #AB1311",
"U  c #A61514",
"Y  c #BC1313",
"T  c #B51814",
"R  c #902318",
"E  c #B22A1A",
"W  c #9A2727",
"Q  c #8F3232",
"!  c #A43331",
"~  c #AB3129",
"^  c #C40F10",
"/  c #C31212",
"(  c #CC1313",
")  c #C81B16",
"_  c #D41213",
"`  c #DA1414",
"'  c #DB1B19",
"]  c #E31413",
"[  c #E51C1B",
"{  c #DA3B25",
"}  c #C62021",
"|  c #E62726",
" . c #E53530",
".. c #91491F",
"X. c #834522",
"o. c #8D4923",
"O. c #8A4924",
"+. c #934A22",
"@. c #994E25",
"#. c #954C29",
"$. c #9B5228",
"%. c #814D3B",
"&. c #895934",
"*. c #A3552A",
"=. c #AB5A2D",
"-. c #A65C2B",
";. c #AF5D31",
":. c #B35E32",
">. c #B44828",
",. c #926632",
"<. c #AB622D",
"1. c #B2682E",
"2. c #A96833",
"3. c #B46333",
"4. c #BE6436",
"5. c #B46B32",
"6. c #BA6D33",
"7. c #BD6438",
"8. c #BF6A38",
"9. c #BB7234",
"0. c #B9793A",
"q. c #C74B2A",
"w. c #C8542E",
"e. c #CE542F",
"r. c #C06537",
"t. c #C16538",
"y. c #C56C3A",
"u. c #C56937",
"i. c #CB743C",
"p. c #C47B3A",
"a. c #CC7B3D",
"s. c #C17737",
"d. c #D17C3E",
"f. c #D8703D",
"g. c #D66236",
"h. c #EA5B32",
"j. c #8C5440",
"k. c #935749",
"l. c #A65B44",
"z. c #99694A",
"x. c #866859",
"c. c #9A7157",
"v. c #BD6A4E",
"b. c #B6674B",
"n. c #A66E50",
"m. c #876F66",
"M. c #B17D6A",
"N. c #EC5857",
"B. c #EB4A48",
"V. c #C06C4F",
"C. c #CB7E41",
"Z. c #D37E40",
"A. c #C26E50",
"S. c #D26D49",
"D. c #AC823E",
"F. c #CD833D",
"G. c #D2873F",
"H. c #B88451",
"J. c #9B8474",
"K. c #B28872",
"L. c #CA8842",
"P. c #D58341",
"I. c #D98643",
"U. c #D58C43",
"Y. c #DC8B44",
"T. c #D18748",
"R. c #DC9244",
"E. c #DC9C4D",
"W. c #D59648",
"Q. c #C99A4A",
"!. c #E08E46",
"~. c #E18F48",
"^. c #E29246",
"/. c #E39947",
"(. c #E49349",
"). c #E59B49",
"_. c #EA9C4B",
"`. c #F29245",
"'. c #DBA952",
"]. c #D6A54F",
"[. c #EDA24C",
"{. c #E8A54D",
"}. c #F1A54E",
"|. c #F6AC4F",
" X c #F8AC4F",
".X c #E8A952",
"XX c #F6AC50",
"oX c #F8AD50",
"OX c #F4A750",
"+X c #EFB456",
"@X c #EBB95A",
"#X c #F6B454",
"$X c #F8B454",
"%X c #F2BB5A",
"&X c #F8BD5A",
"*X c #F8B957",
"=X c #D89B75",
"-X c #C48C6D",
";X c #EFC35E",
":X c #F2C45F",
">X c #F9C35D",
",X c #F9C761",
"<X c #FACC63",
"1X c #F1C561",
"2X c #EEC562",
"3X c #847E87",
"4X c #AE9588",
"5X c #D79F84",
"6X c #F49392",
"7X c #C5A794",
"8X c #D4A68A",
"9X c #EAB99A",
"0X c #E6B08F",
"qX c #D9AEAF",
"wX c #D9BCAC",
"eX c #E5BAA3",
"rX c #ECC4AB",
"tX c #F5CCB3",
"yX c #F8CFB7",
"uX c #F9C0BF",
"iX c #F9D0B9",
"pX c #F4C8AD",
"aX c #F4D6C8",
"sX c #EBD5CF",
"dX c #D9D8E6",
"fX c #E6E5F5",
"gX c #C3C3D0",
/* pixels */
";X.XE.L.o.i *.4.:.+.h $.4.4.4.*.u % 1X.X5.X.h L.E.0.o.% D.@X@X-.u Q.,X>X&X.XE.W.4.@.t 8 r.I.t.4.",
".XU.y.:.+.$.:.4.:.+.#.;.4.4.4.*.i 0 .XI.3.=.i.t.4.=.o.0 3.E..X8.@.].>X$XXXP.i.i.3.@.u g a._.d.i.",
"8.).I.:.O.= O.r.:.+.8 h r.r.4.*.*.7.8._.I.Z.[.i.r.=...8._.I.r.4.@.].<X<XoX XXX_.4.$.;.i.XXr.[.^.",
"@XT.4.:.+.7.^.~.:.+.:.Y.).4.4.*.u % 2XC.Y.).y._.d.=.+.XXi.Y._.t.@.U.&X<XoXXX^.3.$.).1.<.XX4.[.^.",
";X{.a.:.@.Y.I.i.:.+.a.I.I.Y.y.*.,.D.#XS.q.q.e.w.+.~ E u.Y.I.a.*.+.E.&X*XXXY.I.P.:.6.p.F.P.Y.I.I.",
"%X$XP.3.9.XX^.i.:.+.R.).P.^.y.>.>.) Y P P J J P P A S L Y E >.+.i Q.&X X XI.^.}.P.9.a.G.P.^.P.I.",
"XXoXF.5./. XXX^.:.+.R. X_.i.w._ ( ^ ^ P P P P P P P P A C L ( T t 0. X X XXXXXXX|.).6.9.XXi.[.).",
":X$X}.U.-.XXoX^.3.+.R. XXX}.{ [ [ ] ] ` _ _ _ _ _ _ _ ` ` D / / 7 0.XXoX X X XXX}.<.P.[.oX|. X|.",
":X$XG.9.R. XoX}.G.+.R.XXoX|. .N.N.[ ] ] ] ] ] ] ] ] ] ] ] ] , I A 0.$X>XXX X XXX|.R.9.s.oXoXXX_.",
":X$Xp.2.&XXX X/.p.p._. X X`. .N.B.] ] ] ] ] ] ] ] ] ] ] ] ] , 2 P L.&X&X X X X X}.F.p.F. X XoX^.",
":X*XU.0.'.XX).p.9.|. X XoX`.| N.| ] ] ] ] ] ] ] ] ] ] ] ] ] U O H W.>X X XoX#X*X}.6.F./.oX XoX^.",
":X*X&X'.$.XX9.9.}.XX XXXXXf. .B.[ ] ] ] ] ] ] ] ] ] ] ] ] ] Y . S y.>X X XXX*X>XoXXX5.<.XX XoX^.",
"XX>X&X*X<XXXoXF.-.|.XXI.d.h.| | ] ] ] ] ] ] ] ] ] ] ] ] ] ] / . , q.>X XXX,X>X X X XXXXXXX XoX^.",
"OX>X&X$X&XXXG.s.U.|.Y.I.Y.{  .[ ] ] ] ] ] ] ] ] ] ] ] ] ] ] Y . $ q.&XXX>X&X&X&XoX X X X X XoX^.",
"}.&X&X$XXXXXG.s.U.XXY.Y.f.'  .] ] ] ] ] ] ] ] ] ] ] ] ] ] ] / o O U }.&X>X&X&X&XoX X X X X XoX^.",
"}.#X&X>XoX X XU.6.|.[.I.e.[ | ] ] ] ] ] ] ] ] ] ] ] ] ] ] ] _ $ 4 Y _.,X*X>X&X X XXX_.). X XoX^.",
"OX>X&X$X X X X|.|.|.P.Y.S.| | ] ] ] ] ] ] ] ] ] ] ] ] ] ] ] ] _ ] ( g.#X>X*X#X X|.[.5.5.oX XoX^.",
"}.*X&X&XoX X X XXXXX_.I.{ ] ] ] ] ] ] ] ] ] ] ] ] ] ] ] ] ] ] ] ] _ e.>X*X>X&X X}.9.F./. XoXoX^.",
"+X$X*X*XXX X X X X X^.Y.{ ] ] ] ] ] ] ] ] ] ] ] ] ] ] ] ] ] ] ] ] _ ~ +X&X&X$XXX}.F.p.F. X XoX^.",
"%X&X$X X X X X X|. XY.P.y < 6 G C 3 D Y Y T I K K K I I I C < < $ X + .X>X&X$XXX|.R.9.p. X XoX^.",
"XX>X&XXX X X X X X X|.p.o . . . . . . . . . . . . . . . . . . . X X o ].#X>X&X}.[.<.U.}. XoXOX^.",
":X*X&X>X X X X X XXXa.p.X z x.m M N B J.M c M N N N M V J.B x.B x.z.o ,.<X*X^.i.|.XX1.<.oXoXi.Z.",
"#X>X&X&X>X X X X X X_.L.  z.=X7X7X7X7XaXaXaXiXiXiXiXaXaXwX7X7X7X8X-X+ ,.&XY.I.!.Z.9.p.R.XXP.!.Y.",
"+X>X&X&X&XXX X X X X XW.+ z.5XrXyXiXaXfXdXsXiXtXyXaXdXfXsXiXiXtX9XH.& 2.oXY.I.I.4.@.U.XXXXP.Y.Z.",
"%X$X*X>X$X X X X X X X|.{.q 9 &.tXiXaXfXb B yX=XeX7Xo gXsXiXiXc.d % ].}.$X X).i.4.@.U.XX XoXZ.y.",
"}.XXXX*X<XXX X X X X X X Xq o ; c.8XiXsX4X7XyX9XpXeXJ.sXaXrXc.a % + '.XX<X*XoX_.4.@.U.XXXXXXXX^.",
"}. X&X>X$X,XL.F.XXXX X}.L.0 O   e K.eXiXiXyXyXpXtXiXiXiXrX8Xd + X $ H.@X*XXX X_.4.@.U.XX X XoX^.",
"}. X$X&X&X&X0.9.XX X}.U.X H C X e d z tXtXyXtX=X9XyXyXyXM.d d % , _ # ,.%X$X_.P.4.@.U.XX X XXX^.",
"#X#X X$X>XU.s.9.R.|.&.= ( ` ` / 0 e g l l n.=X=X=X-Xl l g d q U _ ] ( 7 q _.Y.i.4.@.U.XX XXX_.P.",
"1X*XXXoX}.@.F.F.1.|.k # ] ] } ! R p w w d z z.z.z.&.d r w e R W ~ ] ] < - a.P._.y.*.U.[.XX}.i.y.",
"1X$X&X>X X/.9.9._.).k * ` ] ~ m ' R 9 0 e d d d d d d 0 0 y ] v f ] ` 7 ; R.Y.d._.).6.9.XXi.).Y.",
"1X$X&X>XoXXX/.p.s.X m.eX2 Y C O _ Z 5 ` p w d 9 e a 9 ) D 4 ] $ , ` 4 K.7X  }.!.d.6.p.R.XX(.P.i.",
"%X&X&X>X&XXXR.p.F.X N 5X-X! < O _ Z 5 ] Y R w q q y T ` D 3 ] , # F M.5XK.  P.Y.P.s.p.U. XoXY.a.",
"+X>X&X*X>XXXp.9.).X N 0X9Xf < 2 ` Z 5 ] ] ~ x.m x.l.] ] D 3 ] C < 1 8X0XK.  :.d.).R.9.9.XX_.|.^.",
":X*XXX X X XXXF.<.X m.tX=Xs 2 ] ] Z 5 ] ] N.uX3XqX6X] ] D 3 ] ] H o -X9X7X  Z._.r.@.U.XXXXr.[.^.",
"+X>X&X X X X XY.:.-.g X X   2 ] ] Z 5 ] ] N.uX3XqX6X] ] D 3 ] ] H     X - -.=.i.4.@.U. XXX_.Z.y.",
"%X&X&X&XoX>X$X^.:.+.2.&.&.+ 2 ] ] Z 5 ] ] N.uX3XqX6X] ] D 3 ] ] H . k j j p.P.I.4.@.U.XXXXP.Y.Z.",
"%X&X&X>X&X>X$X^.:.+.R.[.P.* 2 ] ] Z 5 ] ] N.uX3XqX6X] ] D 3 ] ] H + Q.T.*.p.U.Y.4.@.U. XXXd.^.P.",
"OX>X&X*X,X{.}.^.:.+.U.I.y.* 2 ] ] Z 5 ] ] N.uX3XqX6X] ] D 3 ] ] H o E.,X4.@.*.y.4.@.U. XXX}.a.y.",
"[.$X&X>XXX-.U.!.:.+.4.Y.Y.* 2 ` 5 I ` ] ] N.uX3XqX6X] ] ` ( 6 / H o p.#Xr.@.5.).4.@.U.XXXXi.).Y.",
"%X$X#X{.5.U.9.3.:.+.F.Y.i.i 1 C H F W ! S Q m.b V k.3 ! W W H C 7 g P.d.r.@.=.i.4.@.U.XXXX).P.i.",
"%X&X$X/.=.p.p.8.:.+.a.I.Z.4.0 O ) f > n & o o o o o + b b s ' , % 9.Y.I.4.@.<.Z.4.@.U.}.Y.XXY.a.",
"#X>X&X_.7...p.P.:.+.6.Y.Y.7.0 X n n b X i <./.{.F.a.R.- > n n @ + <.P._.r.@.1.!.4.@.C.^.a._.XX^.",
":X*XXX).4.+.=.r.3.+.U.I.r.4.O.h & @ - #.$.5.[.XXXXY.r.L.a @ @ r #.(.).r.4.@.*.4.3.@.;.i.XXr.[.^.",
"C._.~.y.4.o.u h :.+.6.y.4.4.@.u : r k i.*.h e 5._.}._.i.X.0 8 X.'.U.y.4.4.@.*.4.3.@.u u i._.d.y.",
"U.I.Y.P.4.+.X.$.:.+.i #.r.4.@.8 j !.P.y.*.O.O.F.I.P.P.r.4.4.3.+.&.2.t.4.4.@.X.h :.@.8 r !.P.t.r.",
"Y.i.Z.I.7.o.O.$.:.+.t h r.4.@.8 j ^.t.t.*.o.o.P.i.r.7.7.r.r.3.o.: #.r.r.r.@.u t :.@.8 r ^.t.r.4.",
"v.v.A.A.v.l.%.j.v.l.x k.V.v.l.l j.A.V.A.b.&.l b.A.V.V.V.V.V.b.l.x k.V.V.V.l.%.%.v.l.%.%.A.V.V.A."
};
