/* XPM */
static char *_d76d52b26454137abe9626c838865db[] = {
/* columns rows colors chars-per-pixel */
"48 48 213 2 ",
"   c #020101",
".  c #0C0B04",
"X  c #160A06",
"o  c #1B120B",
"O  c #191A1A",
"+  c #280907",
"@  c #390908",
"#  c #36190D",
"$  c #3A1713",
"%  c #2B1C12",
"&  c #27251E",
"*  c #352216",
"=  c #3F1E20",
"-  c #2A2A29",
";  c #272424",
":  c #3C2D26",
">  c #3C322B",
",  c #3A3938",
"<  c #440E0A",
"1  c #490C0A",
"2  c #530D0A",
"3  c #4B1C10",
"4  c #620D0A",
"5  c #6C0E0C",
"6  c #67100E",
"7  c #671611",
"8  c #771A1A",
"9  c #750E0C",
"0  c #52321C",
"q  c #5D391F",
"w  c #5A351D",
"e  c #4F2A1B",
"r  c #682A19",
"t  c #782D17",
"y  c #60321C",
"u  c #7E371C",
"i  c #401E21",
"p  c #46362A",
"a  c #5F3B20",
"s  c #523826",
"d  c #463D33",
"f  c #593932",
"g  c #663625",
"h  c #773933",
"j  c #48423E",
"k  c #55493E",
"l  c #58473B",
"z  c #6D472B",
"x  c #684328",
"c  c #754B2E",
"v  c #7A4F31",
"b  c #7A5337",
"n  c #614532",
"m  c #494848",
"M  c #554A46",
"N  c #5B544C",
"B  c #585757",
"V  c #624646",
"C  c #69594D",
"Z  c #645345",
"A  c #685C54",
"S  c #755047",
"D  c #746357",
"F  c #6A6A6C",
"G  c #746F6C",
"H  c #737473",
"J  c #7C7C7C",
"K  c #6F6A72",
"L  c #830D0E",
"P  c #890F0E",
"I  c #9C0F0F",
"U  c #8A110E",
"Y  c #8A0E10",
"T  c #861C17",
"R  c #981113",
"E  c #A80F10",
"W  c #BF0E10",
"Q  c #A21111",
"!  c #AB1111",
"~  c #AB1C1C",
"^  c #A61D1A",
"/  c #B31211",
"(  c #BB1211",
")  c #BB1A1B",
"_  c #B81C16",
"`  c #B00F0F",
"'  c #99231B",
"]  c #872719",
"[  c #B7211B",
"{  c #9D2822",
"}  c #833A3A",
"|  c #933031",
" . c #843D27",
".. c #A82524",
"X. c #A7342D",
"o. c #A22D30",
"O. c #AC3133",
"+. c #C20F11",
"@. c #C41312",
"#. c #CA1312",
"$. c #C71A1B",
"%. c #DE1413",
"&. c #D21515",
"*. c #E31413",
"=. c #E41919",
"-. c #C32A2C",
";. c #DC2F2F",
":. c #C83B3B",
">. c #E42222",
",. c #E82D2C",
"<. c #E7302F",
"1. c #E83534",
"2. c #E63938",
"3. c #885D3E",
"4. c #E4403F",
"5. c #985646",
"6. c #845E45",
"7. c #AD4848",
"8. c #8B644C",
"9. c #9B6B54",
"0. c #976848",
"q. c #A37A5F",
"w. c #B2715B",
"e. c #916D61",
"r. c #807F7F",
"t. c #867166",
"y. c #B27566",
"u. c #C64446",
"i. c #CA5B5C",
"p. c #D24546",
"a. c #EB4A49",
"s. c #E24D4D",
"d. c #EB5453",
"f. c #C1605E",
"g. c #D07173",
"h. c #D06667",
"j. c #EE6968",
"k. c #E46161",
"l. c #E47474",
"z. c #778355",
"x. c #BA815D",
"c. c #AD866C",
"v. c #AD8F7D",
"b. c #B88F73",
"n. c #C59477",
"m. c #D99A73",
"M. c #847E87",
"N. c #828282",
"B. c #8E8E8D",
"V. c #908E8B",
"C. c #8C9080",
"Z. c #949494",
"A. c #9B9B9B",
"S. c #999998",
"D. c #909486",
"F. c #AB9080",
"G. c #BC9E8C",
"H. c #B69784",
"J. c #A09D97",
"K. c #BD8B8B",
"L. c #A7A7A7",
"P. c #AEAEAE",
"I. c #A8A9A5",
"U. c #BABBBA",
"Y. c #B5B5B5",
"T. c #C19A80",
"R. c #C89D9D",
"E. c #D99D9D",
"W. c #D69797",
"Q. c #CD8786",
"!. c #E39495",
"~. c #D9A68B",
"^. c #CDAD9A",
"/. c #C5A697",
"(. c #D1AD96",
"). c #DDB49B",
"_. c #E6B79B",
"`. c #E2A885",
"'. c #D7A1A1",
"]. c #CBB3A7",
"[. c #D4B7A6",
"{. c #C8BBB6",
"}. c #DEB7B7",
"|. c #C3ABA0",
" X c #E2A5A5",
".X c #E4A8A8",
"XX c #F5A1A0",
"oX c #E9BEA3",
"OX c #E3B9B9",
"+X c #BCC0B2",
"@X c #D3C1BB",
"#X c #ECC5AE",
"$X c #E7C1A9",
"%X c #EBCAB8",
"&X c #F4CCB3",
"*X c #F4CFBB",
"=X c #F6D1BD",
"-X c #F9D0B8",
";X c #F2C8AF",
":X c #C1C1C1",
">X c #CDCDCD",
",X c #DCC7C5",
"<X c #D4D4D4",
"1X c #DDDCDC",
"2X c #DCDED5",
"3X c #E3C8C8",
"4X c #E4DCDC",
"5X c #E9D8D6",
"6X c #F1D5C9",
"7X c #E4DCE3",
"8X c #E6E6E6",
"9X c #EAEAEA",
"0X c #EAE5E5",
/* pixels */
"S.B.Z.Z.B.B.B.Z.Z.Z.Z.Z.Z.Z.Z.Z.Z.Z.Z.Z.Z.Z.Z.Z.Z.Z.Z.Z.Z.Z.S.Z.Z.Z.Z.Z.Z.Z.Z.Z.Z.S.S.S.S.A.L.F ",
"Z.B.P.P.P.P.P.P.P.P.P.P.P.P.P.P.P.P.P.P.P.P.P.P.P.P.P.P.P.P.P.P.P.P.P.P.P.P.P.P.P.P.P.P.P.L.U.H ",
"Z.L.9X9X9X9X9X9X9X9X9X9X9X9X9X9X9X9X9X9X9X9X9X9X9X9X9X9X9X9X9X9X9X9X9X9X9X9X9X9X9X9X9X9X9X8X<XH ",
"Z.L.9X8X8X8X8X8X8X9X9X9X9X9X9X9X8X8X8X8X8X8X8X8X8X8X8X8X9X8X9X9X9X9X9X9X9X9X9X9X9X9X9X9X8X8X<XJ ",
"S.L.9X8X8X8X8X8X9X9X9X9X9X9X9X9X8X8X8X8X8X8X8X8X8X8X8X8X9X9X9X9X9X9X9X9X9X9X9X9X9X8X8X8X8X8X<XJ ",
"S.L.9X8X8X8X8X9X9X9X9X9X9X9X8X8X8X8X8X8X8X8X8X8X8X8X8X8X9X9X9X9X9X9X9X9X9X9X9X9X8X8X8X8X8X8X<XJ ",
"S.L.9X8X8X8X8X9X9X9X9X9X9X8X8X8X8X8X4X3X}.E.E.E.E.R.R.'.}.3X0X9X9X9X9X9X9X9X8X8X8X8X8X8X8X8X<XJ ",
"Z.L.9X8X8X9X9X9X9X9X9X9X8X8X8X8X3XW.i.:.-.) $.@.) ~ ^ ^ O.u.h.OX9X9X9X9X9X9X8X8X8X8X8X8X8X8X<XJ ",
"Z.L.9X8X9X9X9X9X9X9X9X8X8X8X8X8X!.;.&.#.+.+.W W W W ( ` I R $.p.OX9X9X9X9X8X8X8X8X8X8X8X8X8X<XJ ",
"S.L.9X9X9X9X9X9X9X9X8X8X8X8X8X0X2.1.,.*.*.*.%.%.*.*.%.%.*.&.I @.u.9X9X9X8X8X8X8X8X8X8X8X8X8X<XJ ",
"S.L.9X9X9X9X9X9X9X8X8X8X8X8X8X0Xa.d.2.*.*.*.*.*.*.*.*.*.*.*.U P -.5X8X8X8X8X8X8X8X8X8X8X8X8X<XJ ",
"S.L.9X9X9X9X9X9X8X8X8X8X8X8X8X.X1.d.>.*.*.*.*.*.*.*.*.*.*.*.( X Q }.8X8X8X8X8X8X8X8X8X8X9X8X<XJ ",
"A.L.9X9X9X9X9X8X8X8X8X8X8X8X8X!.1.a.*.*.*.*.*.*.*.*.*.*.*.*.%.. 5 '.8X8X8X8X8X8X8X8X9X9X9X8X<XJ ",
"A.L.9X9X9X9X8X8X8X8X8X8X8X8X0Xl.<.1.*.*.*.*.*.*.*.*.*.*.*.*.*.. < g.8X8X8X8X8X8X8X8X9X9X9X8X<XJ ",
"A.L.9X9X9X8X8X8X8X8X8X8X8X8X4Xk.<.=.*.*.*.*.*.*.*.*.*.*.*.*.*.. + i.4X8X8X8X8X8X9X9X9X9X8X8X<XJ ",
"A.L.9X9X9X8X8X8X8X8X8X8X8X8X3Xs.1.*.*.*.*.*.*.*.*.*.*.*.*.*.*.X X 7.,X8X8X8X8X9X9X9X9X9X8X8X<XJ ",
"A.L.9X8X8X8X8X8X8X8X8X8X8X8XOXd.>.*.*.*.*.*.*.*.*.*.*.*.*.*.*.6 P :.}.8X8X8X9X9X9X9X9X8X8X8X<XJ ",
"S.L.9X8X8X8X8X8X8X8X8X8X8X8X!.4.=.*.*.*.*.*.*.*.*.*.*.*.*.*.*.*.*.$.f.8X8X8X9X9X9X8X8X8X8X8X<XJ ",
"S.L.9X8X8X8X8X8X8X8X8X8X8X8Xl.>.*.*.*.*.*.*.*.*.*.*.*.*.*.*.*.*.%.#.X.1X9X9X9X9X9X8X8X8X8X8X<XJ ",
"S.L.9X8X8X8X8X8X8X8X8X8X8X7Xy.~ ( ( ( ( @.#.#.#.@.@.@.@.@.( / ! Q 9 r {.9X9X9X9X8X8X8X8X8X8X<XJ ",
"S.L.9X8X8X8X8X8X8X8X8X8X8X<XM + 1 2 < 1 6 5 5 4 4 4 4 4 4 2 @ + + . & {.9X9X8X8X8X8X8X8X8X8X<XJ ",
"A.L.9X8X8X8X8X8X8X8X8X8X8X>X, s Z d k Z D N d d k k k k D D C C C n > U.9X9X8X8X8X8X8X8X8X8X<XJ ",
"A.L.9X8X8X8X8X8X8X8X8X9X9X>X, 6.b.F.H.G.[.{.|./.^.^.].].[./.G.G.G.9.> Y.9X8X8X8X8X8X8X8X8X8X<XJ ",
"A.L.9X9X8X8X8X8X8X8X8X9X9X>Xj 8.~.oX#X%X5X7X5X=X&X=X6X7X5X%X#X$X_.9.: Y.8X8X8X8X8X8X8X8X8X8X<XJ ",
"A.L.9X9X8X8X8X8X8X9X9X9X9X9X<XN s 0.-X=X5XF C ^.m.).t.m 4X6X-Xb.c # u R.4X8X8X8X8X8X8X8X9X8X<XJ ",
"A.L.9X8X8X8X8X8X9X9X9X9X9X9X<XM X * q.).*X[.^.#XoX;X[.^.*X&Xc.s o # t 5.,X8X8X8X8X8X9X9X9X8X<XJ ",
"A.L.9X8X8X8X8X9X9X9X9X9X9X1XV.g + . b c.).-X-X-X_.&X-X-XoXT.b % X 7 r  .@X8X8X8X8X8X9X9X9X8X<XJ ",
"A.L.9X8X8X8X8X9X9X9X9X9X1XJ.e E L < a z q.(.).oXm._._.(.b.b a 3 2 ( 6 S {.8X8X8X9X9X9X9X9X8X<XJ ",
"A.L.9X8X8X9X9X9X9X9X9X9XI.* ! %.$...r g x z 3.w.x.x.0.z x a r ' ) %.@.$ Z.8X8X9X9X9X9X9X9X8X<XJ ",
"A.L.9X8X9X9X9X9X9X9X9X2Xz.$ / *.o.h ^ r 0 q x c v v z q 0 0 ' | } *.#.@ B.1X9X9X9X9X9X9X9X8X<XJ ",
"A.L.9X9X9X9X9X9X9X9X1XC.N e.{ #.8 = @.8 T t q a 0 a q r T 7 / 8 i &.^ 9.D J.8X9X9X9X9X9X9X8X<XJ ",
"S.L.9X9X9X9X9X9X9X9X1XH p n.y.X.1 + @.Y ! _ ] y e w t ~ ( L ( 4 X ..w.~.l G 1X9X9X9X9X9X9X8X<XJ ",
"S.L.9X9X9X9X9X9X9X9X8XH : n._.5.@ @ @.Y ! *.[ g s g { *.@.L ( 5 + } ~.`.f G 1X9X9X9X9X9X9X8X<XJ ",
"Z.L.9X9X9X9X9X9X9X9X8XB.N v.q.: L *.@.Y ! *.a.XXM. Xj.*.@.L ( *.@.% 8.H.A V.1X9X9X9X9X9X9X8X<XJ ",
"Z.L.9X9X9X9X9X9X9X9X8X>XS.N d o L *.@.Y ! *.a.XXM. Xj.*.@.L ( *.@.X > j V.>X9X9X9X9X9X9X8X8X<XJ ",
"Z.L.9X9X9X9X9X9X9X9X8X8X1XU.D.& L *.@.Y ! *.a.XXM. Xj.*.@.L ( *.@.- Z.Y.<X9X9X9X9X9X9X8X8X8X<XJ ",
"Z.L.9X9X9X9X9X9X9X8X8X8X8X8X+Xm L *.@.Y ! *.a.XXM. Xj.*.@.L ( *.@., :X9X9X9X9X9X9X9X8X8X8X8X<XJ ",
"Z.L.9X9X9X9X9X9X8X8X8X8X8X8X<XB L %./ Q ( *.a.XXM. Xj.*.#.Q ! &.@., :X9X9X9X9X9X9X8X8X8X8X8X<XJ ",
"Z.L.9X9X9X9X8X8X8X8X8X8X8X8X1XF T / Y ) $.@.:.Q.K K.i.@.$.$.R Q ! B >X9X9X9X9X9X8X8X8X8X8X8X<XJ ",
"Z.L.9X9X9X9X8X8X8X8X8X8X8X8X8X9XF + ) f m ;           O m , ~ 4 & 9X9X9X9X9X9X8X8X8X8X8X8X8X<XJ ",
"Z.L.9X9X9X8X8X8X8X8X8X8X8X8X9X9XH ; V m , N.U.:X:X:X:XS., m M > , 9X9X9X9X9X8X8X8X8X8X8X8X8X<XJ ",
"Z.L.9X8X8X8X8X8X8X8X8X8X8X8X9X9XP.H - , B U.8X8X8X8X9X>XH , - B Z.9X9X9X9X8X8X8X8X8X8X8X8X8X<XJ ",
"Z.L.9X8X8X8X8X8X8X8X8X8X9X9X9X9X8X<XB.Z.:X8X8X8X8X9X9X9X<XL.B.:X9X9X9X9X8X8X8X8X8X8X8X8X8X8X<XJ ",
"Z.L.9X8X8X8X8X8X8X8X8X8X9X9X9X9X8X8X8X8X8X8X8X8X9X9X9X9X9X9X9X9X9X9X9X8X8X8X8X8X8X8X8X8X8X8X<XJ ",
"S.L.9X8X8X8X8X8X8X8X8X8X8X8X8X8X8X8X8X8X8X8X8X8X9X9X9X9X9X9X9X9X9X9X8X8X8X8X8X8X8X8X8X8X8X8X<XJ ",
"A.L.8X8X8X8X8X8X8X8X8X8X8X8X8X8X8X8X8X8X8X8X8X8X8X8X8X8X8X8X8X8X8X8X8X8X8X8X8X8X8X8X8X8X8X8X<XJ ",
"L.Y.<X<X<X<X<X<X<X<X<X<X<X<X<X<X<X<X<X<X<X<X<X<X<X<X<X<X<X<X<X<X<X<X<X<X<X<X<X<X<X<X<X<X<X<X>XJ ",
"r.N.N.N.N.N.N.N.N.N.N.N.J J J J J J J J J J J J J J J J J J J J J J J J J J J J J J J J J J J F "
};
