/* XPM */
static char *_6b2beea008c4f768711dbf1c67474a9[] = {
/* columns rows colors chars-per-pixel */
"48 48 252 2 ",
"   c #070604",
".  c #160A06",
"X  c #151211",
"o  c #151616",
"O  c #280907",
"+  c #31110F",
"@  c #32201B",
"#  c #28272A",
"$  c #3A2A25",
"%  c #35322E",
"&  c #383737",
"*  c #470D0A",
"=  c #53110D",
"-  c #630D0A",
";  c #711513",
":  c #492F1A",
">  c #57351D",
",  c #6B2D1C",
"<  c #401E21",
"1  c #45382A",
"2  c #593A24",
"3  c #57322E",
"4  c #473C35",
"5  c #6B372D",
"6  c #3C5F3B",
"7  c #56493B",
"8  c #49503C",
"9  c #6A452A",
"0  c #764F33",
"q  c #4B7634",
"w  c #31364E",
"e  c #18366D",
"r  c #04287C",
"t  c #173D7C",
"y  c #253D70",
"u  c #593140",
"i  c #384048",
"p  c #16437B",
"a  c #324975",
"s  c #494849",
"d  c #535354",
"f  c #634C49",
"g  c #67584B",
"h  c #537C4D",
"j  c #6F6957",
"k  c #505867",
"l  c #6B4E76",
"z  c #4E727E",
"x  c #656668",
"c  c #6C6C76",
"v  c #777675",
"b  c #830D0E",
"n  c #890F0E",
"m  c #8A0E10",
"M  c #921312",
"N  c #AC0F10",
"B  c #BD0E11",
"V  c #A81515",
"C  c #B71616",
"Z  c #BB1211",
"A  c #93241A",
"S  c #AE1F25",
"D  c #912E2F",
"F  c #AF2E31",
"G  c #C20F11",
"H  c #C41312",
"J  c #CA1616",
"K  c #DB1413",
"L  c #E31413",
"P  c #E41919",
"I  c #C71F26",
"U  c #CB3133",
"Y  c #E62726",
"T  c #E7302F",
"R  c #E73736",
"E  c #9E682C",
"W  c #8F594B",
"Q  c #AE4F51",
"!  c #966F52",
"~  c #A96E56",
"^  c #A15265",
"/  c #91736B",
"(  c #AD7668",
")  c #C7524F",
"_  c #E94948",
"`  c #EC5754",
"'  c #D06666",
"]  c #EE6968",
"[  c #4D8219",
"{  c #56862B",
"}  c #668D3A",
"|  c #578555",
" . c #6E9154",
".. c #749659",
"X. c #779869",
"o. c #728D70",
"O. c #7DA472",
"+. c #AE8F32",
"@. c #CB9517",
"#. c #D9A21B",
"$. c #C8992A",
"%. c #D5A42B",
"&. c #8D9154",
"*. c #B58F51",
"=. c #B2A456",
"-. c #8C9370",
";. c #98937A",
":. c #AB936E",
">. c #A7897A",
",. c #B58777",
"<. c #8FAA6F",
"1. c #8AA577",
"2. c #96A87C",
"3. c #AEA96F",
"4. c #B6A679",
"5. c #C3964F",
"6. c #CBA657",
"7. c #E2AE46",
"8. c #CF9775",
"9. c #C8AB6A",
"0. c #D3B171",
"q. c #E1B972",
"w. c #072B84",
"e. c #0D3283",
"r. c #183886",
"t. c #184689",
"y. c #284588",
"u. c #324C88",
"i. c #3C568A",
"p. c #2B4E90",
"a. c #324F93",
"s. c #2A5794",
"d. c #385595",
"f. c #3D6596",
"g. c #455A88",
"h. c #435C99",
"j. c #496389",
"k. c #566889",
"l. c #5A7986",
"z. c #4B6798",
"x. c #5A749B",
"c. c #667489",
"v. c #707688",
"b. c #667898",
"n. c #4869A2",
"m. c #566CA2",
"M. c #4D70A9",
"N. c #5C77A5",
"B. c #657BA6",
"V. c #697DB1",
"C. c #847E87",
"Z. c #C27780",
"A. c #70888D",
"S. c #78899C",
"D. c #6A83A9",
"F. c #7189AC",
"G. c #798AA8",
"H. c #778AB4",
"J. c #7A92B7",
"K. c #888887",
"L. c #8C958D",
"P. c #949597",
"I. c #A89984",
"U. c #AD908B",
"Y. c #BB9B8A",
"T. c #89A685",
"R. c #96A985",
"E. c #9BB093",
"W. c #A8A789",
"Q. c #ADB48D",
"!. c #A9A59A",
"~. c #B4B89A",
"^. c #8997A8",
"/. c #969DA4",
"(. c #8797B8",
"). c #909EB4",
"_. c #BD9EAB",
"`. c #9AA4AA",
"'. c #8EA4B2",
"]. c #99A5B7",
"[. c #A6A9A8",
"{. c #B4AEA8",
"}. c #A9B6A9",
"|. c #A6ACB7",
" X c #ABB3BA",
".X c #B6B7B9",
"XX c #CB918C",
"oX c #E59495",
"OX c #CAAA98",
"+X c #D4B093",
"@X c #E5B597",
"#X c #CDB3AC",
"$X c #D3B6A6",
"%X c #E2A6A6",
"&X c #F5A1A0",
"*X c #E9BEA3",
"=X c #AAC098",
"-X c #AFC5A8",
";X c #B8C4AA",
":X c #BAC6B8",
">X c #D9C38F",
",X c #E7C78D",
"<X c #C8C5A9",
"1X c #C8CAB9",
"2X c #D1CDB5",
"3X c #E9C9B3",
"4X c #F4CDB7",
"5X c #F8D1BA",
"6X c #8E9DC2",
"7X c #8DA3C5",
"8X c #9AA7C5",
"9X c #A3ADC7",
"0X c #AAB6CA",
"qX c #B5BBC8",
"wX c #AFBED3",
"eX c #B5BED3",
"rX c #AFC1CC",
"tX c #BAC2C9",
"yX c #BBC3D4",
"uX c #B9C4D5",
"iX c #C8C8C8",
"pX c #D4CCC4",
"aX c #CCD5C7",
"sX c #D8D7CA",
"dX c #C5CBD6",
"fX c #CED1D4",
"gX c #CDD2DD",
"hX c #D3D4D4",
"jX c #D6DBD4",
"kX c #DBDCD4",
"lX c #D3D5DB",
"zX c #D6D9DC",
"xX c #DBDBDC",
"cX c #E4DBCA",
"vX c #F6D6C6",
"bX c #E4DCD8",
"nX c #DDE2D9",
"mX c #E3E3DD",
"MX c #EAE6DC",
"NX c #CED6E1",
"BX c #D3D7E0",
"VX c #D6DAE3",
"CX c #DBDEE4",
"ZX c #E4DCE3",
"AX c #DEE1E6",
"SX c #E3E4E4",
"DX c #E8E8E5",
"FX c #E3E5E9",
"GX c #ECECEC",
"HX c #F0F0EE",
"JX c #EEEFF0",
"KX c #F2F2F2",
/* pixels */
"6.:X].:X| X.DXyXt t t |.sXX.q :X/.! @.$.~ Y.SXsXbXDX,.*.@.#.&.`.1X[  .cX(.r r y.DXcX} { .X`.R.0.",
";XtX.XOXE.4.9.GXD.s.x.bX6.3.E.0Xd.& & :.2XaX..{.<X1.sX$X+.1 o r.dXQ.+.q.dXm.a.8XDX*.Q.1.x ).|.:X",
"].0X X/ qXa S.zXsXAXcXhXS.a yXn.s./.& % nX1.l.y.m.A.2.kXo X v r.m.qXy.).1XcXFX>XqXh.r.`.& U._.qX",
"[.[.k / dXt j.K.3.}.:.K.i.p uXJ.gXFXfXP.nX1.l.r.d.G.-.aXv .XSXyXH.0Xw.p.-.3.-X+.m.r.r qX/ ( #X1.",
" .O. XqXuXB.B.|.h h q [.J.J.CXCXJ.L.(.zXGX1X .`.]. .~.DXzX(.A.(.xXlXJ.J..X} { q ].(.(.8X(.]...} ",
"-XQ.x.p D.AXF.tXnXO.aXNXD.0XFXO. .>.;.A.SX.XnXxXmXnXiXmX^. .>.X.| fXx iXKXkXX.kXKXVXdXh.r a =.-X",
"GX,XG.z.N.KXN.p G.HXrXs.s.CX(.o.E.( I.c #X^ XXXXOXU.5 XXl ! ~ ;X6 b.SXxXK.zXa.D.eXe.(.h.h.^.>XGX",
"fXGXFX^.^.KXFXD.z.!.D.x.yXGXA./ $XoX) F U C C Z C V V V D F ' %X! o.hX.XSXCXa.r b.t CX!.:.bXAXH.",
"a D.cX=.q -XwXp g.7.L.t.M.GX(.-.oXI J H G G B B B B B N M M C ) ( x.SXK.0Xb.=.c.z.0XaXq 3.sXp.e.",
"a u.gXaX| | J.i.4.7.0.D.n.dXVX].R R Y L L L K K K K K L L K V H F tXKXFXa.-.#.#.!.GX<.{ ;XlXr.w.",
"y z.sX>X| :XFXAX8XL. XFXKXKXKXDX_ ` R L L L L L L L L L L L m n I bXKXKXuX.X=.c.z.'.kX} =.sXm.r.",
"S.dXMX;.}.KXtXiXgXM.8XGXuXAXVX%XR ` Y L L L L L L L L L L L Z . V #XBXeXAXDXn.w.b.t dX`.v.gXcXqX",
"nX,X XN.B.zXCXxXx FXKXCXs.f.d.Z.R _ L L L L L L L L L L L L K   - l u.e.eXKXh.V.gXa.D.B.d.k.6.kX",
"-X=.A.p.N. XfXSXSXKXKXJXN.4.+XQ T R L L L L L L L L L L L L L   * ) 4.u.gXKXVXAXxXSXgXH.r.i.3.X.",
"o.T.dXwXdXHX0XS.S.0XKXJXN.Y.3X) T P L L L L L L L L L L L L L   O ) 0.g.VXKXdXD.o.H.jXCX0XeX=X{ ",
"}.FX7XF.AX}.| U.!./.CXKXzXP.k.U T L L L L L L L L L L L L L L . . D c iXGXGX|.-.!  .| lXF.p.8X1X",
"iXN.s.7XVXA.}.pXHXGXwX0XSXCXl F Y L L L L L L L L L L L L L L - n S _.GXqXH.gXGXDX~...V.gXd.u.!.",
"4.d k zX XL.~ GX7Xs.z.I.k.z.oXR P L L L L L L L L L L L L L L L L I ^ y.:.k.y.y.GXQ ,.T.CXx X E ",
"6.W.i /.uXL.>.dXAXN.W.cX.Xr.Q Y L L L L L L L L L L L L L L L L L J u b.MX<Xg.dX9X2.1.(.[.  7 E ",
"9.q.d d zXqXN.(.CXJ.v.OXG.F.( V Z Z Z Z H H H H H H H H H Z N N V ; u c.P.:.z.JXqXb.^.xXK.s 4.+.",
"4.XXDXnXGXKXhXGXKXFXdX).d.g.4 O * = * * - - - - - - - - - = + + O   # u.m.dXFXGXKXiXSXDXsXjX#X~ ",
"U.pXaXT.;XGXc CXKXgXdXuXuXiX% 2 g 4 7 g j f 4 4 7 7 7 7 j j g g g 9 % `.8XiX0XCXGXx iX;X-.-.aXY.",
"pXaXR.).T.:XhXJXdXz.I.k.e.b.% W ,.I.U.Y.$X#XOXOXOXOXOX#X$XOXY.Y.Y.! % e r.:.c.m.dXiXSX .k.c.-.SX",
"iX<XG.u.b.pXbX(.y.{.pXpX!.|.& W +X*X3X3XcXZXbX5X4X5XvXZXbX3X3X3X@X! 4 K.pXmXsX^.d.zXmX|.a.z.2XbX",
"pXpXB.n.0XxXzXn.).sXbXpX XxX].w 2 ! 5XvXMXx g +X8.@X/ s bXvX5X,.0 & [.!.2XbX#Xd.N.SXkXG.y.x.<XbX",
"jX2.z N.o.jXhXuXn.c.Y.p.r.eX X& . @ ( $X4X$X+X3X*X4X$XOX4X4X:.1 X & v.r g.:.i.8XAX{.kX .^.L.E.SX",
"U.sX2...~.xXk GXBX].qX).uXxXo., O . 0 ,.+X5X5X5X@X4X5X5X*XXX0 + . , / |.0XiXyXDXDXs hX;X1.~.kX,.",
"! #XkXaXDXSXiXGXGXFXgXD.i.c.3 N n * 2 9 ~ +X@X*X8.@X@X+X,.0 2 = = Z = w B.iXCXGXGXfXSXDXaXjXOX5.",
"$.9.x K.SX].F.qXGXD.;.A.k $ V K J S , 2 2 9 W ( *.*.! 9 9 2 , A C K H + j v m.FX^.i.].xXx # *.%.",
"@.0   P.8XR.W.).CXi.1XDXc + Z L F 5 V , > 2 9 0 0 0 9 > > : A D D L H + ;.I.g.gXyX/ o.9X.X# g %.",
"+.@ s xX}.-.W GXa.y.c.j w / A H ; < H ; n , > 2 > 2 > , A ; C ; < J V ! g a y.B.GXW I.^.SXv.i *.",
"W.j.z.lXH.1.~.GXCXuXm.k 1 8.( F * O H m N C A > : > , V Z b Z - . S ~ +X7 k fXDX#XQ.o.uX0Xt.n.dX",
"iX(.r.B.gXO.} ! R.`.SXv $ 8.*XW + + H m N L C 5 2 5 A L H b Z ; O D +X+X3 v /.R.>.h T.SXH.J.VX;X",
" .R.0X8XVXjXG.A.A.qXSXL.i >.( $ n L H m N L _ &XC.%X] L H b Z L H @ ! Y.j L. XS.A.).FXdX0XtXT.h ",
"=X&.k.t.D.CXFXdXBXAXGXiXy 7 1 X n L H m N L _ &XC.%X] L H b Z L H . $ & K.hXGXnXxXhXL.D.t.k.&.E.",
"nX6.k.a.m.6Xd.BX6Xh.FXdXr.a a & n L H m N L _ &XC.%X] L H b Z L H o w e qXGXFXA.fXzXxXD.N.|.,XSX",
"dX2XfXb.^.dXr.b.w.d.FXFX0XgXfXd n L H m N L _ &XC.%X] L H b Z L H &  XeXFX0Xn.zXhX[.KX}.;.kXdXG.",
"u.F.sX9.} 1X8Xj.g.:..XdXKXKXDXd n K N V Z L _ &XC.%X] L J V N J H & iXGXSX X;.'.FXGX:Xh ~.sXg.e ",
"r.e.dX2X .} DX[.$.@.-.a.VXKXtXs ; Z M C J H U XXc Y.) H J J M V V s |.z.D.9.%.4.i.D.h h iXzXa y ",
"r.y.hX~.[ 2.gXz.v.5.c.].L.xXx.o.x O C 3 s #           o s & V - X G.FXz.t.;.7.k.t 0X:Xq =.3XG.a ",
"N.qXbX=.W.FXd.l.r d.VXSX[.hXo./ j # f s & K. Xk.y |.iXP.& s f $ @ o.DXtXk.b.!.j.D.AXKX/.S.CXmXzX",
"GX>XqXz.d.8Xw.9Xm.y.gXv iXSXB.q o.3 # # d & .XSXdXiXx .Xi % # 8 6 (.CXp.g.rXKX).a z.KXb.j.c.0.bX",
"aX=.k e.d.uXyXKXGXX.aXKXhXd zX....>.8 k .XiXmXnXxXmXiXSXc j g h 1.FXeXF.NX1Xo.nXyXG.CXb.e j.W.T.",
"<.{ ^.B.(.8X8X0X..[ { ;X7X(.gXCX(.l.(.gXDX<X .`.|...1XDXzX).P.(.CXCX(.G.[.h h h [.b.b.yX X[.o.h ",
"2.~.,.U.iXr r.h.=.Q.<.;.y.e.8X(.uXSX.Xx sX<.S.h.p.b.<.nXv .XSXlX(.dXt.j.;.3.:X9.L.j.e qXx d P.!.",
"eX_.>.4 P.r h.9X>XDXcX<X].y.9Xm.e.c X   kXQ.A.B.u.l.2.mX% # K.u.N.dXa ^.xXcXAXcXVXv.k qX/ .X X`.",
":X/.(.d R.2.*.DXeXn.B.gX>X+.2.dXr.o 1 +.OXkXR.<X~.X.sX#X:.f & a yXR.4.q.bXb.i.G.GX0.3.E.#X.XtX~.",
"<X~.`.tX} [ 2XmXd.w.w.6XcX..[ ;X].! %.#.5.( bXmXkXmX,.*.@.@.*.|.}.h E.DX|.a t y.gXGXT.h :X].1X6."
};
