/* XPM */
static char *_11b3ce6fe4e4b77b11761aca6c9ab42[] = {
/* columns rows colors chars-per-pixel */
"48 48 245 2 ",
"   c #0C0C0B",
".  c #151516",
"X  c #26221D",
"o  c #2E2E2F",
"O  c #343438",
"+  c #4B2617",
"@  c #522719",
"#  c #542A1B",
"$  c #5C2D1D",
"%  c #5C321C",
"&  c #612E1F",
"*  c #65351C",
"=  c #683C19",
"-  c #6A3C1B",
";  c #5F2F20",
":  c #593527",
">  c #4E3A33",
",  c #612F20",
"<  c #643323",
"1  c #683724",
"2  c #663A27",
"3  c #6A3A25",
"4  c #6B3C29",
"5  c #6E4318",
"6  c #724614",
"7  c #724619",
"8  c #744B1C",
"9  c #5D4835",
"0  c #6E4223",
"q  c #6C4A24",
"w  c #6E402C",
"e  c #714522",
"r  c #724829",
"t  c #77562E",
"y  c #684639",
"u  c #724833",
"i  c #75583B",
"p  c #4A7436",
"a  c #686F30",
"s  c #1C386C",
"d  c #05297D",
"f  c #173B7C",
"g  c #253D6E",
"h  c #394048",
"j  c #29467A",
"k  c #244E7A",
"l  c #314F72",
"z  c #394A78",
"x  c #494949",
"c  c #525252",
"v  c #58595C",
"b  c #6C5249",
"n  c #795846",
"m  c #567B4F",
"M  c #746C56",
"N  c #4F5269",
"B  c #475A77",
"V  c #50696F",
"C  c #546777",
"Z  c #656667",
"A  c #6A6A77",
"S  c #6F7670",
"D  c #767777",
"F  c #A66C25",
"G  c #8D7052",
"H  c #A76851",
"J  c #A76A59",
"K  c #8A736C",
"L  c #957A65",
"P  c #947D75",
"I  c #4D8219",
"U  c #56862B",
"Y  c #668D3A",
"T  c #578654",
"R  c #678A54",
"E  c #729452",
"W  c #749659",
"Q  c #678868",
"!  c #78986B",
"~  c #778D71",
"^  c #7FA66F",
"/  c #AE8F32",
"(  c #CB9517",
")  c #D6A110",
"_  c #C8992A",
"`  c #D6A42C",
"'  c #909059",
"]  c #B5924E",
"[  c #B4A357",
"{  c #87826A",
"}  c #988B6B",
"|  c #839767",
" . c #8D9B6E",
".. c #898978",
"X. c #968A76",
"o. c #98957A",
"O. c #A79569",
"+. c #AF8C75",
"@. c #A89A7A",
"#. c #8FAA6F",
"$. c #8AA577",
"%. c #97A97D",
"&. c #AEA96F",
"*. c #B7A678",
"=. c #C3964F",
"-. c #CDA652",
";. c #C5A96B",
":. c #D1B274",
">. c #E1B972",
",. c #072B84",
"<. c #0D3283",
"1. c #183887",
"2. c #203E82",
"3. c #1A4683",
"4. c #284589",
"5. c #334C88",
"6. c #2C5487",
"7. c #3A5688",
"8. c #2B4E94",
"9. c #324E93",
"0. c #385595",
"q. c #3E638E",
"w. c #445787",
"e. c #445D99",
"r. c #496389",
"t. c #566787",
"y. c #5A7888",
"u. c #4A6697",
"i. c #556A9A",
"p. c #5B759A",
"a. c #66768B",
"s. c #6B748E",
"d. c #757A88",
"f. c #667A9A",
"g. c #435EA0",
"h. c #4A69A2",
"j. c #546BA2",
"k. c #5D76A4",
"l. c #6479A5",
"z. c #697DB1",
"x. c #6A8688",
"c. c #75898A",
"v. c #6A8296",
"b. c #77889A",
"n. c #799391",
"m. c #6A83A9",
"M. c #798AA7",
"N. c #748BB2",
"B. c #7789B4",
"V. c #858888",
"C. c #968B89",
"Z. c #899787",
"A. c #959786",
"S. c #858B95",
"D. c #899898",
"F. c #979797",
"G. c #A59786",
"H. c #B09088",
"J. c #A99B96",
"K. c #89A585",
"L. c #97A687",
"P. c #9BB784",
"I. c #9BA59C",
"U. c #9BB296",
"Y. c #A8A689",
"T. c #AEB38F",
"R. c #AAA79B",
"E. c #B5B79A",
"W. c #8C96AD",
"Q. c #8998A8",
"!. c #969CA9",
"~. c #8493B6",
"^. c #8898B8",
"/. c #9AA4A9",
"(. c #99A5B8",
"). c #A6A9A7",
"_. c #B4A9A7",
"`. c #AAB4A9",
"'. c #B9B5A7",
"]. c #A3ACB9",
"[. c #ABB4BB",
"{. c #B7B9B7",
"}. c #C09682",
"|. c #C7B390",
" X c #C8B5AA",
".X c #C8BBB4",
"XX c #AAC098",
"oX c #AFC5A8",
"OX c #B9C4AA",
"+X c #BAC7B5",
"@X c #BBC3BB",
"#X c #D8C391",
"$X c #E7C78D",
"%X c #C8C5A9",
"&X c #C7C7BA",
"*X c #D2CFB4",
"=X c #D7CABD",
"-X c #E1D5BE",
";X c #8E9DC2",
":X c #8DA3C5",
">X c #9AA7C4",
",X c #A3ADC5",
"<X c #AAB5C8",
"1X c #B3BBC3",
"2X c #B6BAC7",
"3X c #AEBDD1",
"4X c #B4BDD2",
"5X c #BAC3C3",
"6X c #BCC3CD",
"7X c #BBC3D4",
"8X c #C6C8C6",
"9X c #CBCDCC",
"0X c #D5CCC6",
"qX c #CCD5C6",
"wX c #D6D7CC",
"eX c #C4CBD4",
"rX c #C4C8D7",
"tX c #CACED5",
"yX c #C4CCDA",
"uX c #CDD1D3",
"iX c #CDD2DD",
"pX c #D3D3D3",
"aX c #D9D6D3",
"sX c #D6DAD4",
"dX c #DBDCD5",
"fX c #D2D4DC",
"gX c #D5D9DC",
"hX c #DBDCDC",
"jX c #E3DCC9",
"kX c #E2DDD8",
"lX c #DCE1D9",
"zX c #EAE5D6",
"xX c #E3E3DE",
"cX c #CFD6E0",
"vX c #D3D7E0",
"bX c #D6DAE3",
"nX c #DBDEE3",
"mX c #DEE1E5",
"MX c #E3E4E3",
"NX c #E8E6E3",
"BX c #E9EAE6",
"VX c #E3E5E9",
"CX c #ECECEB",
"ZX c #EFF0EF",
"AX c #F2F2F2",
/* pixels */
"-.+X(.+XT ! BX7X1.f j ].wXQ p +X!.G ( _ H H.MXwXkXNX+.] ) ` ' /.*XI E jX~.d d 4.NXjXY U {./.L.:.",
"OX5X1X XU.T.;.BXm.6.y.aX-.} U.(.0.O O } =XwXW `.%X$.wX X/ > . 1.rXP./ >.yXj.9.>XNX] Y.$.Z ^.`.+X",
"(.<X[.J 2Xz d.9X=XgX&X@Xb.l 1XB k F.O o lX$.y.4.i.c.%.dX. . D 1.j.2X4.^.&XjXVX#X4Xe.1./.O J._.4X",
"U.).v K rXf r...' U.' S 7.l [.S `.8X{.F.wX$.y.1.0.M.| wXS {.MX7XB.<X,.4.X.&.oX/ i.1.d 2XP J  X$.",
"W ^ [.1X7Xl.f.I.p p p Z.M.v.tX{.v.Q b.pXhX+XR /.(.R E.BXgX^.x.~.hXfXB.B.{.Y U p (.~.^.>X~.(.E Y ",
"oXT.p.f l.bXM.[.&XQ +XyXm.[.MX! R G ~ x.aX{.dXdXdXdX8XxXQ.E } ! T uXZ 8XAXdX! dXAXbXrXe.d z [ OX",
"CX$XM.u.k.AXp.l c.sX<X0.8.bX^.Q L.G X.C &XD &XtXdX&Xc 8Xi.' H OXp f.BXgXV.gX8.m.4X<.^.e.e.W.#XBX",
"uXCXVXQ.Q.AXVXy.V A.v.p.2XmX~ L .XaX[.S.@X`.[.4.i.fXCXZX^.<XCXjXL Q pX{.xXnX9.d f.f nXR.O.kXmXB.",
"j m.jX[ p oX3Xf B -.{ 3.h.8Xd.~ BXh.,X8X&X`.t.d.l.N.VXCXCXrX0.CXA.p.MXV.<Xf.[ a.u.<XqXp &.wX8.<.",
"j 6.iXqXT T N.z } ] ;.m.h.2X..D.gX0.t.7.8X[.C o.E.z <XMXi.w.2.fX/.5XAXVX9.X.) ` R.CX| U OXfX1.,.",
"g u.wX#XT +XmX9Xc.M V.pXBXCX'.{.(.r.#X@.1X9X{ A.&XO.{.tX{ E.t.B.CXZXAXAX7X[.[ a.u.(.dXY [ wXk.1.",
"b.rXxX@.`.AX1X{.I.V S @X1XbX9X_.).@.jX'.u.<Xf F.&Xz (.B.X.wXO.,XCXnXvX4XmXBXh.,.f.f rX/.d.uXjX<X",
"xX$X[.k.k.gXhXuXZ I.~ Z.6.q.0.).aXu.p./.4.1X5.M.E.f <Xu.t.S.j hXuXw.9.<.4XAXe.z.iX8.N.z.0.t.-.dX",
"oXO.v.8.k.[.uXhX9X8XL.~ C @.|.S.>X,Xd W.M.8X1XpXaXS.R.s.d.g t.tXa.:.*.5.fXAXbXmXhXMXiXB.1.7.&.^ ",
"! K.rX3XyXZX<Xb.b.[.qXR.C @.-XW.1.fX(.tX6X`.L.V.G.G t G L n G.w.r.jX:.w.bXAXrXm.Q M.sXnX<X4XXXU ",
"'.VX:XN.mX`.T G.R.D.@X{.5XF.u.b.j.2X{.F.A } a i t q 5 e e r L t.f.p.a.rXCXZX].| G R T fXN.8.>X&X",
"8Xk.8.:XbXx.`.0XZXmX(.D.{.8Xr.5.0XF.L i i t 8 8 8 8 6 - - - n '.l.4.7XCX<XB.iXCXNXE.W z.iX0.5.R.",
"*.v N gX[.Z.J CX:X9.u.A.C r.{.J.K b u 0 7 7 6 6 7 8 6 - * * 2 K 8XBX^.4.O.t.4.4.CXH +.K.kXZ . F ",
";.Y.h !.7XZ.o.rXnXk.Y.jX`.f A n 4 4 0 e 7 7 6 6 7 8 8 - * * 4 G '.<X,.f.xX%Xw.yX,X%. .^.).  9 F ",
";.>.c c gX1Xk.W.bXN.d.|.b.A n 1 1 4 0 e 8 7 8 8 8 8 8 - * * * u P 8XW.d.F.O.u.ZX2Xf.Q.hXV.x *./ ",
"*.}.BXlXCXAXpXCXAXVX9XQ.x < < < 4 w r e 7 e r e 8 8 7 - * * * 2 y L K N t.6XMXCXAX9XMXBXwXsX.XJ ",
"H.0XqXK.OXZXA nXAXiX{.C.2 , < 1 w u r r r r e 7 7 6 6 * * * * - 5 7 6 8 n R.<XnXCXv 9XOX| | wXJ.",
"0XwXL.Q.Z.+XpXZXyXu.L > ; , 1 4 w u r r e e 0 e 5 - - * * 3 - - 6 6 7 7 q G A j.yX9XBXR r.a.| MX",
"8X%XM.5.f.0XkX~.4._.J.y , < 4 w u u u w 3 3 3 3 - - * < 1 4 0 5 7 7 6 6 8 t @.Q.0.gXxX].9.u.&XkX",
"0X0Xm.h.[.dXpXu.(.=X_.y , 1 w u u u u 4 1 3 1 3 * * < 1 4 0 0 7 7 8 8 8 8 e G w.k.MXdXM.4.p.%XxX",
"dX%.C k.! wXpX4Xh.a.X.> < 1 4 w w w w 4 1 1 1 < < < 1 4 w w 0 0 0 0 0 7 5 5 y V.uX).sXR Q.Z.U.xX",
"H.wX%.W E.gXv BXfX(.F.y 1 1 1 1 1 1 1 1 1 < < < < 1 4 w 4 3 3 - - - - - - 2 i S R.x 8XOX$.E.aX+.",
"H  XdXqXMXMX.XBXCXaXC.y 1 < 1 1 < 1 1 1 < $ $ < < 1 1 4 1 1 * * * * % % : n P M A.).uXxXqXsX|.=.",
"_ ;.Z S.MX(.M.1XBXf.n 2 < < 1 < < < < < ; $ $ ; < 1 < 2 1 < % % % $ % : n M t.).c.B D.@Xv o ] ` ",
"( i   F.>XL.Y.^.gXN n 1 , < < < < & $ $ $ # $ $ $ $ < ; ; $ # # # : > K '.@.w.6X1XM M Q.I.o b ` ",
"/ X x gX`.} H CX7.N 4 , , & & < , $ $ # # # # # # # # # # # # : y K B z @.i.4.l.xXn { D.gXd.h ] ",
"Y.r.u.fXB.$.E.BX8XP y < & $ $ , $ $ @ + + + + + + + @ # : : b K N w.fXnX>X:XuXBX.XL.Q 4X>X4.u.8X",
"8X~.1.l.iX^ Y G L.D.X.u , ; ; : : y : : + + + + + + : > M G.{.l.d.w.S.tXMXhXD.A.X.m K.hXv.a.{.`.",
"E P.<X>XbXsXM.c.v.1X0XP y u n v N R.D P b 9 > : : 9 K ).pX<XVX1.M.-X*.r.hXMX1Xb.x.^.sXrX<X6X$.m ",
"XX' t.4.m.nXVXtXvXmXCXfXw.*.;.A iXN.d M.l.8XS.J.R.[.MX^.(.d (.<Xd.|.O.B 8X8XwX@X8X8XD a.3.t.' U.",
"lX-.t.9.j.;X0.vX;Xg.VXyX1.7.w.9XCX4.Q.a.9.7X<.F.!.5.rX9.S.a.w.&XC.B w.j {.dX..D `.{.8Xf.t./.$XMX",
"rX-XtXf.Q.yX1.f.,.0.VXmX<XiXbXCX4X*.zXo.l.,X5.&X'.z !.t.A.&XO.I...A.{.].{.(.r.8X&XZ.dX`.o.wXrXM.",
"5.m.wX;.Y &X>Xr.w.O.{.yXAXAXAXZX;Xi.|.{ 1X2X@.=X'.G ).F.o.Y.C S.A.R.qXsX@X/...S.aX8X`.m E.wXw.s ",
"1.<.tX*XE Y BX)._ ( } 9.bXAXrXQ.bX4.w.u.nX<Xz |. XZ [.{.w.C z 8XV.`.1Xu.f.[ ` O.7.f.m m 8XgXj s ",
"1.4.pXE.I %.iXu.d.=.a.>XF.hXk.~ CXe.yXZXZXBX~.p.Q.t.gXqXhX<X7.dXS b.mXu.3...-.t.f <X+Xp [ -XM.z ",
"l.2XkX[ Y.BX0.y.d 0.bXMX).pXQ L =XCXrX~.AXCXnXl.5.5XBXxX(.6XMX&XL ~ BX6Xy.f.R.r.v.mXAX!.b.nXxXfX",
"BX#X1Xu.0.>X,.,Xj.4.iXD 9XMXl.p P.J } 7.8Xx {.MXtX8XZ pXa.@.H L.Q ^.nX6.q.6XAXW.j u.AXf.r.a.:.kX",
"qX[ B <.0.7X7XAXCX! qXAXpXv gXW W @.| n.MX9XxXlXdXlX9XMXx.o.H.! $.BX4XN.cX&X~ lX7XM.nXf.s t.Y.K.",
"#.U Q.z.~.>X>X<XE I U OX:X^.iXnX~.y.^.uXBX%XE /.`.W &XBXgX^.D.^.nXnX~.M.).m m m ).f.a.6X[.).~ m ",
"%.T.+.H.8Xd 1.e.[ T.#.o.4.<.>X~.7XVX{.Z wX#.b.e.5.a. .lXD {.MXfX^.rX3.r.o.&.+X;.C.r.s 2XZ c F.I.",
"4X_.H.> F.d e.,X#XBXjX%X(.4.,Xk.<.A .   dXT.n.l.5.y.L.xXO o V.5.k.rXz Q.gXjXMXjXnXd.B 1XK {.[./.",
"@XD.^.c L.%.] NX4Xh.l.iX#X/ %.rX1.. > / |.dXP.%XE.! wX.XO.b O z 7XL.*.>.dXf.7.M.CX:.@.L. X{.1X`.",
"%XE./.5XY I *XxX0.,.,.;XjXE I OX(.G ` ) =.J kXxXdXxX+.] ( ( ] ].`.m U.NX].j f 4.iXCXZ.m @X(.&X-."
};
