/* XPM */
static char *b69f4cec11aa49f898cfc56ca1eadf1c[] = {
/* columns rows colors chars-per-pixel */
"48 48 246 2 ",
"   c #0C0C0B",
".  c #151516",
"X  c #26221D",
"o  c #2D2D2F",
"O  c #343438",
"+  c #581B04",
"@  c #5E2007",
"#  c #642506",
"$  c #662709",
"%  c #6C2B09",
"&  c #702E0B",
"*  c #75320C",
"=  c #79360D",
"-  c #7D3A0E",
";  c #6C3216",
":  c #7B3B14",
">  c #433B2F",
",  c #396838",
"<  c #784B2A",
"1  c #6A5F2B",
"2  c #4B7634",
"3  c #19386F",
"4  c #04287C",
"5  c #173D7C",
"6  c #223D71",
"7  c #394048",
"8  c #16437B",
"9  c #334B78",
"0  c #49494A",
"q  c #545556",
"w  c #537C4D",
"e  c #535A6C",
"r  c #5B6369",
"t  c #656568",
"y  c #717075",
"u  c #813D0F",
"i  c #823E11",
"p  c #854112",
"a  c #8A4514",
"s  c #8A4717",
"d  c #8D4A1A",
"f  c #914B15",
"g  c #934E1A",
"h  c #96511C",
"j  c #9A551E",
"k  c #88502E",
"l  c #995723",
"z  c #9D5A24",
"x  c #985C38",
"c  c #A15D26",
"v  c #A5622A",
"b  c #A9662C",
"n  c #A67022",
"m  c #AC6B34",
"M  c #B06E33",
"N  c #B57439",
"B  c #8E5B46",
"V  c #A45E4A",
"C  c #976B52",
"Z  c #936F50",
"A  c #A46944",
"S  c #AF764F",
"D  c #8F706F",
"F  c #997965",
"G  c #AA7968",
"H  c #4D8219",
"J  c #56862B",
"K  c #668D3A",
"L  c #578555",
"P  c #6E9154",
"I  c #759759",
"U  c #64876A",
"Y  c #78986A",
"T  c #769071",
"R  c #7DA472",
"E  c #AE8F32",
"W  c #CB9517",
"Q  c #D9A21B",
"!  c #C8992A",
"~  c #D5A42B",
"^  c #8B8C56",
"/  c #B59151",
"(  c #B2A456",
")  c #9B8A6A",
"_  c #839767",
"`  c #8D926E",
"'  c #938C79",
"]  c #98957A",
"[  c #A5846A",
"{  c #B28E6F",
"}  c #A99768",
"|  c #B48877",
" . c #A6997C",
".. c #8FAA6F",
"X. c #8AA577",
"o. c #96A97C",
"O. c #AEA96F",
"+. c #B5A578",
"@. c #C3964F",
"#. c #CBA657",
"$. c #E2AE46",
"%. c #C8AB6A",
"&. c #D3B373",
"*. c #E1B972",
"=. c #072B84",
"-. c #0D3283",
";. c #183886",
":. c #203E82",
">. c #184689",
",. c #23438D",
"<. c #2A4688",
"1. c #344D87",
"2. c #2A528B",
"3. c #3B578A",
"4. c #2C4A93",
"5. c #324E92",
"6. c #2A5794",
"7. c #385595",
"8. c #3D6596",
"9. c #445988",
"0. c #515A83",
"q. c #445D9A",
"w. c #496389",
"e. c #566787",
"r. c #597887",
"t. c #4B6698",
"y. c #556A9B",
"u. c #5C769B",
"i. c #667389",
"p. c #6C758D",
"a. c #757A89",
"s. c #667998",
"d. c #435EA0",
"f. c #4869A2",
"g. c #546CA2",
"h. c #4D70A9",
"j. c #5B76A5",
"k. c #647BA7",
"l. c #697DB1",
"z. c #738C8B",
"x. c #6A8396",
"c. c #78889B",
"v. c #6A83A9",
"b. c #728AAB",
"n. c #7A8AA8",
"m. c #788AB3",
"M. c #7A92B7",
"N. c #888786",
"B. c #859886",
"V. c #90948F",
"C. c #969598",
"Z. c #A88C84",
"A. c #A69685",
"S. c #B19A92",
"D. c #89A685",
"F. c #97A986",
"G. c #9BB191",
"H. c #A9A68A",
"J. c #B4A886",
"K. c #A3B88B",
"L. c #B2AC94",
"P. c #A6B697",
"I. c #B4B89A",
"U. c #8998A8",
"Y. c #989CA7",
"T. c #8493B5",
"R. c #8998B9",
"E. c #939EB7",
"W. c #A69EA1",
"Q. c #9AA5AA",
"!. c #8EA4B2",
"~. c #98A4B8",
"^. c #A6A9A7",
"/. c #B6A8A5",
"(. c #A9B6A9",
"). c #B5B5A9",
"_. c #A6ACB8",
"`. c #ABB4BA",
"'. c #B7B7B9",
"]. c #C09682",
"[. c #C8B08F",
"{. c #C9B2AB",
"}. c #C8BAA8",
"|. c #CBBBB2",
" X c #AAC098",
".X c #AEC4A7",
"XX c #B8C4AA",
"oX c #BAC6B8",
"OX c #D9C493",
"+X c #E7C78D",
"@X c #C8C5AA",
"#X c #D8CAAC",
"$X c #C6CAB9",
"%X c #D6C6B9",
"&X c #C6D2B9",
"*X c #E1D2BC",
"=X c #8E9DC2",
"-X c #8DA3C5",
";X c #9AA7C4",
":X c #A3ADC6",
">X c #A9B6C9",
",X c #ABB5CB",
"<X c #B4BAC9",
"1X c #AFBED3",
"2X c #B5BED2",
"3X c #AFC1CC",
"4X c #BAC2C4",
"5X c #BBC2CD",
"6X c #BBC4D4",
"7X c #BAC5D6",
"8X c #C5C7C7",
"9X c #CDCCCC",
"0X c #D6CCC4",
"qX c #CCD5C7",
"wX c #D9D7CA",
"eX c #C4CBD5",
"rX c #C4C9D6",
"tX c #CACDD4",
"yX c #C4CBDA",
"uX c #CDD1D4",
"iX c #CCD2DD",
"pX c #D4D4D4",
"aX c #D8DBD3",
"sX c #DBDCD3",
"dX c #D3D5DB",
"fX c #D6D9DD",
"gX c #DBDCDC",
"hX c #E3DCCA",
"jX c #E2DDD9",
"kX c #DDE2D9",
"lX c #E7E3D4",
"zX c #E3E3DD",
"xX c #CED6E1",
"cX c #D3D7E0",
"vX c #D6DBE3",
"bX c #DBDEE4",
"nX c #DEE1E5",
"mX c #DFE1E8",
"MX c #E3E4E4",
"NX c #E7E7E6",
"BX c #EAEAE6",
"VX c #E3E5E9",
"CX c #ECECEC",
"ZX c #F0F1EF",
"AX c #EEEFF0",
"SX c #F2F2F2",
/* pixels */
"#.oX~.oXL T BX6X5 5 5 _.wXY 2 oXY.Z W ! A S.MXwXjXNX| / W Q ^ Q.&XH P hXT.4 4 <.NXhXK J '.Q.H.&.",
"XX4X'.{.G.+.%.CXv.2.u.jX#.O.P.>X7.O O ) %XqXI ).@XX.wX{.E > . ;.rXK.E *.yXg.5.;XNX/ J.X.t R._.oX",
"~.>X`.F <X9 x.fXwXnXhXpXc.9 6Xf.6.Y.O o kXX.r.<.y.z.o.sX. . y ;.g.<X<.R.$XhXVXOX<Xq.;.Q.O S./.<X",
"^.^.r D rX5 w.N.} (.} N.3.8 6XM.iXVX9XC.kXX.r.;.7.n._ qXy '.MX6Xm.>X=.4.) O..XE y.;.4 <XF G }.X.",
"P R `.<X6Xk.k._.w w 2 ^.M.M.bXbXM.U.R.fXCX$XP Q.~.P I.BXgXR.z.T.gXdXM.M.'.K J 2 ~.T.R.;XT.~.I K ",
".X Xu.8 v.nXb.5XkXR qXxXv.>XVXR P | ] x.MX'.kXgXzXkX9XzXU.P [ Y L uXt 8XSXsXY sXSXvXrXq.4 9 ( .X",
"CX+Xn.t.j.SXj.8 n.ZX3X6.6.bXR.U P.G H.r.gXN.9XtXMX8X0 8Xy.^ A XX, s.MXaXN.dX4.b.2X-.R.q.q.U.OXCX",
"uXCXVXU.U.SXVXx.t.W.v.u.6XCXz.F %XCXyX~.CXCXiX,.g.dXCXCXE.>XCXhXF U pX'.MXbX5.4 s.5 bXH.} jXnXm.",
"9 v.hX( 2 .X1X8 9.$.V.>.h.CXT._ CXf.>XCXCXbXj.n.k.m.VXCXCXrX7.CXF.u.MXN.>Xs.( i.t.>XqX2 O.wX4.-.",
"8 2.dXqXL L M.3.+.$.&.v.f.yXvX~.vX7.e.7.dX6Xe.#X}.9 >XMXg.9.:.dXQ.4XSXVX5.' Q ~ L.CX_ J XXdX;.=.",
"6 t.wXOXL oXVXnX;XV.`.VXSXSXSXCX>Xw.OX .<XuX] wXlX} 4XtX` [.e.M.CXZXSXSX6X`.( i.t.!.sXK ( wXj.;.",
"c.tXzX .(.SX4X8XiXh.;XAX6XnXvXNXyX .hX).t.1X;.'.0X1.~.m.' lX} :XCXbXcX2XbXCXf.=.s.5 rXQ.a.uXhX>X",
"zX+X`.j.j.fXbXgXt VXSXbX6.8.3.>XCXt.u.Q.,.6X4.n.).0.W.r y C.<.gXuX9.1.-.2XSXq.l.iX5.b.l.7.e.#.sX",
".X( x.2.j.`.uXVXMXSXSXAXj.+.[.V.;X:X4 E.T.fX8X|.[.S z d k C p.iXi.&.+.5.iXSXvXmXgXMXiXm.;.3.O.Y ",
"Y D.rX1XyXZX>Xc.c.>XSXAXj.J.hXT.;.vX:XvX9XL.{ A h s p s & :  .t.w.hX&.9.vXSXrXv.U m.aXbX>X2XP.2 ",
").VX-Xb.nX(.L Z.L.U.bXSXfXC.t.n.g.6XwX/.G x p p p i p h = $ C n.s.u.i.8XCXAX_._ C P L dXb.4.;XqX",
"8Xj.6.-XcXx.(.0XZXCX1X>XMXbXt.<.BX/.[ x p u u p p a l l * # B 0Xk.,.6XCX<Xm.iXCXNXI.I l.iX7.1.W.",
"+.q e fX`.V.V CX-X6.t.A.e.t.bX0X{ x s i - - d a p l c p $ # B '.gXCXR.,.} e.<.,.CXV | D.zXt . n ",
"#.H.7 Y.6XB. .rXnXj.J.hX'.;.a.S g p i u s z s p l c i % # % F $XsX>X=.s.zX#X9.yX:Xo.X.R.^.  1 n ",
"%.*.q q fX<Xj.T.bXM.a.[.n.N.S l i u u - c l p z b p $ # # < ^ K.2XbXE.p.C.} t.AX<Xs.U.gXN.0 +.E ",
"+.].BXkXZXSXpXCXSXVXtXE.y.{ b b s i a s c : = i h % # # $ B I.fXm.rXR.7.g.rXMXCXSX9XMXCXwXaX|.S ",
"Z.0XqXD.XXZXy bXAXiXtX6X/.m m z i = i z d * * = i # % # # @ ; k | @XMXyX;X8X>XbXCXr 9XXX_ _ qXS.",
"0XqXF.U.B.oXpXAXyXt.A.p.{ z d h c s c z - u i s = - % # + + % s h S [.t.;. .i.g.yX9XMXP w.i._ MX",
"8X@Xn.1.s.0XjXT.<./.0X[.b h v S M z l : p = - = p p # @ + + + = i u l / |.zXwXU.7.fXzX_.5.t.$XjX",
"0X0Xv.f.>XgXfXf.~.wX#XS z z N N z i * p - & & * s * # + @ % - v v p - f m #X}.7.j.MXsXn.:.u.@XjX",
"aXo.r j.T aXpX6Xg.S.N m s M M g p - i p * & & p u # @ + * - : z N m d g g A e ;XnX`.sXP U.B.P.zX",
"Z.wXD.I I.gXr CX|.h j l s M l l c d p * & & * p * # + # = % * s v M v j j g S sXCX0 pXXXX.I.aX| ",
"C |.sXqXNXMX8XBXv f j p l N c l s i = * * * * = & + + % p - p z M v c l c l g { CXtXMXVXqXaX[.@.",
"! %.t N.MX~.b.|.f f j s b b d * & & & * * % % p # + % & g v m b c h s d v b c h W.3.Q.gXr o / ~ ",
"W 1   C.;XF.H.[.f f f l c i & & & & * * % # p x + + = s v M M v g f - - f l m b { F T :X'.o q ~ ",
"E X 0 fX(.) x %XA f f h p & & & & * * % $ < 1 {.B $ % s b v l g s p = * u s b M { B Z.U.MXa.7 / ",
"H.w.t.dXm.X.I.CX|.A p p = & & & * = % ; C ) I fX|.1 < : d p - * = * & & * - h c [.P.U 6X>X>.f.tX",
"8XT.;.k.iXR K C F.A.: = - * * * * * k D Y.K..Xb.E.o.A.D x : & & & & & & = < A ) Z.w D.MXm.M.vXXX",
"P K.1X;XvXaXn.z.x.'.[ - p - * & : G C.MXiX&XuXrX_.8X&X8X|.Z.G C C C F [ L.{./.c.z.E.NXyX>X5XX.w ",
" X^ y.,.v.bXMXtXcXnX0XB & % % k A.n.;.m.k.NX;XfXgXrXNXE.~.;._._.N.[.].s.MXCXZXkXgXpXV.v.>.e./ G.",
"kX#.e 5.g.R.7.cX=Xd.MX'.Z.[ D ).MX<.U.i.5.6X-.^.~.4.iX5.U.u.1.BX5X9.3.;.iXZXVXz.uXfXfXv.j._.+XMX",
"rX*XtXs.U.yX;.s.=.7.VXnX>XtXdXCX2X+.lX] k.:X1.0X$X;.>Xy.^.lX+.6XBXdXdX2XNX>Xf.fXpX^.SX(. .sXrXn.",
"1.v.wX%.K &X;Xw.0.} '.yXSXSXSXAX=Xy.[.` 5X8X+.hXsX) 8X5XJ.#Xe.;XBXCXCXCXMX`.' !.VXCXoXw I.wX9.3 ",
";.-.tX&XP K CX^.! W ) 5.vXSXrXU.vX,.0.q.nX<X1.}.%Xi.5XgX9.e.3.fXQ.uXrXt.v.%.~ +.3.v.w w 8XfX9 6 ",
";.,.pXI.H o.iXt.a.@.i.~.V.gXj.T CX7.rXCXCXVXT.u.U.g.vXBXNX<X7.BXT n.NXt.>.' $.e.5 >XoX2 / *Xn.9 ",
"j.<XjX( H.NX7.r.4 7.vXMX^.pXU F %XZXrXT.SXCXbXk.4.rXBXCX_.5XBX%XF T MX5Xr.s./.w.x.mXSXY.c.bXzXfX",
"CX#X>Xt.7.;X=.:Xg.,.iXy 9XMXk.2 K.S ) 3.8X0 '.MXtX8Xt pXs. .V F.U R.bX2.3.3XSXU.9 t.SXs.w.i.&.jX",
"qX( e -.7.6X6XSXCXY qXSXpXq fXI I  ._ c.MXtXzXkXsXzX9XMXz.] Z.Y D.NX2Xb.xX$XT kX6Xn.bXs.3 e.H.D.",
"..J U.k.T.;X;X>XI H J XX-XR.iXbXT.r.R.uXCX@XP Q._.I $XBXfXE.C.R.nXbXT.n.^.w w w ^.s.s.6X`.^.T w ",
"o.L.| Z.8X4 ;.q.( K...] ,.-.;XT.6XMX'.t wX..c.q.4.s...kXy '.MXdXR.rX>.w.] O.oX%.V.w.3 <Xt 0 C.W.",
"2X/.| > C.4 q.:XOXBXhX@X~.<.:Xg.-.y     aXK.z.k.1.r.o.zXO o N.1.j.tX9 U.aXhXnXhXbXa.e <XD '.`.Q.",
"oXU.R.0 F. ./ NX2Xf.k.iXOXE o.rX;.. > E [.sXK.@XI.Y wX|.} q O 9 6XF.+.*.gXs.3.n.CX&.O.G.{.'.<XI.",
"#XI.Q.4XK H #XzX7.=.=.R.hXI H XX~.Z ~ Q @.G jXzXsXzX| / W W / _.(.w G.NX_.9 5 <.iXCXB.w oX~.$X#."
};
