/* XPM */
static char *cacabf86fd6046d497eea0406af4e954[] = {
/* columns rows colors chars-per-pixel */
"48 48 248 2 ",
"   c #191716",
".  c #11150D",
"X  c #2A1B16",
"o  c #28231E",
"O  c #37211D",
"+  c #1D1D23",
"@  c #14293A",
"#  c #282626",
"$  c #382928",
"%  c #3C332C",
"&  c #2B2935",
"*  c #372E34",
"=  c #3A3835",
"-  c #2B3337",
";  c #251B25",
":  c #741C0B",
">  c #6B1E15",
",  c #741D13",
"<  c #7A1D18",
"1  c #6D1B0E",
"2  c #782318",
"3  c #6C251B",
"4  c #5E1A26",
"5  c #462C2A",
"6  c #46332D",
"7  c #462E34",
"8  c #4B3C3B",
"9  c #473736",
"0  c #553836",
"q  c #53352B",
"w  c #772726",
"e  c #7A3C38",
"r  c #703230",
"t  c #422615",
"y  c #44592D",
"u  c #4C453A",
"i  c #56453D",
"p  c #4B5A37",
"a  c #575A3C",
"s  c #56492E",
"d  c #6D4A37",
"f  c #4C6539",
"g  c #53683C",
"h  c #75613B",
"j  c #1A3347",
"k  c #13304A",
"l  c #2C3A48",
"z  c #473F42",
"x  c #583D44",
"c  c #324756",
"v  c #354C64",
"b  c #2C4D69",
"n  c #4A4746",
"m  c #574646",
"M  c #565746",
"N  c #574D54",
"B  c #595657",
"V  c #494C53",
"C  c #644B4A",
"Z  c #685648",
"A  c #665A56",
"S  c #745956",
"D  c #734D4B",
"F  c #4D6842",
"G  c #566946",
"H  c #59744A",
"J  c #5A7454",
"K  c #5F6C50",
"L  c #66665A",
"P  c #78655A",
"I  c #677758",
"U  c #756B4C",
"Y  c #575A65",
"T  c #4A5A6A",
"R  c #725A64",
"E  c #536571",
"W  c #6A6667",
"Q  c #776967",
"!  c #797469",
"~  c #6B6B74",
"^  c #776B72",
"/  c #7B7778",
"(  c #697C65",
")  c #851C17",
"_  c #84231C",
"`  c #89251A",
"'  c #97271B",
"]  c #881D26",
"[  c #8C2623",
"{  c #882A28",
"}  c #962725",
"|  c #89332C",
" . c #862A33",
".. c #942D34",
"X. c #883736",
"o. c #953739",
"O. c #94312E",
"+. c #A42C25",
"@. c #A32C1C",
"#. c #99443C",
"$. c #87463B",
"%. c #916E38",
"&. c #AB742A",
"*. c #B57A2B",
"=. c #A46D35",
"-. c #A97837",
";. c #B27B36",
":. c #B16E25",
">. c #A3413D",
",. c #883C45",
"<. c #973846",
"1. c #894546",
"2. c #964748",
"3. c #97544B",
"4. c #995759",
"5. c #8C5252",
"6. c #A14948",
"7. c #A5524D",
"8. c #A55C59",
"9. c #A95355",
"0. c #9B7647",
"q. c #967857",
"w. c #886F4F",
"e. c #A77C44",
"r. c #B37F43",
"t. c #A5655B",
"y. c #AA7259",
"u. c #965C62",
"i. c #AB5C60",
"p. c #86756A",
"a. c #877876",
"s. c #926E6B",
"d. c #A96866",
"f. c #A8746A",
"g. c #AA7775",
"h. c #B67974",
"j. c #B26E6C",
"k. c #6D835C",
"l. c #768568",
"z. c #748A6C",
"x. c #AD823A",
"c. c #B7843B",
"v. c #C08B3D",
"b. c #AB8548",
"n. c #B78747",
"m. c #A98657",
"M. c #B68C55",
"N. c #B99459",
"B. c #B7924D",
"V. c #878479",
"C. c #98877A",
"Z. c #8E8E73",
"A. c #B89767",
"S. c #AC8676",
"D. c #B8857A",
"F. c #B99B77",
"G. c #AB916D",
"H. c #BAA378",
"J. c #C29355",
"K. c #C38E4E",
"L. c #C49A68",
"P. c #C49676",
"I. c #C7A56B",
"U. c #C6A677",
"Y. c #D3A873",
"T. c #526884",
"R. c #697787",
"E. c #697EA5",
"W. c #947F82",
"Q. c #B27C82",
"!. c #75869C",
"~. c #8B8584",
"^. c #968988",
"/. c #969788",
"(. c #9A9895",
"). c #8C8E93",
"_. c #A68B88",
"`. c #B88987",
"'. c #A69789",
"]. c #B69688",
"[. c #A69A98",
"{. c #B59B98",
"}. c #9AA791",
"|. c #B9A787",
" X c #A6A69C",
".X c #BBA597",
"XX c #B6B497",
"oX c #919BA6",
"OX c #AC9FA2",
"+X c #98A5B6",
"@X c #A7A5A3",
"#X c #B7AAA7",
"$X c #B8B6AA",
"%X c #B9ADB3",
"&X c #BCB3B3",
"*X c #BDB8B7",
"=X c #A9AFAF",
"-X c #C79C95",
";X c #C49287",
":X c #C6AA86",
">X c #C8B38B",
",X c #C8A897",
"<X c #CAB699",
"1X c #D3B899",
"2X c #D4AF91",
"3X c #C6A8A5",
"4X c #D5ABA6",
"5X c #C9B7A8",
"6X c #D4B8A7",
"7X c #C6BCB5",
"8X c #D8B9B7",
"9X c #C5ABB2",
"0X c #D5A997",
"qX c #BEC5B7",
"wX c #B6C3A9",
"eX c #D5C39D",
"rX c #CAC1AB",
"tX c #D4C5AA",
"yX c #C6C7B8",
"uX c #D6C7B9",
"iX c #D9D1BB",
"pX c #E6CFB9",
"aX c #B2BDC6",
"sX c #CBBCC2",
"dX c #E7B8C1",
"fX c #BEC2CA",
"gX c #BECDCA",
"hX c #C9C8C7",
"jX c #D8C8C5",
"kX c #DCD5CD",
"lX c #D7D5C7",
"zX c #D4CDD2",
"xX c #DBDCD4",
"cX c #D9D6D6",
"vX c #CAD1D2",
"bX c #E5CAC3",
"nX c #E4D8CA",
"mX c #E3DBD5",
"MX c #E4DAD9",
"NX c #F2DBDB",
"BX c #DBE2DB",
"VX c #E5E3DA",
"CX c #CDD5E0",
"ZX c #E8DFE6",
"AX c #DDE3E4",
"SX c #DDE8F8",
"DX c #E5E6E7",
"FX c #F3E8EB",
/* pixels */
"B q.L b b Y n a.! ].B.K.L.eXU.xXxXtXN.K.A.U.B.N.L.U.J.K.2XmXMXeX1X:XA.Y.5XzX=X& & T T.E.W w.B R.",
"q.Y E b v V * z lXuXA.eX|.I.M.lXnX:XN.K.P.1XB.M.I.eXA.N.F.>XtXU.n.:XMXVX5XMXvXW W fXfX!.l Z w.U ",
"Z.v E gXCX@XY (.xXtXiXBXiXJ.J.L.H.tXuX'.Z P 1XG..XS C 5XkXiXA.J.K.2XDXSX5X<XhXV N aXoXj j l L %.",
"T b b +XAX~ * A pXF.bXcXtXN.B.H.nXAXDXa.m Q #X0 (.N 9 [.hXxX7Xq.1X5XuX,XN.n.F.& & / ~ T j R.v j ",
"+XE E Y / B & n U.K.L.U.>X>Xw.M [.)./ @X/ ^.A 8 / (.~.~.N ~.B 9 $XMXVX>Xc.;.N.a.~ N - V +XaXv k ",
"CXvX+X- * / V C.N.K.K.U.pXiXB * W N = / BXxX~.m [.mXVX^ m Q P 9 #X&XAXlXA.n.M.,X<XS # B vXCX!.j ",
"*XmXyXz 8 C.:XI.P.F.q.$XyXC.[.~.xX).D Q.mXmX3X5.3XkXmX%X[.yXkX&Xm m #XA i '.>Xb.c.F.~.  n N + Y ",
"N ~.n = '.F.B.n.L.C.n A (.m W BXBX9X| | j.uX1.o.4.uXQ.1.4.jXDX%Xm m *Xm m p.A.;.x.b.=   * B # V ",
"# z # & C.N.v.v.N.p.A R $XS 5.4XVX3X..{ 6.8X2.o.4.6X9.o.X.8XjXQ.D ^.jX#XQ / G.n.M.F.G.Z ).aX/ Y ",
"B &X^ h I.I.N.A.G.'.@XsXAX-Xo...uX8X<.| o.4X2.X.4.-X<...4.8Xd.o.X.,XkXlX# * W .XG.A.&.b.6XmXzX^ ",
"mXnX>Xc.n.L.G.tXQ x S VXxXi.} } 2.bXi.....;X2...4.`....._.;X..O.O.-X-X].m 9 a.n % q.;.N.:X:XH.F.",
"<X>X:XJ.n.q.i S W.C D j.3X;X} ' O.-Xh...} d.2.2.4.d.o. .;X7.O.} S.,XO.[ 1._.lX9 z '.N.H.xXkXL.;.",
"U.nXVX:XL.C.8 0 kX9X,.+...`.>.[ ` 2.0X{ D.f._.jX].{.4Xu.i.o...#.;X#.[ } 1.5XlX(./ 7XrX:XnXkXA.;.",
">XBXnX<XnX7X_. XFXMX2.` ' ..h.+.@.6.2.f.nX XhX XcX(.hX_.u.d...d.o.[ } { -XpXbXA & ^ lX<X>X2XA.I.",
"U.2XY.U.mXp.C C NX8XMX2.} ' ` d.t.mXkXV.m ^ Q x (.a.C (.#XhXs.d.o.[ | 0XS.2.3.0 # N '.G.x.;.N.F.",
"U.n.c.L..Xa.C D 7.O.i.-X4.[ 8.`.g.*XN A %XhXV.N [.yX5XA n (.A ,Xh.o.j.i.| { | 5.L L $ s x.;.F.:X",
":XA.c.m.q C s.f.} ' ` o.`.d.-XZX7 a.* 8 xXxX}.K  XlXyXL = (.m a.'.1.o.[ } [ <.,XrXC.9 a.U.M.uXxX",
"xXtXN.5Xi S <X6Xi.} +.[ w 2.9XW B *X(.L V.=XJ g Z.wXJ J @XcX(./ jX5Xf.{ { 8.6XiXtX.Xp.aXuX>XlXmX",
"xX1X6XAXhX.XuXiXpX0X#.} o.8XvX%XkXxX$XM p G F g k.l.H J wXBX*Xu m 5Xg.8.h.t.o.[ t.d 6 W xX>XA.F.",
"1XA.uXfXm 0 5.>.#.j.D.t.2.8XR 7 Q yX$Xg f F k.F l.H H z.}.l.W = n [.S.t.{ _ 2 < X.D 0 p.$X:X-.-.",
"c.B.5X7Xx 0 r ' ' [ [ #.d. X^ 6 u I k.H f G wXI  XI H l.G a G ^.~.A [.5X| _ ) , h.5X#X/ $ U -.-.",
"c.r.d 7 a.$X6X#.` } } 7.nX! OXhXV.G H g Z.Z.qX X*X(.qXJ G G l.lX*Xm ! .Xw 6.j.2XpXjXyXB $ a.H.A.",
"B.G.d q a.DXMX8X,Xj.6.6.8XS ^.DXqXl.H G H yX! n 9 [./.z.J z.wXqX*X~.Z f.d.8.3.$.X.g.#X/ (..XM.M.",
"U.:XZ ! @XsX#Xd.8.7.o.o.].a.Q %X/.I H H }. X9 6 9 n =X}.J G G I B 8 ! 6Xw w w < < d C % a.G.;.*.",
"x.r.A.C.7 0 e ` _ 2 ` 8.mXQ 0 A M p p p M ~.* $ 7 9 (.z.G F F G B $ P ,Xw < < < , e D $ /.,X-.-.",
"*.*.c.].9 q e ` _ [ } o.7X(.C (.V.G f I $X@XN # * N /./.I I }.XX7X~.P f.3.t.h.D.F.<XhX#X8 u |.N.",
"B.n.m. X^.[.9Xf.h.j.7.7.u.Q a.cXcX}.F G K /.(.L N l.yXF p p G rXjXL [.XX[ ` , w t.<XuXp.5 i m.-.",
"2X:XS 7 8 hXZX,Xd.1.| w 8X[.0 cXlXI y y p I K $X/.Z.I I y y p P P a.[..X[ ` ` ) 2 s.p.C.Q C.&.&.",
"e.b.%.5 0 &X7X< ) < ) | `.[./ 8 8 M y G p p p l.G k.g f k.G I u $ ^.$X2.2.| 2 2 w r $ Z jX1Xb.:X",
"*.*.A.[.OX6 q _ ) 2 2 7.2.g.(.7 6 (.wXl.y p F F f g g y K qXlXV.m ~.mXX.3.-XbX3X4Xg.$ A kXrX<XlX",
"B.B.F.nXa.$ 0 h.2.d.;Xj.| D.#Xp.8 *XVXI y p z.f y I l.f G  XhXW.^ #X].| 2 { 8.8XjXuXa.a.iXL.yXcX",
"tXtX|.pX7XW @XlXlX-X2.2 ` o.2.5.7 W ~.u p ( gXp p l.lX/.q 0 ^.D &Xg.5.r < 2 _ X.uX#X6 X G.r.<XrX",
"xXnX>XU.m X Q nX;X[ ) 2 3 $.3.bX7XB m x m vXDXV.a '.mXsX6 6 /.s.jX3.d D.| < ) ) P Q u 8 0.-.q.].",
"A.H.M.;.s   9 % d._ ) { t.D.< ;X6X'.^.N z W &XS 0 P A m [.OXbXw w _ ) X.6X].$.5.$ % #XuXm.>XA.A.",
"n.B.*.*.m.@X~   O 3.3.-X`.w < _ 2.g.cXhXC m 0 p.i a.Q V.&XsX3X> d.| _ ) d.8X5X&X8 8 &XiX:XiX<Xe.",
"B.J.b.J.B.kXoX  $ .XiX-Xw < , X.3.X.g.D ,XyXp.uX7X9X8XxX_.4.w : f.D.2 ) 2 g.cXsXn 8 .XA.<XcXrXm.",
"&.n.*XyXN.uXvXV u .XnX1.< 2 5.;X> < ) { 3.`.`.s.Q.1.e 3.X.S.< : 2 D.D.{ w D ^ ~.6 0 m.-.P.5X|.F.",
"&.c.:XyX>XF.~.    a.Q 5._ $.jX$., , [ | [ w 4Xw w 1.d : : f.X., : { 4X,Xw.q 7 Q L /.m.&.=.H.jXCX",
"e.e.M.B.M.;.0.9 V W $ 5 5XuX3X2 , 2 D.w { r 8X4  .,.S.> 1 1.`., , 2 4X5XC.C m ! G.].m.m.w./.%X~ ",
"M XX<XN.;.*.x..X Xa.$ 8 lXlX{.1 ) | -Xw ] <.dX4  .,.8X3 1 e 8Xu.w e D _.i n @XA.=.=.:Xa.    V   ",
"L L C.P s m.A.e.x.G.jXP P .XR r S.5X`.w ] 1.nXr  .,.8X5.< X.jXcX(.9 $ 8 % * 8 m.&.=.G.! . # N . ",
"$   = #   M A.;.*.x.C.$ 5 A 5 5 $XlX3X . .d.NX,.w 5.hX{.e s.sXhX[.m # ~.% 0 S.A.e.0.P 9 / =XhX+X",
"# . o $   W 5X-.&.r.6XC $ ! u m Q _.a.0 R zXAX[.0 _.cXkXm O C A O ! [.uXF.0.-.m.P ! B   + ).aXoX",
"j B (.'.L # o G.w.b.x.r.F.iXyXV.$ 9 C $ m %X%X^ $ 8 a.~.A O Q m X P 6X<Xe.=.&.w.X   l   = c v !.",
"k c  X#Xn     = X %.&.;.-.U.uX'.t i yXM C.$ ; A o i * $ p.$XhX#X0.=.=.F.yX|.m.'.. . R.@XR.@ @ l ",
"k v R.c c n !     d b.;.0X5XA.b.%.'.cX7X(.# # ! Z Z.% $ ! uXuXF.=.&.M.lXzX<XuXzX~ n #X&X).l = 0.",
"a V @ @ k  XyX! l ).tXb.<XCX,X&.*.b.XXuX<XZ 0 q.e.e.G.q.0.m.,X5X|.b.G.A.2XF.lX=X  . Y Y T E Z %.",
"h w.U - E fXhX= + ~ hX<X].5Xb.-.M.tX<XM.-.-.L.;.:.&.b.-.&.A.lXcX5X|.tX-.-.m.$X~.#   l @ @ - U ! "
};
