/* XPM */
static char *dac2d41d4d7c47a8a92257783ab890f1[] = {
/* columns rows colors chars-per-pixel */
"48 48 95 2 ",
"   c #63605B",
".  c #55524E",
"X  c #5E5B56",
"o  c #625F5A",
"O  c #64615C",
"+  c #5F5C57",
"@  c #585450",
"#  c #504D49",
"$  c #5C5955",
"%  c #5D5A55",
"&  c #5D5A56",
"*  c #605D58",
"=  c #53504C",
"-  c #5C5954",
";  c #4E4B47",
":  c #54514D",
">  c #5C5854",
",  c #5D5955",
"<  c #5A5753",
"1  c #55514D",
"2  c #57534F",
"3  c #524F4A",
"4  c #68645F",
"5  c #635F5B",
"6  c #54504C",
"7  c #5F5B57",
"8  c #65625D",
"9  c #67645F",
"0  c #615E59",
"q  c #5B5753",
"w  c #595551",
"e  c #514E4A",
"r  c #4F4C48",
"t  c #4F4B47",
"y  c #6A6762",
"u  c #6D6964",
"i  c #4D4A46",
"p  c #575450",
"a  c #66635E",
"s  c #56534E",
"d  c #514D49",
"f  c #605C58",
"g  c #56524E",
"h  c #585551",
"j  c #6C6863",
"k  c #6B6863",
"l  c #64605C",
"z  c #726E69",
"x  c #534F4B",
"c  c #56534F",
"v  c #686560",
"b  c #5B5854",
"n  c #6C6964",
"m  c #5A5652",
"M  c #585550",
"N  c #524F4B",
"B  c #625E5A",
"V  c #696560",
"C  c #5E5B57",
"Z  c #5A5752",
"A  c #595651",
"S  c #696661",
"D  c #706C67",
"F  c #524E4A",
"G  c #686460",
"H  c #66625D",
"J  c #716D68",
"K  c #6A6661",
"L  c #53504B",
"P  c #5E5A56",
"I  c #6F6B66",
"U  c #595652",
"Y  c #57544F",
"T  c #5B5853",
"R  c #65615D",
"E  c #65615C",
"W  c #6E6A65",
"Q  c #54514C",
"!  c #6A6662",
"~  c #5F5C58",
"^  c #736F6A",
"/  c #55524D",
"(  c #5C5853",
")  c #6B6762",
"_  c #615D59",
"`  c #66625E",
"'  c #504C48",
"]  c #64605B",
"[  c #67635E",
"{  c #67635F",
"}  c #514E49",
"|  c #6F6C67",
" . c #6E6B66",
".. c #6D6A65",
"X. c #696561",
/* pixels */
"  . X o O O O O O O O O O O O + o @ # $ O O O O O % & & * *   O O O O O O O O O O o = - O O O O ",
"o @ ; : > , o , < O O O O O O 1 @ @ 2 3 O O O O O 4 5 5 6 1 , O O O O O O 7 O O O 8 9 0 $ O O O ",
"  % q w # e 1 ; X O O O O O O X ; r t = < o O O O O O y u i p 0 o O 0 @ q O O O u o a u < o O O ",
"+ @ , s d i # e q f O O y O O > e g h 8 j < O O O O 7 O k i g h 0 O * * O O O O 4   l z 5 & O O ",
"  h ; x g 2 2 = d c p O u v b g d 2   9 n : O O O O m   8 . ; M O O O O O O O O 8 u N c * , O O ",
"O O , x @ B   X , x t e * 5 5 5 5 c O V C # O O O O 2 m   Z r A o O O O O O S u D D c F 1 2 f O ",
"O O G x 0 O O O O 0 : o H a a J z K M m L = O O O P 2 @ o   c e @ ,   O O   v p s N i g , m @ 0 ",
"O O G x o O O O O - + O O O O I 4 k r F r U O O O , 2 X 8 9 @ r 6 2 - % < U Y T O = i p O 7 A o ",
"O 8 G M   O O O O o   O O 8 k v O R e i N * O O O o m o K y X g e e # r # % E 9 8 + e 2   O o O ",
"O u + A   O O O O O O O O v j O O o 1 r 2 * O O O O 7 4 f   w 1 = , e 1 o O , G W O @ = m b O O ",
"9 J Q *   O O O O O O O % ! f   O   - r x m O O O O 9 k O e . F @ O ~ q O O , 7 ^ a X # 6 m O O ",
"D w Q O O O O O O o m 2 2 2 X O O O X ; i / * O O O O o + e i x q O q % O * ( I I 8 - ; i 6 q   ",
"/ i ~ O O O O O O X 2 R 2 ) 9 O O   w ; w D + Q h O 0 w d ; 6 2 q O 0 O O   8 9 O > 6 6 6 e # x ",
"F x Q 7 * O O o m 2 ) ^ ^ I O O O o x u R l I b Q Q M 3 i = p 6 6 . P A r # @ & M 6 x > * q q g ",
"2 2 Q O + , , m 2 P D ^ u V O O O o x k 9 y O O O O y m # j J 5 f r e t g X _ # i x m   O O O O ",
"* w Q O O o S ) ) n V a 8 O O O O o x k O O O O O O < = ` a a a k B U ; . 8 j O t g , O O 0 f O ",
"O , 6 C O O O O O O O O O O O O O , x - O T O O O O s B O O O O O 9 . 6 - a j 9 r g , O 0 w O O ",
"O   @ = Q 0 o   O O O O O o     , 2 x i 3 % O O O 7   O o P o   O O o e # Z v s ; r c 0   o 8 O ",
"O O o A g i F @ X X o O * 6 T - 2 2 x ; $ O O O O O O 0 , P X f O O O & i Y Y Z 6 ; e / O V H O ",
"~ g + 2 ' = r ; ; ; 1 . r e @ g g r ; C O O O O O O   > Y = * O O O O - - O O   > ' q 0 K _ ,   ",
"O Y x r p f > x i r e # i x x ; i i i Z O O O O O O - 1 ; x X O O O O T O O O O Z d Y O y 5 0 o ",
"O T i c   O   M e . * g 6 3 ] G w i # T T h O O O 7 1 N 6 F e 7   7 O O O O O O * c Y O a 8 O O ",
"* 1 T O O O O O B : * O O O O a D 7 x = Y * O O O , ; T k 4 o U P O O O O O O O O b Y O O O O O ",
"- . O O O O O O   * O O O O O O a j i - O O O O O h X 8 8 O O O O O O O O O O O O 0 # o O O O O ",
"O Y 0 O O O O O O O O O O O O O O o e 0 O O O O O Y O O O O O O O O O O O O O O O X # o O O O O ",
"O C 1 0 O O O O O O O 7 O O O O O O   < O O O O O Y h 0 O O O O O O O O O O f U 0 p Y O O O O O ",
"O O _ g 1 - 0 o X 7 O Q , O O v [ { u s O O O O 8 < # _ 8 O O O O a D 4   ~ # M q g % a O O O O ",
"O O a a } 1 @ @ 1 O O 0 % O O a a X [ s O O O O v 5 # [ a O O O 8 | 4 2 q : i g 2 g % a O O O O ",
"O O O k ! = g = ' p + O O O O O a u B e O O O O v 5 6 1 9   O K J ` @ 2 # w 0 N x r T a 8 A O O ",
"O O O O J ^ = e r x F 7 O O O a l % w e O O O O a v 6 i e < 8 | H 2 2 6 i 1 , F / h i w r T O O ",
"O O O O 4 D N X E , 1 # - c o 5 e C % # A O O O O y 1 ; 2 U O V @ 2 2 6 O O 3 +   O , e e @   O ",
"O O O C S % U D V c e . ; e h Y C O O p L 0 O O O , q e p O 8 v m 2 2 e G O O O O O O o 1 N , O ",
"O O O 8 % T 0 y v + * - # g 0 O O O O p i & O O o 7   + Y   O 8 T 2 g / v O O O O 0 + , % . h O ",
"O O O O - i , O O O * g Z y O O O O O @ r c O O O O O O   0 O X 6 x s % a O O O C = A   O q Y O ",
"O O O O k i p O   q @ 2 v O O O O O O + g r T O O O O O O O   s 0 ] o O O O O ~ 6 @ o O O q Y O ",
"O O & ] G w ; 6 h i / z 9 O O O O 0 O O X 2 : o O O O O   U ; % v O O O O O O & x > O O O O Y O ",
"Q Q 6 6 = i e G m e G 9 O O O O T M O O X 2 e 3 h O q q m e * % v O O O O O O & x o O O O O Y h ",
"g q O O > x . a 8 g 2 O O O O e 6 > O o g 2 M / Q Q Q 6 = < H y O O O O O O O O 7 * O O O O i 3 ",
"O O O O   m r s @ w v O O O $ 1 T   O o x G | a O O O   # < O O O O O O O O O O O * O O O O i & ",
"O O O O O   + c . n a O O O > -   O O o 6 0 8 O O O O a m 3 0 O X @ o O O O O O O O O O o w + H ",
"O O O S 8 O O y Z [  .O O O 0   O O O   T # O O O O O C 9 C U C e h 0 O O O O O O O O O - ; u O ",
"O O O 8 ..O 9 | h 1 Q 0   O O O O o O o p r O O O O   O O O e r 1   O O O O O O o o O o 6 ; 8 O ",
"O O O O k y | U M , , i c < * 0 < U O < # : O O O O @ O O O e e 6 0 O O O 0 * 0 . - O B # e 0 O ",
"O y A O v D X.N * O o # - # = = h 0 Z N w   O O O O # + O o e 2 c x Q Z   o c d = o   h d # > O ",
"O O G 5 J c e , O O T O O O S j b r : I S O O O O 0 t U o L c , o O O A T c i g 2 % T x e q 2 o ",
"O O , 7 p 6 @ o O O O O O O O 4 v O % S O O O O O , i t c G R O O O O 8 _ * i r 6 2 6 ; U   *   ",
"O O # Z , 0 O O O O O O O O O O O { q 8 O O O O O Z 3 % S O O O O O O O V 0 % n [ r e , O O O O ",
"O T ~ O O O O O O O O O O O O O O 0 # o O O O O O Y _ v 8 O O O O O O O 9 v v a v % ; 0 O O O O "
};
