/* XPM */
static char *_87f03e447144eb4ac9eca23641b155c[] = {
/* columns rows colors chars-per-pixel */
"48 48 163 2 ",
"   c #750100",
".  c #7A0201",
"X  c #7F0807",
"o  c #830201",
"O  c #8A0100",
"+  c #820804",
"@  c #8B0907",
"#  c #870E0C",
"$  c #8E0D0C",
"%  c #900706",
"&  c #910807",
"*  c #940B0A",
"=  c #980F0E",
"-  c #8E140D",
";  c #90110F",
":  c #99100F",
">  c #8B1412",
",  c #8D1A12",
"<  c #811918",
"1  c #931311",
"2  c #9C1312",
"3  c #9D1916",
"4  c #981E1C",
"5  c #A01615",
"6  c #A31917",
"7  c #A61C1A",
"8  c #A81E1C",
"9  c #9C2017",
"0  c #99201D",
"q  c #A3221E",
"w  c #AB211F",
"e  c #8C2424",
"r  c #9D2927",
"t  c #A02726",
"y  c #AD2221",
"u  c #A12B21",
"i  c #A62A28",
"p  c #AB2C29",
"a  c #B22625",
"s  c #B32826",
"d  c #B62B29",
"f  c #BA2D2C",
"g  c #AF312B",
"h  c #B03428",
"j  c #BD312F",
"k  c #BE3331",
"l  c #B23A37",
"z  c #B33C39",
"x  c #C23533",
"c  c #C43936",
"v  c #C83936",
"b  c #C63C39",
"n  c #CB3D3B",
"m  c #D13F3F",
"M  c #C34136",
"N  c #CE433E",
"B  c #C34B3C",
"V  c #D2413F",
"C  c #B76463",
"Z  c #CA4A49",
"A  c #D44442",
"S  c #D94645",
"D  c #D14942",
"F  c #DA4947",
"G  c #D74A48",
"H  c #DD4B4A",
"J  c #CE504E",
"K  c #CD5A5A",
"L  c #DC5C5A",
"P  c #E14E4D",
"I  c #E3514F",
"U  c #E65251",
"Y  c #EC5656",
"T  c #EC5655",
"R  c #EA5554",
"E  c #E55F53",
"W  c #EC5856",
"Q  c #EF5957",
"!  c #ED5856",
"~  c #EE5958",
"^  c #EF5A59",
"/  c #EF5A58",
"(  c #F15959",
")  c #F05A59",
"_  c #F15A59",
"`  c #F15B5A",
"'  c #F35B5B",
"]  c #F25B5B",
"[  c #F05C5A",
"{  c #F25C5B",
"}  c #F55C5B",
"|  c #F35C5C",
" . c #F45D5C",
".. c #F65E5D",
"X. c #F75E5D",
"o. c #F55F5E",
"O. c #F65E5E",
"+. c #F75E5E",
"@. c #F75F5E",
"#. c #F45C5C",
"$. c #F85F5E",
"%. c #F95F5F",
"&. c #F85F5E",
"*. c #EF615A",
"=. c #F7605F",
"-. c #F8605F",
";. c #F9605F",
":. c #F8625F",
">. c #F8605F",
",. c #F85F60",
"<. c #D06664",
"1. c #D06B6A",
"2. c #C17774",
"3. c #CA7474",
"4. c #C27875",
"5. c #C97A7A",
"6. c #E96463",
"7. c #F76161",
"8. c #F96161",
"9. c #FB6161",
"0. c #FB6160",
"q. c #FB6262",
"w. c #FC6161",
"e. c #FC6060",
"r. c #FD6261",
"t. c #FC6261",
"y. c #FD6262",
"u. c #FD6363",
"i. c #FE6262",
"p. c #FF6262",
"a. c #FE6263",
"s. c #FE6363",
"d. c #FF6363",
"f. c #FF6463",
"g. c #FD6464",
"h. c #FF6464",
"j. c #FF6363",
"k. c #FB6868",
"l. c #FF6C6C",
"z. c #FD6B6A",
"x. c #E37F7C",
"c. c #E47E7E",
"v. c #FF7373",
"b. c #FE7675",
"n. c #FF7877",
"m. c #EB807F",
"M. c #C88683",
"N. c #DD9292",
"B. c #E88381",
"V. c #EB8C8B",
"C. c #FF8282",
"Z. c #FF8483",
"A. c #F88686",
"S. c #FF8F8E",
"D. c #E39A9A",
"F. c #ED9C9B",
"G. c #F79290",
"H. c #FB9190",
"J. c #FF9493",
"K. c #F7A3A2",
"L. c #FFA3A3",
"P. c #FAA8A7",
"I. c #FFABAB",
/* pixels */
"@.F n n n n n n n n n n n N U k.C.J.J.J.J.J.J.H.B.1.J n n n n n n n n n n S ) v.A.x.<.Z p   o 4 ",
"R 7 O O O O O O O O O O @ : n @.d.d.d.d.d.d.d.U f O O O O O O O O O O O * y P $.P a O O o   o 4 ",
"R 8 O O O O O O O O O O 2 b Y d.d.d.d.d.d.d.Y f 2 O O O O O O O O O O @ d P ) P s = O O O . o 4 ",
"R 8 O O O O O O O O O 2 d U d.d.d.d.d.d.q.^ A 2 O O O O O O O O O O * 2 S ;.Q v * O O O @ , - 4 ",
"R 8 O O O O O O O O = F | d.d.d.d.d.d.d.Y j * O O O O O O O O O O O d I @.P s * O O O @ w E M 4 ",
"R 8 O O O O O O O 2 f Q f.d.d.d.d.d.d.Y v 7 O O O O O O O O O O * y A ) I x 2 O O O & 8 n ;.N 0 ",
"R 8 O O O O O @ * c @.d.d.d.d.d.d.q.{ b O O O O O O O O O O O & y U q.{ s O O O O % 7 F d.;.N 0 ",
"R 8 O O O O O y P | d.d.d.d.d.d.h.P s * O O O O O O O O O O % n R q.A w * O O O = x R @.d.;.N 0 ",
"R 8 O O O O * f @.d.d.d.d.d.d.d.@.A 5 O O O O O O O O O O @ 2 F @.@.v = O O O @ 6 A d.d.d.;.N 0 ",
"R 8 O O O @ A ) d.d.d.d.d.d.d.Y f * O O O O O O O O O O O 8 U q.U y * O O O O w P $.d.d.d.;.N 0 ",
"R 8 O @ y n ) d.d.d.d.d.d.d.S d 2 O O O O O O O O O O * b F @.V s * O O O = d H $.d.d.d.d.;.N 0 ",
"R 8 O * c @.d.d.d.d.d.d.d.@.x = O O O O O O O O O O O 2 ) @.@.s * O O O O 7 S ;.d.d.d.d.d.;.N 0 ",
"R 8 = n U d.d.d.d.d.d.h.Q v 5 @ O O O O O O O O O O a A h.R j : O O O O s S ) d.d.d.d.d.d.;.N 0 ",
") x j @.q.d.d.d.d.d.q.P b 6 @ O O O O O O O O O 2 y A { F c = O O O = w S $.d.d.d.d.d.d.d.;.N 0 ",
"q.Y R d.d.d.d.d.d.d.) s 2 @ O O O O O O O O O * d U ) ^ 7 2 O O O O s F } d.d.d.d.d.d.d.d.=.N 0 ",
"Z.l.d.d.d.d.d.d.h.I x * O O O O O O O O O O * f H d.H k O O O O * d F @.d.d.d.d.d.d.d.d.d.=.N 0 ",
"L.b.d.d.d.d.d.q.| v 2 O O O O O O O O O O * 8 P | Q j * O O O * w P $.d.d.d.d.d.d.d.d.d.q.W b 0 ",
"I.b.h.d.d.d.d.U k 7 @ O O O O O O O O O * s A ) H d 2 O O O @ d A } d.d.d.d.d.d.d.d.d.d.U p q 4 ",
"I.b.h.d.d.d.U k @ O O O O O O O O O O * s H q.H d O O O O * 8 P q.d.d.d.d.d.d.d.d.d.;.U k   . 4 ",
"I.b.h.d.d.@.f 2 O O O O O O O O O O @ a U ) R s = O O O @ 7 F @.d.d.d.d.d.d.d.d.d.d.Y x 1   . 4 ",
"I.b.h.d.R A 2 O O O O O O O O O O * w m @.I c = O O O @ s b @.d.d.d.d.d.d.d.d.d.$.U b 7 O   . 4 ",
"I.b.d.Y x * O O O O O O O O O O % s H ) I d * O O O % 6 ^ @.d.d.d.d.d.d.d.d.d.q.U f * @ O   . 4 ",
"I.b.^ k 7 O O O O O O O O O O * s A ^ I f 2 O O O @ y n d.d.d.d.d.d.d.d.d.d.d.U x 5 O O O   o 4 ",
"P.6.n O O O O O O O O O O O = s P @.U f O O O O * 8 A h.d.d.d.d.d.d.d.d.d.$.R x * O O O O   o 4 ",
"F.z * O O O O O O O O O O % x R q.H y * O O O * f ) ;.d.d.d.d.d.d.d.d.d.d.I s * O O O O o   . 4 ",
"V.p O O O O O O O O O O @ 2 A { ) n 2 O O O @ 5 n h.d.d.d.d.d.d.d.d.d.d.) A 6 O O O O O O   . 4 ",
"U 7 O O O O O O O O O O 8 I d.U y O O O O O 7 R h.d.d.d.d.d.d.d.d.d.d.=.d O O O O O O O O   . 4 ",
"R 7 O O O O O O O O * n I { A y * O O O * j I $.d.d.d.d.d.d.d.d.d.h.F d = O O O O O O O O   . 4 ",
"R 7 O O O O O O O O 2 U d.@.j * O O O O 5 A d.d.d.d.d.d.d.d.d.d.d.q.b : O O O O O O O O O   o 4 ",
"R 7 O O O O O O O s F ,.R f = O O O O y I ) d.d.d.d.d.d.d.d.d.d.R f 2 @ O O O O O O O O O   o 4 ",
"R 7 O O O O O : s A ) F x 2 O O O * y V q.d.d.d.d.d.d.d.d.d.d.P x 2 O O O O O O O O O O O   o 4 ",
"R 7 O O O O O s Y @.Q 8 * O O O O y H $.d.d.d.d.d.d.d.d.d.d.@.s * O O O O O O O O O O O O . + 4 ",
"R 7 O O O @ x P d.H d * O O O * f H @.d.d.d.d.d.d.d.d.d.d.U d * O O O O O O O O O O O O 3 B h 4 ",
"R 7 O O * 2 P { ^ x = O O O * 8 A q.d.d.d.d.d.d.d.d.d.d.^ A : O O O O O O O O O O O O * d *.N 0 ",
"R 7 O @ d P @.H y : O O O @ d H ' d.d.d.d.d.d.d.d.d.d.{ w 2 O O O O O O O O O O O O = x R ;.N 0 ",
"R 8 * d F d.H d @ O O O * y H q.d.d.d.d.d.d.d.d.d.d.I n O O O O O O O O O O O O % 7 x U h.;.N 0 ",
"R y 6 R ) | s * O O O @ 7 A @.d.d.d.d.d.d.d.d.d.d.@.c 2 O O O O O O O O O O O O 2 v Q $.d.;.N 0 ",
"@.A m q.H x = O O O % d V ) d.d.d.d.d.d.d.d.d.q.P x 6 O O O O O O O O O O O O 2 c U d.d.d.;.N 0 ",
"l.7.) U j * O O O * 7 P @.d.d.d.d.d.d.d.d.d.q.U x * @ O O O O O O O O O O @ : f R q.d.d.=.I c 0 ",
"S.z.R s 2 O O O @ y V @.d.d.d.d.d.d.d.d.d.q.Y j 5 O O O O O O O O O O O O 2 x P $.d.h.d.U u 9 4 ",
"K.L x O O O O 2 s A $.d.d.d.d.d.d.d.d.d.$.P x * O O O O O O O O O O O O 6 b R h.d.d.z.b.K   o 4 ",
"F.l * O O O O s Y ;.d.d.d.d.d.d.d.d.d.d.R f * O O O O O O O O O O O O * b @.d.d.f.h.v.G.3.  o 4 ",
"m.p O O O O 8 n q.d.d.d.d.d.d.d.d.d.d.Y b 7 O O O O O O O O O O O O 2 s P d.d.d.z.n.S.K.5.  o 4 ",
"A 3 O O * 6 U d.d.d.d.d.d.d.d.d.d.@.R k o O O O O O O O O O O O @ : b ) f.d.d.@.6.c.D.N.C   o 4 ",
", X . X p I @.d.d.d.d.d.d.d.d.d.d.H i > . . . . . . . . . . . . , N Q q.d.d.d.G t e e e <   o 4 ",
".     X g R R R R R R R R R R R R b >                           , D R R R R R c # . . .   . o 4 ",
"$ $ $ $ 3 q q q q q q q q q q q q 3 1 $ $ $ $ $ $ $ $ $ $ $ $ $ 1 4 q q q q q 3 ; $ $ $ $ $ $ r ",
"2.2.2.2.2.2.2.2.2.2.2.2.2.2.2.2.2.2.2.2.2.2.2.2.2.2.2.2.2.2.2.2.2.2.2.2.2.2.2.2.2.2.2.2.2.2.4.M."
};
