/* XPM */
static char *_74567dce7304b41a5676cbd3c8695ac[] = {
/* columns rows colors chars-per-pixel */
"48 48 245 2 ",
"   c #151516",
".  c #0C0C0B",
"X  c #343438",
"o  c #2D2D2F",
"O  c #26221D",
"+  c #433B2F",
"@  c #3C6F27",
"#  c #477A1B",
"$  c #4E7736",
"%  c #6A5A38",
"&  c #04287D",
"*  c #193C78",
"=  c #394048",
"-  c #16437B",
";  c #374C79",
":  c #3D5379",
">  c #2D4976",
",  c #49494A",
"<  c #545556",
"1  c #5A7C55",
"2  c #507B49",
"3  c #50586A",
"4  c #656568",
"5  c #707177",
"6  c #5C6E62",
"7  c #985036",
"8  c #A0782D",
"9  c #9A5846",
"0  c #A35B46",
"q  c #98785B",
"w  c #986B51",
"e  c #A56649",
"r  c #A86D55",
"t  c #93756A",
"y  c #AA7869",
"u  c #4D811D",
"i  c #54852A",
"p  c #5B8934",
"a  c #4E8131",
"s  c #648C39",
"d  c #5C8758",
"f  c #548353",
"g  c #76995A",
"h  c #6D9051",
"j  c #64876A",
"k  c #789969",
"l  c #799874",
"z  c #768A70",
"x  c #7CA476",
"c  c #7AA158",
"v  c #B29035",
"b  c #C69C2E",
"n  c #CCA22E",
"m  c #D6A01D",
"M  c #948D57",
"N  c #BA9958",
"B  c #B5904F",
"V  c #B2A456",
"C  c #839767",
"Z  c #938C79",
"A  c #98957B",
"S  c #91906D",
"D  c #A78767",
"F  c #A99768",
"G  c #A8867A",
"H  c #B48777",
"J  c #A99A7A",
"K  c #B7926B",
"L  c #8BA777",
"P  c #95A97C",
"I  c #96B27B",
"U  c #8AA66A",
"Y  c #B4A578",
"T  c #AFA86F",
"R  c #C39B44",
"E  c #CDA953",
"W  c #E2AE46",
"Q  c #C8AC6A",
"!  c #C4A879",
"~  c #D5B472",
"^  c #D3AC73",
"/  c #072C82",
"(  c #0D3182",
")  c #183885",
"_  c #213E83",
"`  c #184687",
"'  c #1A4A93",
"]  c #23438C",
"[  c #2A4788",
"{  c #344C87",
"}  c #2A528B",
"|  c #3B558A",
" . c #2C4A93",
".. c #324E92",
"X. c #2A5794",
"o. c #355293",
"O. c #3A5797",
"+. c #3E6391",
"@. c #3D6AA2",
"#. c #44598A",
"$. c #445D99",
"%. c #496389",
"&. c #576888",
"*. c #597887",
"=. c #4B6494",
"-. c #4A669A",
";. c #556A9A",
":. c #5C769B",
">. c #67738A",
",. c #667998",
"<. c #71788A",
"1. c #4869A2",
"2. c #526BA2",
"3. c #5A6EA2",
"4. c #5C77A6",
"5. c #4D70A9",
"6. c #657AA7",
"7. c #697DB1",
"8. c #435EA0",
"9. c #7A8689",
"0. c #6A8396",
"q. c #78879B",
"w. c #708D8B",
"e. c #6A83A9",
"r. c #7889A8",
"t. c #6E84B1",
"y. c #788AB3",
"u. c #7A92B7",
"i. c #7993A2",
"p. c #888787",
"a. c #859786",
"s. c #959697",
"d. c #8F9591",
"f. c #A79687",
"g. c #B2928A",
"h. c #89A785",
"j. c #95AA85",
"k. c #99B485",
"l. c #97A796",
"z. c #9BB697",
"x. c #A8A688",
"c. c #B3A785",
"v. c #A3B98C",
"b. c #A8A699",
"n. c #A7B997",
"m. c #B4B799",
"M. c #B9B78D",
"N. c #8A97A8",
"B. c #959BA5",
"V. c #8493B5",
"C. c #8D9CBB",
"Z. c #8796B7",
"A. c #939EB9",
"S. c #9AA4AB",
"D. c #98A5BA",
"F. c #8EA4B2",
"G. c #A7A9A8",
"H. c #ABB7A9",
"J. c #B8BBAA",
"K. c #A6ACB9",
"L. c #ABB3BA",
"P. c #B4B4B4",
"I. c #BDBDBC",
"U. c #B6B8BA",
"Y. c #B4AAAA",
"T. c #C7A89A",
"R. c #CAB98C",
"E. c #C6BBA5",
"W. c #D1BBB3",
"Q. c #C9B2AB",
"!. c #C09682",
"~. c #ACC19B",
"^. c #AEC1A5",
"/. c #B7C6A9",
"(. c #BBC8B8",
"). c #AFC2B1",
"_. c #D9C493",
"`. c #E7C78D",
"'. c #C8C5A9",
"]. c #C7C7BB",
"[. c #D5C6BB",
"{. c #C5D2B9",
"}. c #D8CDB1",
"|. c #E1D2BC",
" X c #8E9DC2",
".X c #9AA6C3",
"XX c #9DAAC5",
"oX c #95A5C3",
"OX c #8DA3C5",
"+X c #A2ADC5",
"@X c #A5AEC8",
"#X c #ABB3C4",
"$X c #ABB5CB",
"%X c #A8B6CB",
"&X c #B3BBCC",
"*X c #B6BBC4",
"=X c #B5BED2",
"-X c #AFBED3",
";X c #BBC2CC",
":X c #BAC3C4",
">X c #BBC4D4",
",X c #B9C4D5",
"<X c #AFC1CC",
"1X c #C4C6CB",
"2X c #CCCCCB",
"3X c #C6C7C5",
"4X c #D4CDC5",
"5X c #CCD5C8",
"6X c #D7D6CA",
"7X c #C1C6D3",
"8X c #C4CBD5",
"9X c #CACED5",
"0X c #C4CCDA",
"qX c #C8CEDA",
"wX c #CCD2DD",
"eX c #CDD1D4",
"rX c #D4D4D4",
"tX c #DADCD4",
"yX c #D2D5DC",
"uX c #D6D9DD",
"iX c #DBDCDC",
"pX c #D7D9D3",
"aX c #E3DBC8",
"sX c #E2DCD7",
"dX c #DEE2DB",
"fX c #DBE1D5",
"gX c #E2E4DD",
"hX c #E7E2D5",
"jX c #EAE2CE",
"kX c #D6DAE3",
"lX c #DBDEE4",
"zX c #D2D6E1",
"xX c #CED6E1",
"cX c #DEE1E5",
"vX c #DFE2E8",
"bX c #E3E4E4",
"nX c #E6E9E5",
"mX c #E9EAE6",
"MX c #E4E5E9",
"NX c #ECECEC",
"BX c #E7E7E7",
"VX c #EFF0EE",
"CX c #EEEFF0",
"ZX c #F2F2F2",
"AX c #F0F0EF",
/* pixels */
"Y ).S.H.d l pX*X{ > ; K.3Xl $ J.B.q v b r g.rX3X4XrXH B b b S B.].p g 4XV._ * #.pX4Xh s H.B.x.J ",
"J.:XU.T.z.M.Q NXe.} :.sXE T n.%XO.X X D [.5Xg Y.'.L 6XQ.v +   ) 8Xv.v ~ 0X2.o..XnXB c.L 4 C.K.H.",
"S.#XP.t *X: q.uX6XcXaXrXq.> >X@.X.B.X o fXL *.[ ;.w.P fX    5 ) 2.&X[ C.].aXbX_.&X$.) S.X g.Y.K.",
"l.G.< t 7X* %.p.F H.F p.| - ,Xu.wXMX2Xs.fXL *.) o.r.C 5X5 U.bX>Xy.%X/  .S T ^.v ;.) & *Xt y Q.L ",
"k x L.*X,X6.6.K.2 2 $ G.u.u.lXlXu.d.C.uXNX{.h S.D.h m.mXuXC.w.V.kXyXu.u.(.p i # D.V.Z..XV.D.g h ",
"^.~.:.- 6.lXy.;XdXx 5XxXe.$XMXl h G A 0.bXI.dXiXgXfX2XgXN.h D k d eX4 1XZXpXk fXZXkX8X$.& ; V n.",
"tX`.r.-.4.ZX4.- i.VX<XX.X.lXZ.j n.y x.*.iXp.2X9XbX3X, 3X;.M e /.@ 6.bXtXp.uX .t.=X( C.$.$.N.R.rX",
"3XNXMXN.N.ZXMX0.=.b.e.:.>XNXw.t [.NX0XD.NXNXwX] 2.yXNXVXA.$XNXaXq j rXP.bXlX..& ,.* lXb.F sXcXr.",
": e.aXN $ ).-X- #.W A ` 5.NXV.C NX1.$XNXNXlX4.r.6.y.bXNXNX8Xo.NXj.:.bXp.$X,.N >.=.#X5X# T tX ._ ",
": } wX5Xd f u.O.Y W ~ e.1.8XkXD.kXO.&.o.uX>X&.}.E.: #XbX2.#._ yXS.:XZXMXo.Z m m b.NXC i /.yX) ) ",
": =.6X_.d ).MXlX.Xd.L.bXZXZXZXNX%X=._.J *XeXA 6XhXF :X9XS R.&.u.NXAXZXZX,XU.N >.=.F.fXp V 6X3.[ ",
"N.8XgXJ H.ZX:X1XwX5.XXNX,XcXkXBX8XJ aXJ.-.&X) U.4X{ D.y.Z hXF +XNXlXzX=XlXNX1./ ,.* 8XS.<.wXaXK.",
"6X`.L.4.4.uXlXiX4 MXZXlXX.+.O.#XNX-.:.S.] >X .r.J.) &X$.&.B.[ iXeX#.{ ( =XZX$.7.wX..t.7.o.&.E 3X",
"H.V 0.} 4.P.eXbXbXZXZXCX4.Y R.d.XX@X& C.V.uX>XiXbXD.lXe.r.( 2.wX>.~ Y ..yXZXkXvXiXMXwXy.) | T k ",
"l h.8X-XqXVX%Xi.i.#XZXCX4.c.aXZ.) kXXXzXqX(.H.D.eX9X/.8XNXA.bXO.=.aX~ #.kXZX8Xe.j y.pXlX$X=Xn.$ ",
"H.bXOXt.lXH.f f.b.B.lXZXuXs.-.r.3.>XdX7Xy.^.k A.V.:XL C.A.nXmX2.,.:.>.1XNXCXK.C w h f zXt. .oXJ.",
"*X4.X.OXzX0.H.4XAXNX-X@XbXlX-.[ NX>X5Xj.yX/.# 6XiXI g #XnXk.@XVX6.] ,XNX&Xy.wXNXnXm.g 7.wXo.{ s.",
"c.< 3 uXL.d.r NXOXX.-.f.&.-.lXcX>Xy.=Xp k.{.p pXmXg g gXh n.3.#XiXNXZ.] F &.[ ] NX0 H h.lX4   8 ",
"K x.= s.,Xa.G 8XcX4.c.sXP.) 6.bXn.^.cX/.h bXdX3XrX{.fX~.# bXyX(.tX%X/ ,.gX'.#.8X@XP L Z.G.. % 8 ",
"! ~ < < uX*X4.V.lXu.<.R.r.r.lX@XcXh # 5XbXrX*XrXW.bXP.tXfX~.i k.&XlXA.<.s.F -.CX&X,.N.iXp., Y v ",
"J !.mXdXNXZXrXNXZXMX8XC.o.-.0XXXA.nXk.5X3XpXT.H W.W.sX].mXL v.uXy.7XZ.o.3.7XbXNXZX2XbXNX6XtXW.q ",
"f.4X5Xh./.VX5 lXZXwX9X,X,XcX(.h.l k pXI.rXH e e 0 K r 4X3XmX{.v.n./.bX0XXX3X$XlXNX< 2X/.C C 5Xg.",
"].5Xj.F.a.(.rXCXqX-.f.&.( t.yX(.x a ^.bX4XK N H e ! K T.rXmXh i L (.0X] ) J >.2.0X2XbXd &.>.C rX",
"I.'.N.{ ,.4XgXV.[ Y.4X4Xb.1X9Xr.;XiXbXG.[.0 e H g.y 0 H pXP.tXtXA.#XgXK.4XhX6XN.o.yXgXK...-.[.4X",
"].4X6.1.#XiXyX1.D.6XsX2XL.iX#XA.pXpXY.3Xg.r H g.g.e 7 T.P.2XiXeX6.1XyXb.[.sXE.O.3.bXtXr.[ :.'.2X",
"2XP 6 4.z pXyX,X1.>.c. .) =X1Xk.p p gX2XW.K ! e w B r W.iX{.p g H.eXZ.( | J | XXcXP.tXh N.a.n.4X",
"g.6XP g m.iX3 NXzXD.*XC.,XMX{.n.n./.NX3XsXH K 0 7 e 9 tXP.gXL U I /.bX=X$X1X,XNXNX, rX/.U m.pXG ",
"q W.tX5XnXbX3XNXNXMXwXt.O.C.qXV.kX(.g mX3XgX[.W.g.T.4XI.pXI fX+XC.9X3...y.1XcXNXNX9XbXnX5XpXT.K ",
"B ! 4 d.bXD.y.&XNXt.A 9.:.A.MX&X{.u I mXtXP.dXY.2X2XI.gXgXi p dX.XnXr.>.x.t 3.MXV.| S.iX< o B R ",
"v % . s.XXj.x.C.lX| ].mXN.( @XNX/.cXNXs I nX5XrX3XfXNXg k.nX{.k.nXu.( G.sXc.#.wX>Xq z @XP.o < R ",
"B O , pXH.D 9 NX..[ >.J _ t.NXMX&X6.pXp dXk.s gXpXp /.^.# wX6.&XbXcX;.{ Y =.] 6.NX9 f.N.bX<.= M ",
"x.%.-.yXy.L m.NXlX,X4..XMXzXo.4.ZX&X~.gX=XI c rXtXp v.iX~./.&XNX$.-.lXcX@X.XlXNXW.n.j ,X%X' 1.I.",
"(.V.) 6.wXl p w j.S.NXNXyX,.;.r.2.MXNX@XZ.v.^.r.A.I n.V.&XfXeX6.,.#.p.rXNXbXS.j.G 2 h.bXy.u.kXH.",
"g k.$XXXkXpXi.w.0.*XCXMX-.R.jX;.O.NX.XNXqX{.9X7XK.3X{.8XiX#XbX) r.aX! =.bXNX*Xq.w.C.BXwX%X;Xh.1 ",
"n.M &.] e.lXbX9XzXvXNXkXo.R.~ 5 wXt./ y.6.BX.XyXiX8XnXC.D.& XX$X9.R.! $.bXVXAXgXiXrXd.e.' &.M l.",
"rXE 3 ..3. XO.zX X8.MXqX) | #.2XNX[ N.>.o.,X( G.D. .qX..N.,.| NX;X#.#.) wXVXMX9.eXyXtXt.3.K.`.2X",
"*X|.9X,.N.0X) ,./ O.MXvX%XwXkXNX=XY jXA 6.@X{ 4X].) %X;.G.hXY 7XmXyXyX=XBX$X1.uXrXG.ZXH.J tX7Xq.",
"#.t.6XQ s {..X%.#.F I.8XZXZXZXCX X;.R.S ;X1XY aXtXS 3X;Xc._.&..XNXNXNXNXbXL.Z F.MXNX(.1 M.6X#.> ",
"{ ) 9X{.h p NXG.b m S ..kXZX0XN.kX] #.$.cX&X{ E.}.>.;XiX#.&.| uXS.eX8X-.e.Q n Y | e.d 1 3XuX> > ",
"{ ] rXM.u I wX=.<.R >.D.d.iX4.z NXO.7XNXNXMXV.:.N.2.kXmXBX&Xo.mXz r.BX-.` Z W &.* $X(.$ N |.r.3 ",
"6.&XsXN x.BXO.*.& o.kXbXG.rXj q [.NX7XV.AXNXlX6.[ 8XmXNXK.;XNX[.t z bX;X*.,.b.%.0.vXZXB.q.lXgX3X",
"tX_.#X-.O..X/ @X3.] wX5 2XbX6.$ v.r S | 1X, P.nX9X3X4 rX,.f.9 j.j Z.lX} +.<XZXN.> =.ZX,.%.>.^ 2X",
"(.V 3 ( o.,X,XZXNXk 5XZXrX< uXg g J C q.bX2XgXgXtXgX2XbXw.A g.k L BX&Xy.xX{.z dX>Xr.lX,.* %.x.a.",
"L p N.6.V.XX.X$Xg u i ).OXC.wXlXV.*.V.wXNX'.h S.K.g {.mXuXA.s.Z.cXlXV.r.G.2 1 1 G.,.,.;XL.G.z 1 ",
"j.m.H g.3X& ) $.V v.I A ] / .XV.,XbXI.4 5XU q.$. .,.U fX5 P.bXyXZ.8X` %.A T (.Q d.%.* *X4 , s.s.",
"*XY.G + s.& $.+X_.bXaX'.D.[ @X3.( 5   . pXv.9.6.{ *.P gXX o p.{ 4.9X: N.tXsXbXaXkX<.3 *Xt U.L.B.",
"U.s.Z., j.J B nX&X1.6.wX_.v I 8X)   + v T.tXk.'.m.k 6XW.K < X ; >Xj.Y ~ sX,.| r.NX^ T l.Q.U.:Xb.",
"m.n.l.P.h i E.4X$.) _ V.[.g i H.B.q b b B y 4X4X3X2XG D v v M S.b.1 l.rXS.: ; { *XrXa.1 H.B.J.D "
};
